<?xml version="1.0" encoding="UTF-8"?>
<svg width="32px" height="44px" viewBox="0 0 32 44" version="1.1" xmlns="http://www.w3.org/2000/svg" xmlns:xlink="http://www.w3.org/1999/xlink">
    <title>icon/file/zip/tomato</title>
    <g id="icon/file/zip/tomato" stroke="none" stroke-width="1" fill="none" fill-rule="evenodd">
        <g id="file-icon">
            <path d="M22.0376317,0.5 C22.8639351,0.5 23.6635926,0.792348435 24.2950546,1.32529592 L24.2950546,1.32529592 L30.2574229,6.35747377 C31.045369,7.02249225 31.5,8.00110623 31.5,9.03217785 L31.5,9.03217785 L31.5,40 C31.5,40.9664983 31.1082492,41.8414983 30.4748737,42.4748737 C29.8414983,43.1082492 28.9664983,43.5 28,43.5 L28,43.5 L4,43.5 C3.03350169,43.5 2.15850169,43.1082492 1.52512627,42.4748737 C0.891750844,41.8414983 0.5,40.9664983 0.5,40 L0.5,40 L0.5,4 C0.5,3.03350169 0.891750844,2.15850169 1.52512627,1.52512627 C2.15850169,0.891750844 3.03350169,0.5 4,0.5 L4,0.5 Z" id="Rectangle" stroke="#FF584A" fill="#FFFFFF"></path>
            <path d="M22,0 L22,5 C22,7.209139 23.790861,9 26,9 L32,9 L32,9" id="Path" stroke="#FF584A"></path>
            <g id="rects" transform="translate(6.000000, 0.000000)" fill="#FF584A">
                <rect id="file-icon-rect21" x="0" y="41.4505495" width="2" height="2"></rect>
                <rect id="file-icon-rect20" x="2" y="39.4285714" width="2" height="2"></rect>
                <rect id="file-icon-rect19" x="0" y="37.4065934" width="2" height="2"></rect>
                <rect id="file-icon-rect18" x="2" y="35.3846154" width="2" height="2"></rect>
                <rect id="file-icon-rect17" x="0" y="32.8571429" width="2" height="2"></rect>
                <rect id="file-icon-rect16" x="2" y="30.8351648" width="2" height="2"></rect>
                <rect id="file-icon-rect15" x="0" y="28.8131868" width="2" height="2"></rect>
                <rect id="file-icon-rect14" x="2" y="26.7912088" width="2" height="2"></rect>
                <rect id="file-icon-rect13" x="0" y="24.2637363" width="2" height="2"></rect>
                <rect id="file-icon-rect12" x="2" y="22.2417582" width="2" height="2"></rect>
                <rect id="file-icon-rect11" x="0" y="20.2197802" width="2" height="2"></rect>
                <rect id="file-icon-rect10" x="2" y="18.1978022" width="2" height="2"></rect>
                <rect id="file-icon-rect9" x="0" y="16.1758242" width="2" height="2"></rect>
                <rect id="file-icon-rect8" x="2" y="14.1538462" width="2" height="2"></rect>
                <rect id="file-icon-rect7" x="0" y="12.1318681" width="2" height="2"></rect>
                <rect id="file-icon-rect6" x="2" y="10.1098901" width="2" height="2"></rect>
                <rect id="file-icon-rect5" x="0" y="8.08791209" width="2" height="2"></rect>
                <rect id="file-icon-rect4" x="2" y="6.06593407" width="2" height="2"></rect>
                <rect id="file-icon-rect3" x="0" y="4.04395604" width="2" height="2"></rect>
                <rect id="file-icon-rect2" x="2" y="2.02197802" width="2" height="2"></rect>
                <rect id="file-icon-rect1" x="0" y="0" width="2" height="2"></rect>
            </g>
        </g>
    </g>
</svg>