<?xml version="1.0" encoding="UTF-8"?>
<svg width="17px" height="21px" viewBox="0 0 17 21" version="1.1" xmlns="http://www.w3.org/2000/svg" xmlns:xlink="http://www.w3.org/1999/xlink">
    <!-- Generator: Sketch 56.3 (81716) - https://sketch.com -->
    <title>icon/lamassu logo</title>
    <desc>Created with Sketch.</desc>
    <defs>
        <path d="M15.9632802,11.2669066 C15.9632802,11.2669066 14.9023681,10.9455429 14.0129505,10.7498611 C14.0129505,10.7498611 13.7321703,9.03406566 13.3261319,7.20690657 C13.3261319,7.20690657 13.5606758,7.1870202 13.7237637,7.76213384 L14.3357637,10.5191793 C14.3357637,10.5191793 15.4202143,10.7617929 16.2659176,11.0720202 L15.9632802,11.2669066 Z M13.653989,5.33997475 L13.8977802,5.07986111 C14.3719121,5.14349747 14.6274725,5.27474747 14.6274725,5.27474747 L14.577033,5.34792929 L14.6711868,6.06463384 C14.5341593,6.06940657 14.3239945,6.17679293 14.3239945,6.17679293 L14.1651099,6.08133838 L14.1651099,5.58497475 C13.6918187,5.51179293 13.6497857,5.44099747 13.6497857,5.44099747 L13.653989,5.33997475 Z M11.1446209,16.001452 C10.095478,16.1844066 8.80926923,15.9457702 8.80926923,15.9457702 L8.85550549,15.7492929 C8.85550549,15.7492929 10.4233352,15.9211111 11.2959396,15.660202 C11.2337308,15.8049747 11.2160769,15.8495202 11.1446209,16.001452 L11.1446209,16.001452 Z M8.22248901,12.7281566 C7.497,13.2444066 6.76478571,13.7192929 6.26711538,14.0955429 C6.23685165,14.6086111 6.18725275,15.4406566 6.18725275,15.4406566 L4.88927473,16.2034975 L4.67238462,16.0770202 C4.72282418,15.6816793 4.78587363,15.3897475 4.78587363,15.3897475 L4.96745604,15.2608838 C4.9271044,15.5122475 4.90776923,15.8678157 4.90776923,15.8678157 L5.89890659,15.2600884 C5.93841758,14.6141793 6.0165989,13.9650884 6.0165989,13.9650884 C6.23685165,13.770202 7.81729121,12.7082702 8.95638764,11.9756566 C8.95638764,11.9756566 8.96395055,12.2007702 8.22248901,12.7281566 L8.22248901,12.7281566 Z M16.9914066,11.2923611 L16.5139121,11.5516793 C17.1452473,13.7622475 16.5029835,15.5217929 15.6917473,16.6831566 C14.8813516,17.8453157 14.3929286,18.9995202 14.4080604,20.0296338 L14.8056923,20.3303157 L15.0091319,20.9555429 L12.7990385,20.9555429 L12.7889505,20.3637247 C12.7881099,18.8666793 13.3521923,17.6162247 13.3521923,17.6162247 C13.6766868,17.541452 14.0112692,17.2924747 14.0112692,17.2924747 C13.4866978,17.3974747 12.8318242,17.3219066 12.8318242,17.3219066 C13.3025934,16.4970202 13.4471868,15.905202 13.4471868,15.905202 L13.2252527,15.8574747 C13.1487527,16.0213384 13.0697308,16.1820202 12.9856648,16.3371338 C12.4148571,17.4006566 11.7868846,18.0799747 11.4127912,19.6048611 L11.8045385,19.9023611 L12.2568132,20.9555429 L9.70877473,20.9555429 C9.69364286,19.0965657 10.285467,17.698952 10.4989945,17.2924747 C9.14721429,17.4356566 7.53482967,16.7809975 6.25702747,17.0331566 C5.90563187,19.203952 4.10914286,19.6311111 3.26596154,19.5125884 L2.66320879,20.4878157 L3.20963736,20.9555429 L1.19121429,20.9555429 C1.18112637,20.8728157 1.15590659,20.7845202 1.10042308,20.7017929 C1.10042308,20.7017929 1.76622527,19.7647475 2.22102198,18.5063384 C2.58586813,18.6598611 3.35675275,18.3687247 3.3886978,17.5923611 C3.42148352,16.8167929 3.28445604,15.6116793 3.99817582,14.6905429 C4.71105495,13.7686111 5.48193956,13.2698611 6.48820879,12.5412247 C7.14224176,12.0671338 8.25023077,11.2661111 8.94713736,10.7633838 L8.60330769,10.8381566 L6.09393956,12.8180429 L5.21629121,12.8180429 L7.75171978,10.6019066 L7.42386264,10.5955429 L4.7741044,12.8180429 L3.88468681,12.8180429 L6.50754396,10.2550884 L6.1922967,10.252702 L3.47192308,12.8180429 L2.56401099,12.8180429 L5.1977967,9.8907702 L4.89347802,9.89236111 L2.17898901,12.8180429 L1.22315934,12.8180429 L3.78128571,9.49622475 L3.48621429,9.50020202 L0.862516484,12.8180429 L0,12.8180429 C0,12.8180429 3.68460989,7.19656566 4.4100989,6.13145202 C5.13474725,5.06633838 5.92244505,4.04497475 7.21958242,3.83656566 C8.53101099,3.62497475 9.42547253,3.90815657 10.0660549,4.9295202 C10.4115659,5.47838384 10.8293736,6.10599747 11.1572308,6.61429293 C10.823489,7.13213384 10.4056813,7.53463384 10.3661703,8.15747475 C10.3199341,8.87417929 10.8192857,9.30770202 11.3236813,9.34270202 C10.944544,9.21224747 10.6452692,8.7795202 10.7806154,8.20440657 C10.9210055,7.61020202 11.4127912,7.30792929 11.786044,6.82747475 C12.1071758,6.41224747 12.1122198,5.80372475 12.0886813,5.60088384 C12.0643022,5.39804293 11.8255549,5.23974747 11.8255549,5.23974747 C11.8255549,5.23974747 11.8331209,4.8332702 11.8255549,4.38940657 C11.817989,3.94633838 12.0163846,3.69099747 12.0163846,3.69099747 C12.0163846,3.69099747 12.0088187,3.02838384 11.9844396,2.25440657 C11.9600604,1.50986111 11.8877637,1.28474747 11.815467,1.18531566 C11.815467,1.18531566 11.8726319,0.970542929 12.0878407,0.739065657 L12.3064121,0.929974747 L12.3728242,0.500429293 C12.5106923,0.410542929 12.6805055,0.328611111 12.8906703,0.26895202 C12.9133681,0.262588384 12.9352253,0.257815657 12.9579231,0.252247475 L13.2328187,0.564065657 L13.4009505,0.171111111 C13.6548297,0.14645202 13.8742418,0.161565657 14.0566648,0.199747475 L14.2096648,0.61020202 L14.4055385,0.316679293 C14.5568571,0.39145202 14.651011,0.47895202 14.6787527,0.546565657 C14.6787527,0.546565657 14.6392418,0.795542929 14.7022912,1.19406566 C14.7636593,1.5782702 14.9410385,2.43417929 14.9410385,2.43417929 C15.1873516,2.63065657 15.4656099,3.07372475 15.4656099,3.07372475 C15.6362637,3.86520202 15.6261758,4.41804293 15.6253352,4.48088384 C14.9183407,4.10065657 13.9734396,4.01236111 13.9734396,4.01236111 L13.6430604,4.29474747 C14.2937308,4.38224747 15.1024451,4.60736111 15.3109286,4.76486111 C15.4328242,5.02895202 15.5135275,5.44974747 15.5135275,5.44974747 L15.2504011,5.76554293 L15.4967143,6.02088384 C15.5135275,6.32156566 15.4059231,6.62304293 15.4059231,6.62304293 C15.9178846,6.93883838 16.0616374,7.6945202 16.3827692,8.96883838 C16.7047418,10.2431566 16.9914066,11.2923611 16.9914066,11.2923611 Z M6.90404218,17.4070696 C7.4522429,17.3602245 8.07398275,17.4469229 8.73082082,17.5378164 L8.82692308,17.5511009 C8.71912141,18.2090301 8.07147573,19.0480472 6.97173159,19.3284188 L8.06479036,20.5757576 L6.58648688,20.5757576 C6.40263907,20.3198574 5.81934013,19.5311813 5.51682692,19.2221433 C6.013216,18.9459668 6.64749092,18.4089959 6.90404218,17.4070696 Z" id="path-1"></path>
    </defs>
    <g id="Styleguide" stroke="none" stroke-width="1" fill="none" fill-rule="evenodd">
        <g id="icon/lamassu-logo">
            <g id="color/amaz/default">
                <mask id="mask-2" fill="white">
                    <use xlink:href="#path-1"></use>
                </mask>
                <use id="Mask" fill="#83FFFD" xlink:href="#path-1"></use>
            </g>
        </g>
    </g>
</svg>