<?xml version="1.0" encoding="UTF-8"?>
<svg width="20px" height="20px" viewBox="0 0 20 20" version="1.1" xmlns="http://www.w3.org/2000/svg" xmlns:xlink="http://www.w3.org/1999/xlink">
    <title>icon/button/photo/white-resized</title>
    <g id="icon/button/photo/white-resized" stroke="none" stroke-width="1" fill="none" fill-rule="evenodd">
        <g id="Group-3" transform="translate(-0.000000, 0.000000)">
            <g id="Group-2" transform="translate(3.333333, 0.000000)" stroke="#FFFFFF">
                <rect id="Rectangle-Copy" transform="translate(8.333333, 8.333333) scale(-1, 1) translate(-8.333333, -8.333333) " x="0.5" y="0.5" width="15.6666667" height="15.6666667" rx="1"></rect>
                <circle id="Oval-Copy" fill="#FFFFFF" transform="translate(4.166667, 4.166667) scale(-1, 1) translate(-4.166667, -4.166667) " cx="4.16666667" cy="4.16666667" r="1"></circle>
            </g>
            <g id="Group" transform="translate(0.000000, 6.666667)">
                <g id="Group-14" transform="translate(11.691221, 6.211306) scale(-1, 1) translate(-11.691221, -6.211306) translate(4.158064, 3.055556)" stroke="#FFFFFF" stroke-linejoin="round">
                    <polyline id="Path-Copy-2" points="0 4.58204149 5.10673153 0 11.6154223 6.31150113"></polyline>
                    <polyline id="Path" points="9.02830015 3.23981481 11.3158819 0.925925926 15.0663146 4.81868037"></polyline>
                </g>
                <g id="Group-9">
                    <circle id="Oval" stroke="#FFFFFF" fill="#5F668A" cx="6.66666667" cy="6.66666667" r="6.16666667"></circle>
                    <polygon id="Path" fill="#FFFFFF" fill-rule="nonzero" points="7.22222222 6.11111111 10 6.11111111 10 7.22222222 7.22222222 7.22222222 7.22222222 10 6.11111111 10 6.11111111 7.22222222 3.33333333 7.22222222 3.33333333 6.11111111 6.11111111 6.11111111 6.11111111 3.33333333 7.22222222 3.33333333"></polygon>
                </g>
            </g>
        </g>
    </g>
</svg>