<?xml version="1.0" encoding="UTF-8"?>
<svg width="20px" height="20px" viewBox="0 0 20 20" version="1.1" xmlns="http://www.w3.org/2000/svg" xmlns:xlink="http://www.w3.org/1999/xlink">
    <title>icon/button/photo/zodiac-resized</title>
    <g id="icon/button/photo/zodiac-resized" stroke="none" stroke-width="1" fill="none" fill-rule="evenodd">
        <g id="Group-2">
            <g id="Group" transform="translate(11.666667, 8.333333) scale(-1, 1) translate(-11.666667, -8.333333) translate(3.333333, 0.000000)" stroke="#1B2559">
                <rect id="Rectangle-Copy" x="0.5" y="0.5" width="15.6666667" height="15.6666667" rx="1"></rect>
                <circle id="Oval-Copy" fill="#1B2559" cx="12.5" cy="4.16666667" r="1"></circle>
                <g id="Group-14" transform="translate(0.775621, 9.722222)" stroke-linejoin="round">
                    <polyline id="Path-Copy-2" points="0 4.58204149 5.10673153 0 11.6154223 6.31150113"></polyline>
                    <polyline id="Path" points="9.02830015 3.23981481 11.3158819 0.925925926 15.0663146 4.81868037"></polyline>
                </g>
            </g>
            <g id="Group-9" transform="translate(0.000000, 6.666667)">
                <circle id="Oval" stroke="#1B2559" fill="#EBEFFF" cx="6.66666667" cy="6.66666667" r="6.16666667"></circle>
                <polygon id="Path" fill="#1B2559" fill-rule="nonzero" points="7.22222222 6.11111111 10 6.11111111 10 7.22222222 7.22222222 7.22222222 7.22222222 10 6.11111111 10 6.11111111 7.22222222 3.33333333 7.22222222 3.33333333 6.11111111 6.11111111 6.11111111 6.11111111 3.33333333 7.22222222 3.33333333"></polygon>
            </g>
        </g>
    </g>
</svg>