<svg xmlns="http://www.w3.org/2000/svg" width="192" height="376" viewBox="0 0 192 376">
  <defs>
    <style>
      .cls-1, .cls-12 {
        fill: #fff;
      }

      .cls-1, .cls-4, .cls-9 {
        opacity: 0.74;
      }

      .cls-2 {
        fill: #b8c2e6;
      }

      .cls-3 {
        fill: #d2d8ff;
      }

      .cls-11, .cls-4 {
        fill: #5a67ff;
      }

      .cls-5 {
        fill: #4b5fef;
      }

      .cls-6 {
        fill: #7687ff;
      }

      .cls-7 {
        fill: #1b2559;
      }

      .cls-8 {
        fill: #ebefff;
      }

      .cls-9 {
        fill: #ccd8ff;
      }

      .cls-10 {
        fill: #dee5fc;
        opacity: 0.8;
      }
    </style>
  </defs>
  <g id="Layer_1" data-name="Layer 1">
    <g>
      <g>
        <polygon class="cls-1" points="161.68 282 50.52 217.37 10.11 240.87 121.26 305.5 161.68 282"/>
        <polyline class="cls-2" points="50.52 262.06 123.23 304.35 159.69 283.16 50.52 219.68"/>
        <polygon class="cls-3" points="121.26 352.5 10.1 287.87 10.11 240.87 121.26 305.5 121.26 352.5"/>
        <polygon class="cls-4" points="50.52 219.68 50.52 262.06 32.29 251.47 14.07 240.87 50.52 219.68"/>
      </g>
      <g>
        <polygon class="cls-1" points="161.68 223.25 50.52 158.63 10.11 182.13 121.26 246.75 161.68 223.25"/>
        <polyline class="cls-2" points="50.52 203.32 123.23 245.6 159.69 224.41 50.52 160.93"/>
        <polygon class="cls-3" points="121.26 293.75 10.1 229.13 10.11 182.13 121.26 246.75 121.26 293.75"/>
        <polygon class="cls-4" points="50.52 160.93 50.52 203.32 32.29 192.72 14.07 182.13 50.52 160.93"/>
      </g>
      <polyline class="cls-5" points="70.73 156.31 123.23 186.85 159.69 165.66 70.73 113.93"/>
      <polygon class="cls-6" points="161.68 164.5 70.74 111.62 30.32 135.12 121.26 188 161.68 164.5"/>
      <polygon class="cls-5" points="121.26 235 30.31 182.12 30.32 135.12 121.26 188 121.26 235"/>
      <polygon class="cls-7" points="70.73 113.93 70.73 156.31 52.51 145.72 34.28 135.12 70.73 113.93"/>
      <g>
        <polygon class="cls-1" points="161.68 105.75 50.52 41.12 10.11 64.62 121.26 129.25 161.68 105.75"/>
        <polyline class="cls-2" points="50.52 85.81 123.23 128.1 159.69 106.91 50.52 43.43"/>
        <polygon class="cls-3" points="121.26 176.25 10.1 111.62 10.11 64.62 121.26 129.25 121.26 176.25"/>
        <polygon class="cls-4" points="50.52 43.43 50.52 85.81 32.29 75.22 14.07 64.62 50.52 43.43"/>
      </g>
      <polygon class="cls-8" points="181.89 70.5 181.88 340.75 121.25 376 121.26 105.75 181.89 70.5"/>
      <g>
        <polygon class="cls-9" points="121.26 105.75 0 35.25 0 305.5 121.26 376 121.26 105.75"/>
        <polygon class="cls-10" points="181.9 70.5 60.63 0 0 35.25 121.26 105.75 181.9 70.5"/>
      </g>
      <g>
        <polygon class="cls-3" points="171.79 229.12 131.37 252.62 131.37 299.62 171.79 276.12 171.79 229.12"/>
        <path class="cls-8" d="M147.85,271.1a4.92,4.92,0,0,0,4.55-.35c2.09-1.11,3.6-3.2,3.58-4.93,0-2.13-2-2.11-4.29-.88l-1.38.73-.82-1.47,3.62-6.3c.78-1.35,1.41-2.29,1.41-2.29v-.05s-.58.39-1.75,1l-5.92,3.08v-3.19l12.07-6.27,0,2.3-4.81,8.25c2.75-1,5.46-.47,5.5,3s-2.52,8-7,10.37c-4.27,2.28-6.65.82-6.65.82Z"/>
      </g>
      <polygon class="cls-3" points="171.79 111.62 131.37 135.12 131.37 182.12 171.79 158.62 171.79 111.62"/>
      <g id="front-drawerr">
        <polyline class="cls-6" points="131.37 193.88 151.58 205.63 192 182.13 171.79 170.38"/>
        <polygon class="cls-11" points="192 182.13 151.58 205.63 151.58 252.63 192 229.13 192 182.13"/>
        <polygon class="cls-5" points="151.58 252.63 131.37 240.88 131.37 193.88 151.58 205.63 151.58 252.63"/>
        <polyline class="cls-5" points="133.35 192.72 151.58 203.32 188.03 182.13 169.81 171.53"/>
        <polygon class="cls-7" points="169.81 171.53 169.81 192.72 151.58 203.32 133.35 192.72 169.81 171.53"/>
        <g>
          <path class="cls-12" d="M165.65,230.28c0-7.37,9.32-13.53,9.29-17.55,0-1.76-1.37-2.1-3-1.21-2.32,1.23-3.57,4.3-3.57,4.3l-2.68-.41a15.23,15.23,0,0,1,6.54-7.54c3.47-1.83,6.45-1.24,6.49,2.56.07,6.45-8.86,12.37-8.93,16.25l9.37-5.07,0,3.15L165.82,232A13.34,13.34,0,0,1,165.65,230.28Z"/>
          <path class="cls-8" d="M165.65,230.28c0-7.37,9.32-13.53,9.29-17.55,0-1.76-1.37-2.1-3-1.21-2.32,1.23-3.57,4.3-3.57,4.3l-2.68-.41a15.23,15.23,0,0,1,6.54-7.54c3.47-1.83,6.45-1.24,6.49,2.56.07,6.45-8.86,12.37-8.93,16.25l9.37-5.07,0,3.15L165.82,232A13.34,13.34,0,0,1,165.65,230.28Z"/>
        </g>
      </g>
      <path class="cls-8" d="M147.65,155.58,152,153.1l0-11.26c0-.69,0-1.39,0-1.39l-.06,0a9.6,9.6,0,0,1-.86,1.63l-1.59,2.45-2.13-1.11,4.95-7.67,3.15-1.75.12,17.05,4.35-2.48,0,3.14-12.29,7Z"/>
      <polygon class="cls-3" points="171.78 287.87 131.36 311.37 131.36 358.37 171.78 334.87 171.78 287.87"/>
      <path class="cls-8" d="M145.25,330.84l8.51-16.71,4.25-1.91.14,11.92,2.59-1.18,0,3-2.59,1.19.06,5.19-3.6,1.66,0-5.21-9.36,4.29Zm9.33-5.07-.05-6.27a21.54,21.54,0,0,1,.12-2.17l-.05,0a19.36,19.36,0,0,1-1,2.29l-4.56,8.58v.06Z"/>
    </g>
  </g>
</svg>
