<svg xmlns="http://www.w3.org/2000/svg" width="192" height="376" viewBox="0 0 192 376">
  <defs>
    <style>
      .cls-1, .cls-12 {
        fill: #fff;
      }

      .cls-1, .cls-4, .cls-9 {
        opacity: 0.74;
      }

      .cls-2 {
        fill: #b8c2e6;
      }

      .cls-3 {
        fill: #d2d8ff;
      }

      .cls-11, .cls-4 {
        fill: #5a67ff;
      }

      .cls-5 {
        fill: #4b5fef;
      }

      .cls-6 {
        fill: #7687ff;
      }

      .cls-7 {
        fill: #1b2559;
      }

      .cls-8 {
        fill: #ebefff;
      }

      .cls-9 {
        fill: #ccd8ff;
      }

      .cls-10 {
        fill: #dee5fc;
        opacity: 0.8;
      }
    </style>
  </defs>
  <g id="Layer_1" data-name="Layer 1">
    <g>
      <g>
        <polygon class="cls-1" points="161.67 282 50.52 217.38 10.11 240.88 121.26 305.5 161.67 282"/>
        <polyline class="cls-2" points="50.52 262.07 123.23 304.35 159.68 283.16 50.52 219.68"/>
        <polygon class="cls-3" points="121.26 352.5 10.1 287.88 10.11 240.88 121.26 305.5 121.26 352.5"/>
        <polygon class="cls-4" points="50.52 219.68 50.52 262.07 32.29 251.47 14.07 240.88 50.52 219.68"/>
      </g>
      <g>
        <polyline class="cls-5" points="70.74 215.07 123.23 245.6 159.69 224.41 70.74 172.68"/>
        <polygon class="cls-6" points="161.68 223.25 70.74 170.37 30.32 193.88 121.27 246.75 161.68 223.25"/>
        <polygon class="cls-5" points="121.26 293.75 30.32 240.88 30.32 193.88 121.26 246.75 121.26 293.75"/>
        <polygon class="cls-7" points="70.74 172.68 70.74 215.07 52.51 204.47 34.28 193.87 70.74 172.68"/>
      </g>
      <g>
        <polygon class="cls-1" points="161.68 164.5 50.53 99.87 10.11 123.37 121.27 188 161.68 164.5"/>
        <polyline class="cls-2" points="50.53 144.56 123.23 186.85 159.69 165.66 50.53 102.18"/>
        <polygon class="cls-3" points="121.26 235 10.11 170.37 10.11 123.37 121.26 188 121.26 235"/>
        <polygon class="cls-4" points="50.53 102.18 50.53 144.56 32.3 133.97 14.07 123.37 50.53 102.18"/>
      </g>
      <g>
        <polygon class="cls-1" points="161.68 105.75 50.53 41.12 10.11 64.62 121.27 129.25 161.68 105.75"/>
        <polyline class="cls-2" points="50.53 85.81 123.23 128.1 159.69 106.91 50.53 43.43"/>
        <polygon class="cls-3" points="121.26 176.25 10.11 111.62 10.11 64.62 121.26 129.25 121.26 176.25"/>
        <polygon class="cls-4" points="50.53 43.43 50.53 85.81 32.3 75.22 14.07 64.62 50.53 43.43"/>
      </g>
      <polygon class="cls-8" points="181.9 70.5 181.89 340.75 121.26 376 121.27 105.75 181.9 70.5"/>
      <g>
        <polygon class="cls-3" points="171.79 170.38 131.37 193.88 131.37 240.88 171.79 217.38 171.79 170.38"/>
        <path class="cls-8" d="M145.58,219.64c0-7.36,9.32-13.53,9.29-17.54,0-1.76-1.37-2.11-3-1.22-2.31,1.23-3.56,4.31-3.56,4.31l-2.69-.42a15.23,15.23,0,0,1,6.54-7.53c3.47-1.84,6.45-1.24,6.49,2.55.07,6.46-8.86,12.38-8.93,16.26l9.37-5.07,0,3.14-13.34,7.24A13.17,13.17,0,0,1,145.58,219.64Z"/>
      </g>
      <polygon class="cls-3" points="171.79 111.62 131.37 135.12 131.37 182.12 171.79 158.62 171.79 111.62"/>
      <path class="cls-8" d="M147.66,155.58,152,153.1l0-11.26c0-.69,0-1.39,0-1.39l0,0a10.31,10.31,0,0,1-.87,1.63l-1.59,2.45-2.12-1.11,5-7.67,3.14-1.75.12,17.05,4.35-2.48,0,3.14-12.29,7Z"/>
      <g>
        <polygon class="cls-9" points="121.26 105.75 0 35.25 0 305.5 121.26 376 121.26 105.75"/>
        <polygon class="cls-10" points="181.89 70.5 60.63 0 0 35.25 121.26 105.75 181.89 70.5"/>
      </g>
      <polygon class="cls-3" points="171.78 287.88 131.36 311.38 131.36 358.38 171.78 334.88 171.78 287.88"/>
      <path class="cls-8" d="M145.25,330.84l8.5-16.71,4.26-1.91.14,11.92,2.58-1.18.05,3-2.6,1.19.06,5.19L154.65,334l-.05-5.21-9.35,4.29Zm9.33-5.07-.05-6.26a21.61,21.61,0,0,1,.12-2.18l-.06,0a20.39,20.39,0,0,1-1,2.29l-4.56,8.58v.06Z"/>
      <g id="front-drawerr">
        <polyline class="cls-6" points="131.37 252.62 151.58 264.37 192 240.87 171.79 229.12"/>
        <polygon class="cls-11" points="192 240.87 151.58 264.37 151.58 311.37 192 287.87 192 240.87"/>
        <polygon class="cls-5" points="151.58 311.37 131.37 299.62 131.37 252.62 151.58 264.37 151.58 311.37"/>
        <polyline class="cls-5" points="133.35 251.47 151.58 262.07 188.03 240.87 169.81 230.28"/>
        <polygon class="cls-7" points="169.81 230.28 169.81 251.47 151.58 262.07 133.35 251.47 169.81 230.28"/>
        <path class="cls-12" d="M167.44,284.44a4.92,4.92,0,0,0,4.55-.35c2.09-1.11,3.6-3.2,3.58-4.94,0-2.13-2-2.1-4.29-.87l-1.38.72-.82-1.46,3.62-6.31c.77-1.35,1.41-2.28,1.41-2.28v-.06s-.58.39-1.75,1L166.44,273v-3.19l12.07-6.27,0,2.29-4.81,8.26c2.75-1.05,5.46-.48,5.5,3s-2.52,8-7,10.38c-4.27,2.28-6.65.82-6.65.82Z"/>
      </g>
    </g>
  </g>
</svg>
