<?xml version="1.0" encoding="UTF-8"?>
<svg width="12px" height="12px" viewBox="0 0 12 12" version="1.1" xmlns="http://www.w3.org/2000/svg" xmlns:xlink="http://www.w3.org/1999/xlink">
    <title>icon/button/upload-file/white</title>
    <g id="icon/button/upload-file/white" stroke="none" stroke-width="1" fill="none" fill-rule="evenodd">
        <g id="Add-File-Icon" transform="translate(0.000000, 0.500000)">
            <g id="file-icon" transform="translate(3.500000, 0.000000)" stroke="#FFFFFF">
                <g id="lines" transform="translate(1.846154, 4.615385)" stroke-linecap="round">
                    <line x1="0" y1="4.15384615" x2="4.61538462" y2="4.15384615" id="line-3"></line>
                    <line x1="0" y1="2.30769231" x2="4.61538462" y2="2.30769231" id="line-2"></line>
                    <line x1="0" y1="0.461538462" x2="3.23076923" y2="0.461538462" id="line-1"></line>
                </g>
                <polygon id="paper" stroke-linecap="round" stroke-linejoin="round" points="8 11 0 11 -6.97331082e-13 0 5 1.71951342e-12 8 3"></polygon>
                <polygon id="fold" stroke-linejoin="round" points="5 0 5 3 8 3"></polygon>
            </g>
            <g id="plus-sign" transform="translate(0.000000, 3.500000)">
                <circle id="circle" stroke="#FFFFFF" fill="#5F668A" cx="4" cy="4" r="3.5"></circle>
                <polygon id="plus" fill="#FFFFFF" fill-rule="nonzero" points="4.33333333 3.66666667 6 3.66666667 6 4.33333333 4.33333333 4.33333333 4.33333333 6 3.66666667 6 3.66666667 4.33333333 2 4.33333333 2 3.66666667 3.66666667 3.66666667 3.66666667 2 4.33333333 2"></polygon>
            </g>
        </g>
    </g>
</svg>