<?xml version="1.0" encoding="UTF-8"?>
<svg width="12px" height="12px" viewBox="0 0 12 12" version="1.1" xmlns="http://www.w3.org/2000/svg" xmlns:xlink="http://www.w3.org/1999/xlink">
    <title>icon/button/filter/zodiac</title>
    <g id="icon/button/filter/zodiac" stroke="none" stroke-width="1" fill="none" fill-rule="evenodd">
        <path d="M0.6,-4.56301663e-14 L0.509218076,0.00652107669 C0.068925647,0.0708166555 -0.160361948,0.596737342 0.124968515,0.966531156 L4.166,6.204 L4.16660432,9.6 C4.16660432,9.79162756 4.25813682,9.97172829 4.41293455,10.0846831 L6.8797259,11.8846831 L6.96095139,11.9350192 C7.34801849,12.1353088 7.83339568,11.8580867 7.83339568,11.4 L7.833,6.204 L11.8750315,0.966531156 C12.179384,0.572084421 11.8982155,-4.56301663e-14 11.4,-4.56301663e-14 L0.6,-4.56301663e-14 Z M10.179,1.199 L6.75836419,5.63346884 L6.70465653,5.71638775 C6.65811535,5.80315577 6.63339568,5.90052663 6.63339568,6 L6.633,10.219 L5.366,9.294 L5.36660432,6 L5.35847177,5.90154229 C5.34231401,5.80441508 5.30240262,5.71222382 5.24163581,5.63346884 L1.82,1.199 L10.179,1.199 Z" id="Path" fill="#1B2559" fill-rule="nonzero"></path>
    </g>
</svg>