<svg id="Layer_1" data-name="Layer 1" xmlns="http://www.w3.org/2000/svg" viewBox="0 0 193.58 258.82"><defs><style>.cls-1{fill:#4b5fef;}.cls-2{fill:#7687ff;}.cls-3{fill:#ebefff;}.cls-4{fill:#5a67ff;}.cls-5{fill:#1b2559;}.cls-6{fill:#ccd8ff;opacity:0.74;}.cls-7{fill:#dee5fc;opacity:0.8;}</style></defs><title>acceptor-left</title><polyline class="cls-1" points="71.32 97.69 124.25 128.26 161 107.04 71.32 55.25"/><polygon class="cls-2" points="163.01 105.88 71.32 52.94 30.57 76.47 122.26 129.41 163.01 105.88"/><polygon class="cls-3" points="183.4 70.59 183.39 223.53 122.26 258.82 122.26 105.88 183.4 70.59"/><polygon class="cls-4" points="193.58 123.53 152.83 147.06 152.83 252.94 193.58 229.41 193.58 123.53"/><polygon class="cls-1" points="152.83 252.94 132.45 241.18 132.45 135.29 152.83 147.06 152.83 252.94"/><polygon class="cls-1" points="122.26 235.3 30.56 182.36 30.57 76.47 122.26 129.41 122.26 235.3"/><polyline class="cls-2" points="132.45 135.29 152.83 147.06 193.58 123.53 173.21 111.77"/><polyline class="cls-1" points="134.45 134.14 152.83 144.75 189.58 123.53 171.21 112.92"/><polygon class="cls-5" points="171.21 112.92 171.21 134.14 152.83 144.75 134.45 134.14 171.21 112.92"/><polygon class="cls-5" points="71.32 55.25 71.32 97.69 52.94 87.08 34.56 76.47 71.32 55.25"/><polygon class="cls-6" points="122.26 105.88 0 35.29 0 188.23 122.26 258.82 122.26 105.88"/><polygon class="cls-7" points="183.4 70.59 61.13 0 0 35.29 122.26 105.88 183.4 70.59"/></svg>