<svg xmlns="http://www.w3.org/2000/svg" width="148" height="196"><g fill="none"><path fill="#FFF" d="M23.321 124.64l85.498-48.964 31.09 17.806-85.5 48.967z" opacity=".74"/><path fill="#CCD8FF" d="M108.821 109.539l-55.927 32.04-28.04-16.058 83.967-48.098"/><path fill="#D2D8FF" d="M54.41 178.06l85.5-48.966-.002-35.612-85.497 48.965z"/><path fill="#5A67FF" d="M108.821 77.423v32.116l14.02-8.028 14.02-8.03z" opacity=".74"/><path fill="#4B5FEF" d="M93.275 73.926L52.894 97.065l-28.04-16.059 68.421-39.195"/><path fill="#7687FF" d="M23.321 80.125l69.951-40.062 31.09 17.806-69.954 40.065z"/><path fill="#EBEFFF" d="M7.77 53.416l.004 115.741 46.637 26.71-.003-115.742z"/><path fill="#D2D8FF" d="M15.546 129.094l31.092 17.807v35.612l-31.093-17.806z"/><path fill="#5A67FF" d="M0 93.481l31.092 17.807V146.9L0 129.093z"/><path fill="#4B5FEF" d="M31.092 146.9l15.547-8.903-.002-35.612-15.545 8.903zm23.318-13.355l69.954-40.064-.002-35.612L54.41 97.933z"/><path fill="#7687FF" d="M46.637 102.385l-15.545 8.903L.001 93.48l15.544-8.902"/><path fill="#4B5FEF" d="M45.111 101.51l-14.019 8.03-28.04-16.058 14.02-8.03"/><path fill="#1B2559" d="M17.072 85.451v16.059l14.02 8.03 14.019-8.03zM93.275 41.81v32.116l14.02-8.027 14.02-8.03z"/><path fill="#FFF" d="M9.905 123.401l3.388 2.233.012-8.533c0-.52.024-1.025.024-1.025l-.044-.03c-.18.205-.417.35-.682.419l-1.254.345-1.665-2.831 3.913-1.13 2.478 1.632-.01 12.98 3.388 2.232v2.407l-9.554-6.296.006-2.403z"/><path fill="#EBEFFF" d="M25.055 161.858c.023-5.73 7.312-2.347 7.316-5.607a4.505 4.505 0 0 0-2.362-3.631c-1.818-1.031-2.81.308-2.81.308l-2.097-2.643s1.435-2.388 5.153-.323c2.735 1.518 5.053 4.586 5.053 7.725 0 5.34-6.986 2.053-7.06 5.056l7.3 4.487v2.603l-10.367-6.482a13.34 13.34 0 0 1-.126-1.493z"/><path fill="#CCD8FF" d="M54.408 80.125l93.272-53.418.002 115.74-93.271 53.42z" opacity=".74"/><path fill="#DEE5FC" d="M7.77 53.416L101.047 0l46.634 26.707-93.272 53.418z" opacity=".8"/></g></svg>