<svg xmlns="http://www.w3.org/2000/svg" width="148" height="196"><g fill="none"><path fill="#4B5FEF" d="M93.274 118.442l-40.382 23.137-28.04-16.058 68.422-39.195"/><path fill="#7687FF" d="M23.32 124.64l69.95-40.062 31.09 17.807-69.953 40.065z"/><path fill="#4B5FEF" d="M54.41 178.06l69.953-40.063-.003-35.612-69.95 40.063z"/><path fill="#1B2559" d="M93.274 86.326v32.116l14.02-8.028 14.019-8.03z"/><path fill="#FFF" d="M23.32 73.157l85.497-48.964 31.09 17.806-85.5 48.967z" opacity=".74"/><path fill="#CCD8FF" d="M108.82 58.056l-55.928 32.04-28.04-16.058L108.82 25.94"/><path fill="#D2D8FF" d="M54.41 126.577l85.499-48.966L139.907 42 54.409 90.964z"/><path fill="#5A67FF" d="M108.82 25.94v32.116l14.02-8.028 14.019-8.03z" opacity=".74"/><path fill="#EBEFFF" d="M7.77 53.416l.003 115.741 46.637 26.71-.002-115.742z"/><path fill="#D2D8FF" d="M15.545 75.676l31.092 17.806v35.612l-31.092-17.807z"/><path fill="#CCD8FF" d="M54.408 80.125l93.27-53.418.003 115.74-93.271 53.42z" opacity=".74"/><path fill="#DEE5FC" d="M7.77 53.416L101.045 0l46.634 26.707-93.271 53.418z" opacity=".8"/><path fill="#5A67FF" d="M0 137.998l31.092 17.806v35.612L0 173.61z"/><path fill="#4B5FEF" d="M31.092 191.416l15.547-8.903-.002-35.612-15.545 8.903z"/><path fill="#7687FF" d="M46.637 146.9l-15.545 8.904L.001 137.998l15.544-8.903"/><path fill="#4B5FEF" d="M45.111 146.026l-14.019 8.03-28.04-16.058 14.02-8.03"/><path fill="#1B2559" d="M17.072 129.968v16.058l14.02 8.03 14.019-8.03z"/><path fill="#FFF" d="M10.3 169.313c.024-5.73 7.312-2.348 7.316-5.608a4.505 4.505 0 0 0-2.362-3.631c-1.817-1.03-2.809.308-2.809.308l-2.098-2.643s1.435-2.388 5.154-.323c2.734 1.518 5.053 4.586 5.052 7.725 0 5.341-6.985 2.053-7.06 5.057l7.301 4.486v2.603l-10.368-6.482a13.34 13.34 0 0 1-.126-1.492z"/><path fill="#EBEFFF" d="M25.073 105.537l3.388 2.233.012-8.533c.001-.52.024-1.025.024-1.025l-.044-.03c-.18.205-.417.35-.682.419l-1.254.345-1.665-2.831 3.913-1.13 2.478 1.631-.01 12.98 3.388 2.233v2.407l-9.554-6.297.006-2.402z"/></g></svg>