<svg id="Layer_1" data-name="Layer 1" xmlns="http://www.w3.org/2000/svg" xmlns:xlink="http://www.w3.org/1999/xlink" viewBox="0 0 116.5 144"><defs><style>.cls-1,.cls-9{fill:#dee5fc;}.cls-2,.cls-9{opacity:0.8;}.cls-3{isolation:isolate;}.cls-4{clip-path:url(#clip-path);}.cls-5{clip-path:url(#clip-path-2);}.cls-6{fill:#ccd8ff;opacity:0.74;}.cls-7{clip-path:url(#clip-path-3);}.cls-8{fill:#ebefff;}.cls-10{clip-path:url(#clip-path-4);}.cls-11{clip-path:url(#clip-path-5);}.cls-12{clip-path:url(#clip-path-6);}.cls-13{clip-path:url(#clip-path-7);}.cls-14{clip-path:url(#clip-path-8);}.cls-15{clip-path:url(#clip-path-9);}.cls-16{clip-path:url(#clip-path-10);}.cls-17{clip-path:url(#clip-path-11);}.cls-18{clip-path:url(#clip-path-12);}.cls-19{clip-path:url(#clip-path-13);}.cls-20{clip-path:url(#clip-path-14);}.cls-21{clip-path:url(#clip-path-15);}.cls-22{clip-path:url(#clip-path-16);}.cls-23{clip-path:url(#clip-path-17);}.cls-24{clip-path:url(#clip-path-18);}.cls-25{clip-path:url(#clip-path-19);}.cls-26{clip-path:url(#clip-path-20);}.cls-27{clip-path:url(#clip-path-21);}.cls-28{clip-path:url(#clip-path-22);}.cls-29{clip-path:url(#clip-path-23);}.cls-30{clip-path:url(#clip-path-24);}.cls-31{clip-path:url(#clip-path-25);}.cls-32{clip-path:url(#clip-path-26);}.cls-33{clip-path:url(#clip-path-27);}.cls-34{clip-path:url(#clip-path-28);}.cls-35{clip-path:url(#clip-path-29);}.cls-36{clip-path:url(#clip-path-30);}.cls-37{clip-path:url(#clip-path-31);}.cls-38{clip-path:url(#clip-path-32);}.cls-39{clip-path:url(#clip-path-33);}.cls-40{clip-path:url(#clip-path-34);}.cls-41{clip-path:url(#clip-path-35);}.cls-42{clip-path:url(#clip-path-36);}.cls-43{clip-path:url(#clip-path-37);}.cls-44{clip-path:url(#clip-path-38);}.cls-45{clip-path:url(#clip-path-39);}.cls-46{clip-path:url(#clip-path-40);}.cls-47{clip-path:url(#clip-path-41);}.cls-48{clip-path:url(#clip-path-42);}.cls-49{clip-path:url(#clip-path-43);}.cls-50{clip-path:url(#clip-path-44);}.cls-51{clip-path:url(#clip-path-45);}.cls-52{clip-path:url(#clip-path-46);}.cls-53{clip-path:url(#clip-path-47);}.cls-54{clip-path:url(#clip-path-48);}.cls-55{clip-path:url(#clip-path-49);}.cls-56{clip-path:url(#clip-path-50);}.cls-57{clip-path:url(#clip-path-51);}.cls-58{clip-path:url(#clip-path-52);}.cls-59{clip-path:url(#clip-path-53);}.cls-60{clip-path:url(#clip-path-54);}.cls-61{clip-path:url(#clip-path-55);}.cls-62{clip-path:url(#clip-path-56);}.cls-63{clip-path:url(#clip-path-57);}.cls-64{clip-path:url(#clip-path-58);}.cls-65{clip-path:url(#clip-path-59);}.cls-66{clip-path:url(#clip-path-60);}.cls-67{clip-path:url(#clip-path-61);}.cls-68{clip-path:url(#clip-path-62);}.cls-69{clip-path:url(#clip-path-63);}.cls-70{clip-path:url(#clip-path-64);}.cls-71{clip-path:url(#clip-path-65);}.cls-72{clip-path:url(#clip-path-66);}.cls-73{clip-path:url(#clip-path-69);}.cls-74{clip-path:url(#clip-path-70);}.cls-75{clip-path:url(#clip-path-71);}.cls-76{clip-path:url(#clip-path-72);}.cls-77{clip-path:url(#clip-path-73);}.cls-78{clip-path:url(#clip-path-74);}.cls-79{clip-path:url(#clip-path-75);}.cls-80{clip-path:url(#clip-path-76);}.cls-81{clip-path:url(#clip-path-77);}.cls-82{clip-path:url(#clip-path-78);}.cls-83{clip-path:url(#clip-path-79);}.cls-84{clip-path:url(#clip-path-80);}.cls-85{clip-path:url(#clip-path-81);}.cls-86{clip-path:url(#clip-path-82);}.cls-87{fill:#4b5fef;}.cls-88{clip-path:url(#clip-path-83);}.cls-89{fill:#5a67ff;}.cls-90{fill:#7687ff;}</style><clipPath id="clip-path"><polygon class="cls-1" points="58.25 54.32 77.66 65.53 77.66 87.95 58.25 76.74 58.25 54.32"/></clipPath><clipPath id="clip-path-2"><polygon class="cls-1" points="77.66 65.53 77.66 87.95 58.25 99.16 58.25 76.74 77.66 65.53"/></clipPath><clipPath id="clip-path-3"><polygon class="cls-1" points="58.25 76.74 58.25 99.16 38.83 87.95 38.83 65.53 58.25 76.74"/></clipPath><clipPath id="clip-path-4"><polygon class="cls-1" points="77.66 65.53 97.08 76.74 97.08 99.16 77.66 87.95 77.66 65.53"/></clipPath><clipPath id="clip-path-5"><polygon class="cls-1" points="97.08 76.74 97.08 99.16 77.66 110.37 77.66 87.95 97.08 76.74"/></clipPath><clipPath id="clip-path-6"><polygon class="cls-1" points="77.66 87.95 77.66 110.37 58.25 99.16 58.25 76.74 77.66 87.95"/></clipPath><clipPath id="clip-path-7"><polygon class="cls-1" points="58.25 76.74 77.66 87.95 77.66 110.37 58.25 99.16 58.25 76.74"/></clipPath><clipPath id="clip-path-8"><polygon class="cls-1" points="77.66 87.95 77.66 110.37 58.25 121.58 58.25 99.16 77.66 87.95"/></clipPath><clipPath id="clip-path-9"><polygon class="cls-1" points="58.25 99.16 58.25 121.58 38.83 110.37 38.83 87.95 58.25 99.16"/></clipPath><clipPath id="clip-path-10"><polygon class="cls-1" points="38.83 65.53 58.25 76.74 58.25 99.16 38.83 87.95 38.83 65.53"/></clipPath><clipPath id="clip-path-11"><polygon class="cls-1" points="58.25 76.74 58.25 99.16 38.83 110.37 38.83 87.95 58.25 76.74"/></clipPath><clipPath id="clip-path-12"><polygon class="cls-1" points="38.83 87.95 38.83 110.37 19.42 99.16 19.42 76.74 38.83 87.95"/></clipPath><clipPath id="clip-path-13"><polygon class="cls-1" points="19.42 76.74 38.83 87.95 38.83 110.37 19.42 99.16 19.42 76.74"/></clipPath><clipPath id="clip-path-14"><polygon class="cls-1" points="38.83 87.95 38.83 110.37 19.42 121.58 19.42 99.16 38.83 87.95"/></clipPath><clipPath id="clip-path-15"><polygon class="cls-1" points="19.42 99.16 19.42 121.58 0 110.37 0 87.95 19.42 99.16"/></clipPath><clipPath id="clip-path-16"><polygon class="cls-1" points="38.83 87.95 58.25 99.16 58.25 121.58 38.83 110.37 38.83 87.95"/></clipPath><clipPath id="clip-path-17"><polygon class="cls-1" points="58.25 99.16 58.25 121.58 38.83 132.79 38.83 110.37 58.25 99.16"/></clipPath><clipPath id="clip-path-18"><polygon class="cls-1" points="38.83 110.37 38.83 132.79 19.42 121.58 19.42 99.16 38.83 110.37"/></clipPath><clipPath id="clip-path-19"><polygon class="cls-1" points="97.08 76.74 116.5 87.95 116.5 110.37 97.08 99.16 97.08 76.74"/></clipPath><clipPath id="clip-path-20"><polygon class="cls-1" points="116.5 87.95 116.5 110.37 97.08 121.58 97.08 99.16 116.5 87.95"/></clipPath><clipPath id="clip-path-21"><polygon class="cls-1" points="97.08 99.16 97.08 121.58 77.66 110.37 77.66 87.95 97.08 99.16"/></clipPath><clipPath id="clip-path-22"><polygon class="cls-1" points="77.66 87.95 97.08 99.16 97.08 121.58 77.66 110.37 77.66 87.95"/></clipPath><clipPath id="clip-path-23"><polygon class="cls-1" points="97.08 99.16 97.08 121.58 77.66 132.79 77.66 110.37 97.08 99.16"/></clipPath><clipPath id="clip-path-24"><polygon class="cls-1" points="77.66 110.37 77.66 132.79 58.25 121.58 58.25 99.16 77.66 110.37"/></clipPath><clipPath id="clip-path-25"><polygon class="cls-1" points="58.25 99.16 77.66 110.37 77.66 132.79 58.25 121.58 58.25 99.16"/></clipPath><clipPath id="clip-path-26"><polygon class="cls-1" points="77.66 110.37 77.66 132.79 58.25 144 58.25 121.58 77.66 110.37"/></clipPath><clipPath id="clip-path-27"><polygon class="cls-1" points="58.25 121.58 58.25 144 38.83 132.79 38.83 110.37 58.25 121.58"/></clipPath><clipPath id="clip-path-28"><polygon class="cls-1" points="58.25 31.9 77.66 43.11 77.66 65.53 58.25 54.32 58.25 31.9"/></clipPath><clipPath id="clip-path-29"><polygon class="cls-1" points="77.66 43.11 77.66 65.53 58.25 76.74 58.25 54.32 77.66 43.11"/></clipPath><clipPath id="clip-path-30"><polygon class="cls-1" points="58.25 54.32 58.25 76.74 38.83 65.53 38.83 43.11 58.25 54.32"/></clipPath><clipPath id="clip-path-31"><polygon class="cls-1" points="77.66 43.11 97.08 54.32 97.08 76.74 77.66 65.53 77.66 43.11"/></clipPath><clipPath id="clip-path-32"><polygon class="cls-1" points="97.08 54.32 97.08 76.74 77.66 87.95 77.66 65.53 97.08 54.32"/></clipPath><clipPath id="clip-path-33"><polygon class="cls-1" points="77.66 65.53 77.66 87.95 58.25 76.74 58.25 54.32 77.66 65.53"/></clipPath><clipPath id="clip-path-34"><polygon class="cls-1" points="97.08 54.32 116.5 65.53 116.5 87.95 97.08 76.74 97.08 54.32"/></clipPath><clipPath id="clip-path-35"><polygon class="cls-1" points="116.5 65.53 116.5 87.95 97.08 99.16 97.08 76.74 116.5 65.53"/></clipPath><clipPath id="clip-path-36"><polygon class="cls-1" points="97.08 76.74 97.08 99.16 77.66 87.95 77.66 65.53 97.08 76.74"/></clipPath><clipPath id="clip-path-37"><polygon class="cls-1" points="58.25 54.32 77.66 65.53 77.66 87.95 58.25 76.74 58.25 54.32"/></clipPath><clipPath id="clip-path-38"><polygon class="cls-1" points="77.66 65.53 77.66 87.95 58.25 99.16 58.25 76.74 77.66 65.53"/></clipPath><clipPath id="clip-path-39"><polygon class="cls-1" points="58.25 76.74 58.25 99.16 38.83 87.95 38.83 65.53 58.25 76.74"/></clipPath><clipPath id="clip-path-40"><polygon class="cls-1" points="38.83 43.11 58.25 54.32 58.25 76.74 38.83 65.53 38.83 43.11"/></clipPath><clipPath id="clip-path-41"><polygon class="cls-1" points="58.25 54.32 58.25 76.74 38.83 87.95 38.83 65.53 58.25 54.32"/></clipPath><clipPath id="clip-path-42"><polygon class="cls-1" points="38.83 65.53 38.83 87.95 19.42 76.74 19.42 54.32 38.83 65.53"/></clipPath><clipPath id="clip-path-43"><polygon class="cls-1" points="77.66 65.53 97.08 76.74 97.08 99.16 77.66 87.95 77.66 65.53"/></clipPath><clipPath id="clip-path-44"><polygon class="cls-1" points="97.08 76.74 97.08 99.16 77.66 110.37 77.66 87.95 97.08 76.74"/></clipPath><clipPath id="clip-path-45"><polygon class="cls-1" points="77.66 87.95 77.66 110.37 58.25 99.16 58.25 76.74 77.66 87.95"/></clipPath><clipPath id="clip-path-46"><polygon class="cls-1" points="19.42 54.32 38.83 65.53 38.83 87.95 19.42 76.74 19.42 54.32"/></clipPath><clipPath id="clip-path-47"><polygon class="cls-1" points="38.83 65.53 38.83 87.95 19.42 99.16 19.42 76.74 38.83 65.53"/></clipPath><clipPath id="clip-path-48"><polygon class="cls-1" points="19.42 76.74 19.42 99.16 0 87.95 0 65.53 19.42 76.74"/></clipPath><clipPath id="clip-path-49"><polygon class="cls-1" points="38.83 65.53 58.25 76.74 58.25 99.16 38.83 87.95 38.83 65.53"/></clipPath><clipPath id="clip-path-50"><polygon class="cls-1" points="58.25 76.74 58.25 99.16 38.83 110.37 38.83 87.95 58.25 76.74"/></clipPath><clipPath id="clip-path-51"><polygon class="cls-1" points="38.83 87.95 38.83 110.37 19.42 99.16 19.42 76.74 38.83 87.95"/></clipPath><clipPath id="clip-path-52"><polygon class="cls-1" points="58.25 76.74 77.66 87.95 77.66 110.37 58.25 99.16 58.25 76.74"/></clipPath><clipPath id="clip-path-53"><polygon class="cls-1" points="77.66 87.95 77.66 110.37 58.25 121.58 58.25 99.16 77.66 87.95"/></clipPath><clipPath id="clip-path-54"><polygon class="cls-1" points="58.25 99.16 58.25 121.58 38.83 110.37 38.83 87.95 58.25 99.16"/></clipPath><clipPath id="clip-path-55"><polygon class="cls-1" points="58.25 9.48 77.66 20.69 77.66 43.11 58.25 31.9 58.25 9.48"/></clipPath><clipPath id="clip-path-56"><polygon class="cls-1" points="77.66 20.69 77.66 43.11 58.25 54.32 58.25 31.9 77.66 20.69"/></clipPath><clipPath id="clip-path-57"><polygon class="cls-1" points="58.25 31.9 58.25 54.32 38.83 43.11 38.83 20.69 58.25 31.9"/></clipPath><clipPath id="clip-path-58"><polygon class="cls-1" points="58.25 31.9 77.66 43.11 77.66 65.53 58.25 54.32 58.25 31.9"/></clipPath><clipPath id="clip-path-59"><polygon class="cls-1" points="77.66 43.11 77.66 65.53 58.25 76.74 58.25 54.32 77.66 43.11"/></clipPath><clipPath id="clip-path-60"><polygon class="cls-1" points="58.25 54.32 58.25 76.74 38.83 65.53 38.83 43.11 58.25 54.32"/></clipPath><clipPath id="clip-path-61"><polygon class="cls-1" points="77.66 20.69 97.08 31.9 97.08 54.32 77.66 43.11 77.66 20.69"/></clipPath><clipPath id="clip-path-62"><polygon class="cls-1" points="97.08 31.9 97.08 54.32 77.66 65.53 77.66 43.11 97.08 31.9"/></clipPath><clipPath id="clip-path-63"><polygon class="cls-1" points="77.66 43.11 77.66 65.53 58.25 54.32 58.25 31.9 77.66 43.11"/></clipPath><clipPath id="clip-path-64"><polygon class="cls-1" points="38.83 20.69 58.25 31.9 58.25 54.32 38.83 43.11 38.83 20.69"/></clipPath><clipPath id="clip-path-65"><polygon class="cls-1" points="58.25 31.9 58.25 54.32 38.83 65.53 38.83 43.11 58.25 31.9"/></clipPath><clipPath id="clip-path-66"><polygon class="cls-1" points="38.83 43.11 38.83 65.53 19.42 54.32 19.42 31.9 38.83 43.11"/></clipPath><clipPath id="clip-path-69"><polygon class="cls-1" points="19.42 31.9 38.83 43.11 38.83 65.53 19.42 54.32 19.42 31.9"/></clipPath><clipPath id="clip-path-70"><polygon class="cls-1" points="38.83 43.11 38.83 65.53 19.42 76.74 19.42 54.32 38.83 43.11"/></clipPath><clipPath id="clip-path-71"><polygon class="cls-1" points="19.42 54.32 19.42 76.74 0 65.53 0 43.11 19.42 54.32"/></clipPath><clipPath id="clip-path-72"><polygon class="cls-1" points="38.83 43.11 58.25 54.32 58.25 76.74 38.83 65.53 38.83 43.11"/></clipPath><clipPath id="clip-path-73"><polygon class="cls-1" points="58.25 54.32 58.25 76.74 38.83 87.95 38.83 65.53 58.25 54.32"/></clipPath><clipPath id="clip-path-74"><polygon class="cls-1" points="38.83 65.53 38.83 87.95 19.42 76.74 19.42 54.32 38.83 65.53"/></clipPath><clipPath id="clip-path-75"><polygon class="cls-1" points="97.08 31.9 116.5 43.11 116.5 65.53 97.08 54.32 97.08 31.9"/></clipPath><clipPath id="clip-path-76"><polygon class="cls-1" points="116.5 43.11 116.5 65.53 97.08 76.74 97.08 54.32 116.5 43.11"/></clipPath><clipPath id="clip-path-77"><polygon class="cls-1" points="97.08 54.32 97.08 76.74 77.66 65.53 77.66 43.11 97.08 54.32"/></clipPath><clipPath id="clip-path-78"><polygon class="cls-1" points="77.66 43.11 97.08 54.32 97.08 76.74 77.66 65.53 77.66 43.11"/></clipPath><clipPath id="clip-path-79"><polygon class="cls-1" points="97.08 54.32 97.08 76.74 77.66 87.95 77.66 65.53 97.08 54.32"/></clipPath><clipPath id="clip-path-80"><polygon class="cls-1" points="77.66 65.53 77.66 87.95 58.25 76.74 58.25 54.32 77.66 65.53"/></clipPath><clipPath id="clip-path-81"><polygon class="cls-1" points="58.25 0 77.66 11.21 77.66 33.63 58.25 22.42 58.25 0"/></clipPath><clipPath id="clip-path-82"><polygon class="cls-1" points="77.66 11.21 77.66 33.63 58.25 44.84 58.25 22.42 77.66 11.21"/></clipPath><clipPath id="clip-path-83"><polygon class="cls-1" points="58.25 22.42 58.25 44.84 38.83 33.63 38.83 11.21 58.25 22.42"/></clipPath></defs><g class="cls-2"><g class="cls-3"><g class="cls-3"><polygon class="cls-1" points="58.25 54.32 77.66 65.53 77.66 87.95 58.25 76.74 58.25 54.32"/><g class="cls-4"><polygon class="cls-1" points="58.25 54.32 77.66 65.53 77.66 87.95 58.25 76.74 58.25 54.32"/></g></g><g class="cls-3"><polygon class="cls-1" points="77.66 65.53 77.66 87.95 58.25 99.16 58.25 76.74 77.66 65.53"/><g class="cls-5"><polygon class="cls-6" points="77.66 65.53 77.66 87.95 58.25 99.16 58.25 76.74 77.66 65.53"/></g></g><g class="cls-3"><polygon class="cls-1" points="58.25 76.74 58.25 99.16 38.83 87.95 38.83 65.53 58.25 76.74"/><g class="cls-7"><polygon class="cls-8" points="58.25 76.74 58.25 99.16 38.83 87.95 38.83 65.53 58.25 76.74"/></g></g></g></g><polygon class="cls-9" points="38.83 65.53 58.25 54.32 77.66 65.53 58.25 76.74 38.83 65.53"/><g class="cls-2"><g class="cls-3"><g class="cls-3"><polygon class="cls-1" points="77.66 65.53 97.08 76.74 97.08 99.16 77.66 87.95 77.66 65.53"/><g class="cls-10"><polygon class="cls-1" points="77.66 65.53 97.08 76.74 97.08 99.16 77.66 87.95 77.66 65.53"/></g></g><g class="cls-3"><polygon class="cls-1" points="97.08 76.74 97.08 99.16 77.66 110.37 77.66 87.95 97.08 76.74"/><g class="cls-11"><polygon class="cls-6" points="97.08 76.74 97.08 99.16 77.66 110.37 77.66 87.95 97.08 76.74"/></g></g><g class="cls-3"><polygon class="cls-1" points="77.66 87.95 77.66 110.37 58.25 99.16 58.25 76.74 77.66 87.95"/><g class="cls-12"><polygon class="cls-8" points="77.66 87.95 77.66 110.37 58.25 99.16 58.25 76.74 77.66 87.95"/></g></g></g></g><polygon class="cls-9" points="58.25 76.74 77.66 65.53 97.08 76.74 77.66 87.95 58.25 76.74"/><g class="cls-2"><g class="cls-3"><g class="cls-3"><polygon class="cls-1" points="58.25 76.74 77.66 87.95 77.66 110.37 58.25 99.16 58.25 76.74"/><g class="cls-13"><polygon class="cls-1" points="58.25 76.74 77.66 87.95 77.66 110.37 58.25 99.16 58.25 76.74"/></g></g><g class="cls-3"><polygon class="cls-1" points="77.66 87.95 77.66 110.37 58.25 121.58 58.25 99.16 77.66 87.95"/><g class="cls-14"><polygon class="cls-6" points="77.66 87.95 77.66 110.37 58.25 121.58 58.25 99.16 77.66 87.95"/></g></g><g class="cls-3"><polygon class="cls-1" points="58.25 99.16 58.25 121.58 38.83 110.37 38.83 87.95 58.25 99.16"/><g class="cls-15"><polygon class="cls-8" points="58.25 99.16 58.25 121.58 38.83 110.37 38.83 87.95 58.25 99.16"/></g></g></g></g><polygon class="cls-9" points="38.83 87.95 58.25 76.74 77.66 87.95 58.25 99.16 38.83 87.95"/><g class="cls-2"><g class="cls-3"><g class="cls-3"><polygon class="cls-1" points="38.83 65.53 58.25 76.74 58.25 99.16 38.83 87.95 38.83 65.53"/><g class="cls-16"><polygon class="cls-1" points="38.83 65.53 58.25 76.74 58.25 99.16 38.83 87.95 38.83 65.53"/></g></g><g class="cls-3"><polygon class="cls-1" points="58.25 76.74 58.25 99.16 38.83 110.37 38.83 87.95 58.25 76.74"/><g class="cls-17"><polygon class="cls-6" points="58.25 76.74 58.25 99.16 38.83 110.37 38.83 87.95 58.25 76.74"/></g></g><g class="cls-3"><polygon class="cls-1" points="38.83 87.95 38.83 110.37 19.42 99.16 19.42 76.74 38.83 87.95"/><g class="cls-18"><polygon class="cls-8" points="38.83 87.95 38.83 110.37 19.42 99.16 19.42 76.74 38.83 87.95"/></g></g></g></g><polygon class="cls-9" points="19.42 76.74 38.83 65.53 58.25 76.74 38.83 87.95 19.42 76.74"/><g class="cls-2"><g class="cls-3"><g class="cls-3"><polygon class="cls-1" points="19.42 76.74 38.83 87.95 38.83 110.37 19.42 99.16 19.42 76.74"/><g class="cls-19"><polygon class="cls-1" points="19.42 76.74 38.83 87.95 38.83 110.37 19.42 99.16 19.42 76.74"/></g></g><g class="cls-3"><polygon class="cls-1" points="38.83 87.95 38.83 110.37 19.42 121.58 19.42 99.16 38.83 87.95"/><g class="cls-20"><polygon class="cls-6" points="38.83 87.95 38.83 110.37 19.42 121.58 19.42 99.16 38.83 87.95"/></g></g><g class="cls-3"><polygon class="cls-1" points="19.42 99.16 19.42 121.58 0 110.37 0 87.95 19.42 99.16"/><g class="cls-21"><polygon class="cls-8" points="19.42 99.16 19.42 121.58 0 110.37 0 87.95 19.42 99.16"/></g></g></g></g><polygon class="cls-9" points="0 87.95 19.42 76.74 38.83 87.95 19.42 99.16 0 87.95"/><g class="cls-2"><g class="cls-3"><g class="cls-3"><polygon class="cls-1" points="38.83 87.95 58.25 99.16 58.25 121.58 38.83 110.37 38.83 87.95"/><g class="cls-22"><polygon class="cls-1" points="38.83 87.95 58.25 99.16 58.25 121.58 38.83 110.37 38.83 87.95"/></g></g><g class="cls-3"><polygon class="cls-1" points="58.25 99.16 58.25 121.58 38.83 132.79 38.83 110.37 58.25 99.16"/><g class="cls-23"><polygon class="cls-6" points="58.25 99.16 58.25 121.58 38.83 132.79 38.83 110.37 58.25 99.16"/></g></g><g class="cls-3"><polygon class="cls-1" points="38.83 110.37 38.83 132.79 19.42 121.58 19.42 99.16 38.83 110.37"/><g class="cls-24"><polygon class="cls-8" points="38.83 110.37 38.83 132.79 19.42 121.58 19.42 99.16 38.83 110.37"/></g></g></g></g><polygon class="cls-9" points="19.42 99.16 38.83 87.95 58.25 99.16 38.83 110.37 19.42 99.16"/><g class="cls-2"><g class="cls-3"><g class="cls-3"><polygon class="cls-1" points="97.08 76.74 116.5 87.95 116.5 110.37 97.08 99.16 97.08 76.74"/><g class="cls-25"><polygon class="cls-1" points="97.08 76.74 116.5 87.95 116.5 110.37 97.08 99.16 97.08 76.74"/></g></g><g class="cls-3"><polygon class="cls-1" points="116.5 87.95 116.5 110.37 97.08 121.58 97.08 99.16 116.5 87.95"/><g class="cls-26"><polygon class="cls-6" points="116.5 87.95 116.5 110.37 97.08 121.58 97.08 99.16 116.5 87.95"/></g></g><g class="cls-3"><polygon class="cls-1" points="97.08 99.16 97.08 121.58 77.66 110.37 77.66 87.95 97.08 99.16"/><g class="cls-27"><polygon class="cls-8" points="97.08 99.16 97.08 121.58 77.66 110.37 77.66 87.95 97.08 99.16"/></g></g></g></g><polygon class="cls-9" points="77.66 87.95 97.08 76.74 116.5 87.95 97.08 99.16 77.66 87.95"/><g class="cls-2"><g class="cls-3"><g class="cls-3"><polygon class="cls-1" points="77.66 87.95 97.08 99.16 97.08 121.58 77.66 110.37 77.66 87.95"/><g class="cls-28"><polygon class="cls-1" points="77.66 87.95 97.08 99.16 97.08 121.58 77.66 110.37 77.66 87.95"/></g></g><g class="cls-3"><polygon class="cls-1" points="97.08 99.16 97.08 121.58 77.66 132.79 77.66 110.37 97.08 99.16"/><g class="cls-29"><polygon class="cls-6" points="97.08 99.16 97.08 121.58 77.66 132.79 77.66 110.37 97.08 99.16"/></g></g><g class="cls-3"><polygon class="cls-1" points="77.66 110.37 77.66 132.79 58.25 121.58 58.25 99.16 77.66 110.37"/><g class="cls-30"><polygon class="cls-8" points="77.66 110.37 77.66 132.79 58.25 121.58 58.25 99.16 77.66 110.37"/></g></g></g></g><polygon class="cls-9" points="58.25 99.16 77.66 87.95 97.08 99.16 77.66 110.37 58.25 99.16"/><g class="cls-2"><g class="cls-3"><g class="cls-3"><polygon class="cls-1" points="58.25 99.16 77.66 110.37 77.66 132.79 58.25 121.58 58.25 99.16"/><g class="cls-31"><polygon class="cls-1" points="58.25 99.16 77.66 110.37 77.66 132.79 58.25 121.58 58.25 99.16"/></g></g><g class="cls-3"><polygon class="cls-1" points="77.66 110.37 77.66 132.79 58.25 144 58.25 121.58 77.66 110.37"/><g class="cls-32"><polygon class="cls-6" points="77.66 110.37 77.66 132.79 58.25 144 58.25 121.58 77.66 110.37"/></g></g><g class="cls-3"><polygon class="cls-1" points="58.25 121.58 58.25 144 38.83 132.79 38.83 110.37 58.25 121.58"/><g class="cls-33"><polygon class="cls-8" points="58.25 121.58 58.25 144 38.83 132.79 38.83 110.37 58.25 121.58"/></g></g></g></g><polygon class="cls-9" points="38.83 110.37 58.25 99.16 77.66 110.37 58.25 121.58 38.83 110.37"/><g class="cls-2"><g class="cls-3"><g class="cls-3"><polygon class="cls-1" points="58.25 31.9 77.66 43.11 77.66 65.53 58.25 54.32 58.25 31.9"/><g class="cls-34"><polygon class="cls-1" points="58.25 31.9 77.66 43.11 77.66 65.53 58.25 54.32 58.25 31.9"/></g></g><g class="cls-3"><polygon class="cls-1" points="77.66 43.11 77.66 65.53 58.25 76.74 58.25 54.32 77.66 43.11"/><g class="cls-35"><polygon class="cls-6" points="77.66 43.11 77.66 65.53 58.25 76.74 58.25 54.32 77.66 43.11"/></g></g><g class="cls-3"><polygon class="cls-1" points="58.25 54.32 58.25 76.74 38.83 65.53 38.83 43.11 58.25 54.32"/><g class="cls-36"><polygon class="cls-8" points="58.25 54.32 58.25 76.74 38.83 65.53 38.83 43.11 58.25 54.32"/></g></g></g></g><polygon class="cls-9" points="38.83 43.11 58.25 31.9 77.66 43.11 58.25 54.32 38.83 43.11"/><g class="cls-2"><g class="cls-3"><g class="cls-3"><polygon class="cls-1" points="77.66 43.11 97.08 54.32 97.08 76.74 77.66 65.53 77.66 43.11"/><g class="cls-37"><polygon class="cls-1" points="77.66 43.11 97.08 54.32 97.08 76.74 77.66 65.53 77.66 43.11"/></g></g><g class="cls-3"><polygon class="cls-1" points="97.08 54.32 97.08 76.74 77.66 87.95 77.66 65.53 97.08 54.32"/><g class="cls-38"><polygon class="cls-6" points="97.08 54.32 97.08 76.74 77.66 87.95 77.66 65.53 97.08 54.32"/></g></g><g class="cls-3"><polygon class="cls-1" points="77.66 65.53 77.66 87.95 58.25 76.74 58.25 54.32 77.66 65.53"/><g class="cls-39"><polygon class="cls-8" points="77.66 65.53 77.66 87.95 58.25 76.74 58.25 54.32 77.66 65.53"/></g></g></g></g><polygon class="cls-9" points="58.25 54.32 77.66 43.11 97.08 54.32 77.66 65.53 58.25 54.32"/><g class="cls-2"><g class="cls-3"><g class="cls-3"><polygon class="cls-1" points="97.08 54.32 116.5 65.53 116.5 87.95 97.08 76.74 97.08 54.32"/><g class="cls-40"><polygon class="cls-1" points="97.08 54.32 116.5 65.53 116.5 87.95 97.08 76.74 97.08 54.32"/></g></g><g class="cls-3"><polygon class="cls-1" points="116.5 65.53 116.5 87.95 97.08 99.16 97.08 76.74 116.5 65.53"/><g class="cls-41"><polygon class="cls-6" points="116.5 65.53 116.5 87.95 97.08 99.16 97.08 76.74 116.5 65.53"/></g></g><g class="cls-3"><polygon class="cls-1" points="97.08 76.74 97.08 99.16 77.66 87.95 77.66 65.53 97.08 76.74"/><g class="cls-42"><polygon class="cls-8" points="97.08 76.74 97.08 99.16 77.66 87.95 77.66 65.53 97.08 76.74"/></g></g></g></g><polygon class="cls-9" points="77.66 65.53 97.08 54.32 116.5 65.53 97.08 76.74 77.66 65.53"/><g class="cls-2"><g class="cls-3"><g class="cls-3"><polygon class="cls-1" points="58.25 54.32 77.66 65.53 77.66 87.95 58.25 76.74 58.25 54.32"/><g class="cls-43"><polygon class="cls-1" points="58.25 54.32 77.66 65.53 77.66 87.95 58.25 76.74 58.25 54.32"/></g></g><g class="cls-3"><polygon class="cls-1" points="77.66 65.53 77.66 87.95 58.25 99.16 58.25 76.74 77.66 65.53"/><g class="cls-44"><polygon class="cls-6" points="77.66 65.53 77.66 87.95 58.25 99.16 58.25 76.74 77.66 65.53"/></g></g><g class="cls-3"><polygon class="cls-1" points="58.25 76.74 58.25 99.16 38.83 87.95 38.83 65.53 58.25 76.74"/><g class="cls-45"><polygon class="cls-8" points="58.25 76.74 58.25 99.16 38.83 87.95 38.83 65.53 58.25 76.74"/></g></g></g></g><polygon class="cls-9" points="38.83 65.53 58.25 54.32 77.66 65.53 58.25 76.74 38.83 65.53"/><g class="cls-2"><g class="cls-3"><g class="cls-3"><polygon class="cls-1" points="38.83 43.11 58.25 54.32 58.25 76.74 38.83 65.53 38.83 43.11"/><g class="cls-46"><polygon class="cls-1" points="38.83 43.11 58.25 54.32 58.25 76.74 38.83 65.53 38.83 43.11"/></g></g><g class="cls-3"><polygon class="cls-1" points="58.25 54.32 58.25 76.74 38.83 87.95 38.83 65.53 58.25 54.32"/><g class="cls-47"><polygon class="cls-6" points="58.25 54.32 58.25 76.74 38.83 87.95 38.83 65.53 58.25 54.32"/></g></g><g class="cls-3"><polygon class="cls-1" points="38.83 65.53 38.83 87.95 19.42 76.74 19.42 54.32 38.83 65.53"/><g class="cls-48"><polygon class="cls-8" points="38.83 65.53 38.83 87.95 19.42 76.74 19.42 54.32 38.83 65.53"/></g></g></g></g><polygon class="cls-9" points="19.42 54.32 38.83 43.11 58.25 54.32 38.83 65.53 19.42 54.32"/><g class="cls-2"><g class="cls-3"><g class="cls-3"><polygon class="cls-1" points="77.66 65.53 97.08 76.74 97.08 99.16 77.66 87.95 77.66 65.53"/><g class="cls-49"><polygon class="cls-1" points="77.66 65.53 97.08 76.74 97.08 99.16 77.66 87.95 77.66 65.53"/></g></g><g class="cls-3"><polygon class="cls-1" points="97.08 76.74 97.08 99.16 77.66 110.37 77.66 87.95 97.08 76.74"/><g class="cls-50"><polygon class="cls-6" points="97.08 76.74 97.08 99.16 77.66 110.37 77.66 87.95 97.08 76.74"/></g></g><g class="cls-3"><polygon class="cls-1" points="77.66 87.95 77.66 110.37 58.25 99.16 58.25 76.74 77.66 87.95"/><g class="cls-51"><polygon class="cls-8" points="77.66 87.95 77.66 110.37 58.25 99.16 58.25 76.74 77.66 87.95"/></g></g></g></g><polygon class="cls-9" points="58.25 76.74 77.66 65.53 97.08 76.74 77.66 87.95 58.25 76.74"/><g class="cls-2"><g class="cls-3"><g class="cls-3"><polygon class="cls-1" points="19.42 54.32 38.83 65.53 38.83 87.95 19.42 76.74 19.42 54.32"/><g class="cls-52"><polygon class="cls-1" points="19.42 54.32 38.83 65.53 38.83 87.95 19.42 76.74 19.42 54.32"/></g></g><g class="cls-3"><polygon class="cls-1" points="38.83 65.53 38.83 87.95 19.42 99.16 19.42 76.74 38.83 65.53"/><g class="cls-53"><polygon class="cls-6" points="38.83 65.53 38.83 87.95 19.42 99.16 19.42 76.74 38.83 65.53"/></g></g><g class="cls-3"><polygon class="cls-1" points="19.42 76.74 19.42 99.16 0 87.95 0 65.53 19.42 76.74"/><g class="cls-54"><polygon class="cls-8" points="19.42 76.74 19.42 99.16 0 87.95 0 65.53 19.42 76.74"/></g></g></g></g><polygon class="cls-9" points="0 65.53 19.42 54.32 38.83 65.53 19.42 76.74 0 65.53"/><g class="cls-2"><g class="cls-3"><g class="cls-3"><polygon class="cls-1" points="38.83 65.53 58.25 76.74 58.25 99.16 38.83 87.95 38.83 65.53"/><g class="cls-55"><polygon class="cls-1" points="38.83 65.53 58.25 76.74 58.25 99.16 38.83 87.95 38.83 65.53"/></g></g><g class="cls-3"><polygon class="cls-1" points="58.25 76.74 58.25 99.16 38.83 110.37 38.83 87.95 58.25 76.74"/><g class="cls-56"><polygon class="cls-6" points="58.25 76.74 58.25 99.16 38.83 110.37 38.83 87.95 58.25 76.74"/></g></g><g class="cls-3"><polygon class="cls-1" points="38.83 87.95 38.83 110.37 19.42 99.16 19.42 76.74 38.83 87.95"/><g class="cls-57"><polygon class="cls-8" points="38.83 87.95 38.83 110.37 19.42 99.16 19.42 76.74 38.83 87.95"/></g></g></g></g><polygon class="cls-9" points="19.42 76.74 38.83 65.53 58.25 76.74 38.83 87.95 19.42 76.74"/><g class="cls-2"><g class="cls-3"><g class="cls-3"><polygon class="cls-1" points="58.25 76.74 77.66 87.95 77.66 110.37 58.25 99.16 58.25 76.74"/><g class="cls-58"><polygon class="cls-1" points="58.25 76.74 77.66 87.95 77.66 110.37 58.25 99.16 58.25 76.74"/></g></g><g class="cls-3"><polygon class="cls-1" points="77.66 87.95 77.66 110.37 58.25 121.58 58.25 99.16 77.66 87.95"/><g class="cls-59"><polygon class="cls-6" points="77.66 87.95 77.66 110.37 58.25 121.58 58.25 99.16 77.66 87.95"/></g></g><g class="cls-3"><polygon class="cls-1" points="58.25 99.16 58.25 121.58 38.83 110.37 38.83 87.95 58.25 99.16"/><g class="cls-60"><polygon class="cls-8" points="58.25 99.16 58.25 121.58 38.83 110.37 38.83 87.95 58.25 99.16"/></g></g></g></g><polygon class="cls-9" points="38.83 87.95 58.25 76.74 77.66 87.95 58.25 99.16 38.83 87.95"/><g class="cls-2"><g class="cls-3"><g class="cls-3"><polygon class="cls-1" points="58.25 9.48 77.66 20.69 77.66 43.11 58.25 31.9 58.25 9.48"/><g class="cls-61"><polygon class="cls-1" points="58.25 9.48 77.66 20.69 77.66 43.11 58.25 31.9 58.25 9.48"/></g></g><g class="cls-3"><polygon class="cls-1" points="77.66 20.69 77.66 43.11 58.25 54.32 58.25 31.9 77.66 20.69"/><g class="cls-62"><polygon class="cls-6" points="77.66 20.69 77.66 43.11 58.25 54.32 58.25 31.9 77.66 20.69"/></g></g><g class="cls-3"><polygon class="cls-1" points="58.25 31.9 58.25 54.32 38.83 43.11 38.83 20.69 58.25 31.9"/><g class="cls-63"><polygon class="cls-8" points="58.25 31.9 58.25 54.32 38.83 43.11 38.83 20.69 58.25 31.9"/></g></g></g></g><polygon class="cls-9" points="38.83 20.69 58.25 9.48 77.66 20.69 58.25 31.9 38.83 20.69"/><g class="cls-2"><g class="cls-3"><g class="cls-3"><polygon class="cls-1" points="58.25 31.9 77.66 43.11 77.66 65.53 58.25 54.32 58.25 31.9"/><g class="cls-64"><polygon class="cls-1" points="58.25 31.9 77.66 43.11 77.66 65.53 58.25 54.32 58.25 31.9"/></g></g><g class="cls-3"><polygon class="cls-1" points="77.66 43.11 77.66 65.53 58.25 76.74 58.25 54.32 77.66 43.11"/><g class="cls-65"><polygon class="cls-6" points="77.66 43.11 77.66 65.53 58.25 76.74 58.25 54.32 77.66 43.11"/></g></g><g class="cls-3"><polygon class="cls-1" points="58.25 54.32 58.25 76.74 38.83 65.53 38.83 43.11 58.25 54.32"/><g class="cls-66"><polygon class="cls-8" points="58.25 54.32 58.25 76.74 38.83 65.53 38.83 43.11 58.25 54.32"/></g></g></g></g><polygon class="cls-9" points="38.83 43.11 58.25 31.9 77.66 43.11 58.25 54.32 38.83 43.11"/><g class="cls-2"><g class="cls-3"><g class="cls-3"><polygon class="cls-1" points="77.66 20.69 97.08 31.9 97.08 54.32 77.66 43.11 77.66 20.69"/><g class="cls-67"><polygon class="cls-1" points="77.66 20.69 97.08 31.9 97.08 54.32 77.66 43.11 77.66 20.69"/></g></g><g class="cls-3"><polygon class="cls-1" points="97.08 31.9 97.08 54.32 77.66 65.53 77.66 43.11 97.08 31.9"/><g class="cls-68"><polygon class="cls-6" points="97.08 31.9 97.08 54.32 77.66 65.53 77.66 43.11 97.08 31.9"/></g></g><g class="cls-3"><polygon class="cls-1" points="77.66 43.11 77.66 65.53 58.25 54.32 58.25 31.9 77.66 43.11"/><g class="cls-69"><polygon class="cls-8" points="77.66 43.11 77.66 65.53 58.25 54.32 58.25 31.9 77.66 43.11"/></g></g></g></g><polygon class="cls-9" points="58.25 31.9 77.66 20.69 97.08 31.9 77.66 43.11 58.25 31.9"/><g class="cls-2"><g class="cls-3"><g class="cls-3"><polygon class="cls-1" points="38.83 20.69 58.25 31.9 58.25 54.32 38.83 43.11 38.83 20.69"/><g class="cls-70"><polygon class="cls-1" points="38.83 20.69 58.25 31.9 58.25 54.32 38.83 43.11 38.83 20.69"/></g></g><g class="cls-3"><polygon class="cls-1" points="58.25 31.9 58.25 54.32 38.83 65.53 38.83 43.11 58.25 31.9"/><g class="cls-71"><polygon class="cls-6" points="58.25 31.9 58.25 54.32 38.83 65.53 38.83 43.11 58.25 31.9"/></g></g><g class="cls-3"><polygon class="cls-1" points="38.83 43.11 38.83 65.53 19.42 54.32 19.42 31.9 38.83 43.11"/><g class="cls-72"><polygon class="cls-8" points="38.83 43.11 38.83 65.53 19.42 54.32 19.42 31.9 38.83 43.11"/></g></g></g></g><polygon class="cls-9" points="19.42 31.9 38.83 20.69 58.25 31.9 38.83 43.11 19.42 31.9"/><g class="cls-2"><g class="cls-3"><g class="cls-3"><polygon class="cls-1" points="77.66 43.11 77.66 65.53 58.25 76.74 58.25 54.32 77.66 43.11"/><g class="cls-35"><polygon class="cls-6" points="77.66 43.11 77.66 65.53 58.25 76.74 58.25 54.32 77.66 43.11"/></g></g><g class="cls-3"><polygon class="cls-1" points="58.25 54.32 58.25 76.74 38.83 65.53 38.83 43.11 58.25 54.32"/><g class="cls-36"><polygon class="cls-8" points="58.25 54.32 58.25 76.74 38.83 65.53 38.83 43.11 58.25 54.32"/></g></g><polygon class="cls-1" points="38.83 43.11 58.25 31.9 77.66 43.11 58.25 54.32 38.83 43.11"/></g></g><g class="cls-2"><g class="cls-3"><g class="cls-3"><polygon class="cls-1" points="19.42 31.9 38.83 43.11 38.83 65.53 19.42 54.32 19.42 31.9"/><g class="cls-73"><polygon class="cls-1" points="19.42 31.9 38.83 43.11 38.83 65.53 19.42 54.32 19.42 31.9"/></g></g><g class="cls-3"><polygon class="cls-1" points="38.83 43.11 38.83 65.53 19.42 76.74 19.42 54.32 38.83 43.11"/><g class="cls-74"><polygon class="cls-6" points="38.83 43.11 38.83 65.53 19.42 76.74 19.42 54.32 38.83 43.11"/></g></g><g class="cls-3"><polygon class="cls-1" points="19.42 54.32 19.42 76.74 0 65.53 0 43.11 19.42 54.32"/><g class="cls-75"><polygon class="cls-8" points="19.42 54.32 19.42 76.74 0 65.53 0 43.11 19.42 54.32"/></g></g></g></g><polygon class="cls-9" points="0 43.11 19.42 31.9 38.83 43.11 19.42 54.32 0 43.11"/><g class="cls-2"><g class="cls-3"><g class="cls-3"><polygon class="cls-1" points="38.83 43.11 58.25 54.32 58.25 76.74 38.83 65.53 38.83 43.11"/><g class="cls-76"><polygon class="cls-1" points="38.83 43.11 58.25 54.32 58.25 76.74 38.83 65.53 38.83 43.11"/></g></g><g class="cls-3"><polygon class="cls-1" points="58.25 54.32 58.25 76.74 38.83 87.95 38.83 65.53 58.25 54.32"/><g class="cls-77"><polygon class="cls-6" points="58.25 54.32 58.25 76.74 38.83 87.95 38.83 65.53 58.25 54.32"/></g></g><g class="cls-3"><polygon class="cls-1" points="38.83 65.53 38.83 87.95 19.42 76.74 19.42 54.32 38.83 65.53"/><g class="cls-78"><polygon class="cls-8" points="38.83 65.53 38.83 87.95 19.42 76.74 19.42 54.32 38.83 65.53"/></g></g></g></g><polygon class="cls-9" points="19.42 54.32 38.83 43.11 58.25 54.32 38.83 65.53 19.42 54.32"/><g class="cls-2"><g class="cls-3"><g class="cls-3"><polygon class="cls-1" points="97.08 31.9 116.5 43.11 116.5 65.53 97.08 54.32 97.08 31.9"/><g class="cls-79"><polygon class="cls-1" points="97.08 31.9 116.5 43.11 116.5 65.53 97.08 54.32 97.08 31.9"/></g></g><g class="cls-3"><polygon class="cls-1" points="116.5 43.11 116.5 65.53 97.08 76.74 97.08 54.32 116.5 43.11"/><g class="cls-80"><polygon class="cls-6" points="116.5 43.11 116.5 65.53 97.08 76.74 97.08 54.32 116.5 43.11"/></g></g><g class="cls-3"><polygon class="cls-1" points="97.08 54.32 97.08 76.74 77.66 65.53 77.66 43.11 97.08 54.32"/><g class="cls-81"><polygon class="cls-8" points="97.08 54.32 97.08 76.74 77.66 65.53 77.66 43.11 97.08 54.32"/></g></g></g></g><polygon class="cls-9" points="77.66 43.11 97.08 31.9 116.5 43.11 97.08 54.32 77.66 43.11"/><g class="cls-2"><g class="cls-3"><g class="cls-3"><polygon class="cls-1" points="77.66 43.11 97.08 54.32 97.08 76.74 77.66 65.53 77.66 43.11"/><g class="cls-82"><polygon class="cls-1" points="77.66 43.11 97.08 54.32 97.08 76.74 77.66 65.53 77.66 43.11"/></g></g><g class="cls-3"><polygon class="cls-1" points="97.08 54.32 97.08 76.74 77.66 87.95 77.66 65.53 97.08 54.32"/><g class="cls-83"><polygon class="cls-6" points="97.08 54.32 97.08 76.74 77.66 87.95 77.66 65.53 97.08 54.32"/></g></g><g class="cls-3"><polygon class="cls-1" points="77.66 65.53 77.66 87.95 58.25 76.74 58.25 54.32 77.66 65.53"/><g class="cls-84"><polygon class="cls-8" points="77.66 65.53 77.66 87.95 58.25 76.74 58.25 54.32 77.66 65.53"/></g></g></g></g><polygon class="cls-9" points="58.25 54.32 77.66 43.11 97.08 54.32 77.66 65.53 58.25 54.32"/><g class="cls-2"><g class="cls-3"><g class="cls-3"><polygon class="cls-1" points="58.25 0 77.66 11.21 77.66 33.63 58.25 22.42 58.25 0"/><g class="cls-85"><polygon class="cls-1" points="58.25 0 77.66 11.21 77.66 33.63 58.25 22.42 58.25 0"/></g></g><g class="cls-3"><polygon class="cls-1" points="77.66 11.21 77.66 33.63 58.25 44.84 58.25 22.42 77.66 11.21"/><g class="cls-86"><polygon class="cls-87" points="77.66 11.21 77.66 33.63 58.25 44.84 58.25 22.42 77.66 11.21"/></g></g><g class="cls-3"><polygon class="cls-1" points="58.25 22.42 58.25 44.84 38.83 33.63 38.83 11.21 58.25 22.42"/><g class="cls-88"><polygon class="cls-89" points="58.25 22.42 58.25 44.84 38.83 33.63 38.83 11.21 58.25 22.42"/></g></g></g></g><polygon class="cls-90" points="38.83 11.21 58.25 0 77.66 11.21 58.25 22.42 38.83 11.21"/></svg>