<?xml version="1.0" encoding="UTF-8"?>
<svg width="12px" height="12px" viewBox="0 0 12 12" version="1.1" xmlns="http://www.w3.org/2000/svg" xmlns:xlink="http://www.w3.org/1999/xlink">
    <g id="icon/button/loyalty/zodiac" stroke="none" stroke-width="1" fill="none" fill-rule="evenodd">
        <polygon id="Stroke-2" stroke="#1B2559" stroke-linejoin="round" points="8.27822222 0.5 3.72177778 0.5 0.5 3.72177778 0.5 8.27822222 3.72177778 11.5 8.27822222 11.5 11.5 8.27822222 11.5 3.72177778"></polygon>
        <path d="M7.55533889,6.66641667 C8.04667222,6.66641667 8.44450556,7.06486111 8.44450556,7.55558333 C8.44450556,8.04630556 8.04667222,8.44475 7.55533889,8.44475 C7.06461667,8.44475 6.66678333,8.04630556 6.66678333,7.55558333 C6.66678333,7.06486111 7.06461667,6.66641667 7.55533889,6.66641667 Z M8.44481111,3.55555556 L4.44447778,8.44444444 L3.55592222,8.44444444 L7.55564444,3.55555556 L8.44481111,3.55555556 Z M4.44423333,3.55525 C4.93556667,3.55525 5.3334,3.95369444 5.3334,4.44441667 C5.3334,4.93513889 4.93556667,5.33358333 4.44423333,5.33358333 C3.95351111,5.33358333 3.55567778,4.93513889 3.55567778,4.44441667 C3.55567778,3.95369444 3.95351111,3.55525 4.44423333,3.55525 Z" id="Combined-Shape" fill="#1B2559"></path>
    </g>
</svg>