<?xml version="1.0" encoding="UTF-8"?>
<svg width="20px" height="20px" viewBox="0 0 20 20" version="1.1" xmlns="http://www.w3.org/2000/svg" xmlns:xlink="http://www.w3.org/1999/xlink">
    <!-- Generator: Sketch 60.1 (88133) - https://sketch.com -->
    <desc>Created with Sketch.</desc>
    <g id="icon/sf-small/settings/zodiac" stroke="none" stroke-width="1" fill="none" fill-rule="evenodd" stroke-linejoin="round">
        <path d="M10,13 C8.34325,13 7,11.65675 7,10 C7,8.34325 8.34325,7 10,7 C11.65675,7 13,8.34325 13,10 C13,11.65675 11.65675,13 10,13 Z M19.843,11.816 C19.945,11.391 20,10.45 20,10 C20,9.55 19.945,8.609 19.843,8.184 L17.649,7.656 C17.499,7.166 17.302,6.695 17.065,6.25 L18.244,4.324 C18.016,3.951 17.39,3.247 17.071,2.929 C16.753,2.61 16.049,1.984 15.676,1.756 L13.75,2.935 C13.305,2.698 12.834,2.501 12.344,2.351 L11.816,0.157 C11.391,0.055 10.45,0 10,0 C9.55,0 8.609,0.055 8.184,0.157 L7.656,2.351 C7.166,2.501 6.695,2.698 6.25,2.935 L4.324,1.756 C3.951,1.984 3.247,2.61 2.929,2.929 C2.61,3.247 1.984,3.951 1.756,4.324 L2.935,6.25 C2.698,6.695 2.501,7.166 2.351,7.656 L0.157,8.184 C0.055,8.609 0,9.55 0,10 C0,10.45 0.055,11.391 0.157,11.816 L2.351,12.344 C2.501,12.834 2.698,13.304 2.935,13.75 L1.756,15.676 C1.984,16.049 2.61,16.753 2.929,17.071 C3.247,17.39 3.951,18.016 4.324,18.244 L6.25,17.065 C6.696,17.302 7.166,17.499 7.656,17.649 L8.184,19.843 C8.609,19.945 9.55,20 10,20 C10.45,20 11.391,19.945 11.816,19.843 L12.344,17.649 C12.834,17.499 13.304,17.302 13.75,17.065 L15.676,18.244 C16.049,18.016 16.753,17.39 17.071,17.071 C17.39,16.753 18.016,16.049 18.244,15.676 L17.065,13.75 C17.302,13.304 17.499,12.834 17.649,12.344 L19.843,11.816 Z" id="Stroke-1" stroke="#1B2559" stroke-width="2"></path>
    </g>
</svg>