<?xml version="1.0" standalone="no"?>
<!DOCTYPE svg PUBLIC "-//W3C//DTD SVG 20010904//EN"
 "http://www.w3.org/TR/2001/REC-SVG-20010904/DTD/svg10.dtd">
<svg version="1.0" xmlns="http://www.w3.org/2000/svg"
 width="360.000000pt" height="360.000000pt" viewBox="0 0 360.000000 360.000000"
 preserveAspectRatio="xMidYMid meet">

<g transform="translate(0.000000,360.000000) scale(0.100000,-0.100000)"
fill="#000000" stroke="none">
<path d="M1751 3054 c-12 -15 -21 -37 -21 -50 0 -25 43 -64 70 -64 31 0 70 39
70 71 0 65 -80 93 -119 43z"/>
<path d="M1109 2996 c-30 -14 -36 -51 -13 -77 38 -42 107 -4 88 48 -11 32 -43
45 -75 29z"/>
<path d="M2432 2994 c-32 -22 -26 -64 11 -82 24 -12 31 -11 53 2 29 20 32 56
6 79 -23 21 -41 21 -70 1z"/>
<path d="M1271 2728 c-60 -31 -57 -123 4 -152 32 -16 38 -16 69 -1 79 37 66
144 -20 160 -16 3 -40 0 -53 -7z"/>
<path d="M2236 2717 c-39 -39 -38 -90 0 -124 55 -50 138 -12 138 62 0 44 -28
74 -76 82 -30 4 -41 1 -62 -20z"/>
<path d="M1754 2651 c-32 -14 -54 -51 -54 -91 0 -92 109 -138 174 -74 13 14
26 37 29 52 6 31 -12 80 -36 100 -21 18 -86 24 -113 13z"/>
<path d="M2804 2457 c-50 -43 -24 -117 42 -117 66 0 94 79 42 123 -27 23 -52
22 -84 -6z"/>
<path d="M707 2452 c-21 -23 -22 -76 -1 -96 61 -61 158 14 107 82 -26 34 -81
42 -106 14z"/>
<path d="M1525 2355 c-55 -19 -112 -85 -120 -139 -15 -97 41 -183 133 -206
117 -28 221 54 222 173 0 78 -60 155 -137 176 -47 13 -49 13 -98 -4z"/>
<path d="M1965 2355 c-142 -50 -163 -252 -34 -325 116 -65 255 3 267 131 9 91
-33 160 -117 195 -41 17 -65 17 -116 -1z"/>
<path d="M1081 2254 c-27 -22 -31 -33 -31 -73 0 -39 5 -52 28 -73 37 -35 64
-41 105 -24 75 31 90 105 33 162 -43 43 -90 46 -135 8z"/>
<path d="M2388 2251 c-27 -24 -33 -36 -33 -70 0 -124 177 -140 200 -18 8 39
-13 90 -44 107 -38 20 -89 12 -123 -19z"/>
<path d="M2202 1977 c-55 -11 -116 -70 -133 -127 -24 -80 18 -172 94 -209 122
-59 258 24 260 158 1 118 -104 202 -221 178z"/>
<path d="M1285 1963 c-46 -24 -66 -45 -86 -88 -80 -173 135 -338 277 -213 46
41 64 77 64 132 0 56 -14 93 -48 130 -52 55 -144 73 -207 39z"/>
<path d="M800 1883 c-52 -19 -76 -70 -56 -118 26 -62 89 -74 137 -26 37 37 38
78 4 115 -13 14 -28 26 -34 26 -5 0 -15 2 -23 4 -7 3 -20 2 -28 -1z"/>
<path d="M2725 1865 c-24 -24 -29 -40 -25 -80 3 -27 19 -46 54 -60 57 -24 116
17 116 80 -1 74 -93 113 -145 60z"/>
<path d="M3103 1845 c-43 -30 -20 -95 32 -95 15 0 31 10 41 26 16 24 16 27 -3
52 -25 33 -41 37 -70 17z"/>
<path d="M450 1843 c-37 -15 -41 -66 -5 -89 30 -20 58 -11 74 22 21 46 -19 86
-69 67z"/>
<path d="M1533 1591 c-17 -5 -44 -18 -59 -30 -113 -89 -84 -264 53 -316 40
-16 53 -16 91 -6 60 16 98 45 123 93 35 68 23 152 -30 212 -35 40 -117 62
-178 47z"/>
<path d="M1970 1590 c-46 -11 -105 -76 -120 -131 -22 -82 20 -166 102 -204 55
-25 98 -25 153 1 124 58 127 256 6 318 -36 19 -99 26 -141 16z"/>
<path d="M2440 1524 c-41 -14 -60 -30 -75 -59 -20 -44 -10 -89 28 -121 26 -22
38 -25 75 -21 57 6 83 32 89 89 5 39 2 49 -23 76 -29 31 -66 45 -94 36z"/>
<path d="M1081 1494 c-26 -22 -31 -33 -31 -71 0 -36 6 -50 29 -74 65 -64 171
-20 171 71 0 89 -100 133 -169 74z"/>
<path d="M2806 1249 c-50 -40 -21 -119 44 -119 64 0 91 70 45 115 -30 30 -54
31 -89 4z"/>
<path d="M706 1238 c-24 -34 -20 -73 10 -97 15 -12 35 -21 46 -21 26 0 68 44
68 73 0 57 -92 91 -124 45z"/>
<path d="M1737 1129 c-28 -16 -49 -68 -43 -104 12 -62 85 -100 145 -75 102 42
70 190 -41 190 -24 0 -51 -5 -61 -11z"/>
<path d="M2273 1032 c-13 -2 -32 -15 -43 -29 -66 -85 56 -191 126 -109 56 65
4 151 -83 138z"/>
<path d="M1256 1009 c-56 -44 -18 -149 54 -149 37 0 90 47 90 80 0 29 -26 76
-45 84 -32 12 -73 6 -99 -15z"/>
<path d="M1105 676 c-44 -44 2 -104 60 -78 33 15 35 64 3 86 -30 21 -35 20
-63 -8z"/>
<path d="M2436 687 c-27 -20 -18 -68 17 -87 27 -14 29 -14 52 13 25 29 24 52
-3 75 -20 16 -44 15 -66 -1z"/>
<path d="M1756 639 c-50 -39 -24 -119 38 -119 64 0 95 82 47 122 -30 23 -52
23 -85 -3z"/>
</g>
</svg>
