<?xml version="1.0" encoding="UTF-8" standalone="no"?>
<!-- Created with Inkscape (http://www.inkscape.org/) -->

<svg
   xmlns:dc="http://purl.org/dc/elements/1.1/"
   xmlns:cc="http://creativecommons.org/ns#"
   xmlns:rdf="http://www.w3.org/1999/02/22-rdf-syntax-ns#"
   xmlns:svg="http://www.w3.org/2000/svg"
   xmlns="http://www.w3.org/2000/svg"
   xmlns:sodipodi="http://sodipodi.sourceforge.net/DTD/sodipodi-0.dtd"
   xmlns:inkscape="http://www.inkscape.org/namespaces/inkscape"
   width="512px"
   height="512px"
   viewBox="0 0 512 512"
   version="1.1"
   id="SVGRoot"
   inkscape:version="0.92.4 (unknown)"
   sodipodi:docname="logo-negative.svg">
  <defs
     id="defs1619" />
  <sodipodi:namedview
     id="base"
     pagecolor="#ffffff"
     bordercolor="#666666"
     borderopacity="1.0"
     inkscape:pageopacity="0.0"
     inkscape:pageshadow="2"
     inkscape:zoom="0.70710678"
     inkscape:cx="-115.22163"
     inkscape:cy="209.44598"
     inkscape:document-units="px"
     inkscape:current-layer="layer1"
     showgrid="false"
     inkscape:window-width="1920"
     inkscape:window-height="1025"
     inkscape:window-x="0"
     inkscape:window-y="27"
     inkscape:window-maximized="1" />
  <metadata
     id="metadata1622">
    <rdf:RDF>
      <cc:Work
         rdf:about="">
        <dc:format>image/svg+xml</dc:format>
        <dc:type
           rdf:resource="http://purl.org/dc/dcmitype/StillImage" />
        <dc:title></dc:title>
      </cc:Work>
    </rdf:RDF>
  </metadata>
  <g
     inkscape:label="Layer 1"
     inkscape:groupmode="layer"
     id="layer1">
    <g
       transform="matrix(0.67657381,0,0,-0.67250909,-150.55517,529.55433)"
       id="g10"
       style="fill:#862633;fill-opacity:1;fill-rule:nonzero;stroke:none;stroke-opacity:1">
      <path
         d="m 786.44926,229.69363 c -0.396,-0.049 -0.796,-0.083 -1.206,-0.083 -5.38,0 -9.758,4.378 -9.758,9.759 0,0.022 0,0.043 0,0.065 l -44.821,25.313 c -1.212,-0.906 -2.709,-1.45 -4.335,-1.45 -0.884,0 -1.728,0.167 -2.512,0.458 l -9.338,-9.78 c 0.244,-0.724 0.381,-1.497 0.381,-2.303 0,-0.214 -0.014,-0.424 -0.032,-0.633 l 93.097,-60.035 -21.48,38.689 z"
         style="fill:#862633;fill-opacity:1;fill-rule:nonzero;stroke:none;stroke-opacity:1"
         id="path50"
         inkscape:connector-curvature="0" />
      <path
         d="m 409.57076,183.21023 24.625,-67.23 -4.506,34.794 z"
         style="fill:#862633;fill-opacity:1;fill-rule:nonzero;stroke:none;stroke-opacity:1"
         id="path54"
         inkscape:connector-curvature="0" />
      <path
         d="m 699.97226,166.41523 c 0.209,-0.289 0.404,-0.588 0.581,-0.899 l 104.629,16.78 c -0.026,0.778 0.02,1.556 0.14,2.327 l -93.915,60.564 3.508,-55.295 c 0.047,-0.742 -0.155,-1.489 -0.569,-2.105 z"
         style="fill:#862633;fill-opacity:1;fill-rule:nonzero;stroke:none;stroke-opacity:1"
         id="path58"
         inkscape:connector-curvature="0" />
      <path
         d="m 799.86136,348.96113 -33.538,-60.084 c 0.565,-1.033 0.888,-2.217 0.888,-3.475 0,-1.655 -0.563,-3.178 -1.499,-4.401 l 17.788,-32.039 c 0.567,0.103 1.148,0.166 1.743,0.166 5.381,0 9.759,-4.378 9.759,-9.759 0,-2.52 -0.969,-4.812 -2.542,-6.545 l 20.286,-36.54 z"
         style="fill:#862633;fill-opacity:1;fill-rule:nonzero;stroke:none;stroke-opacity:1"
         id="path62"
         inkscape:connector-curvature="0" />
      <path
         d="m 831.40776,508.78783 c 0,0.75 0.101,1.478 0.266,2.18 l -59.787,39.719 c -1.237,-0.775 -2.694,-1.231 -4.259,-1.231 -4.441,0 -8.053,3.613 -8.053,8.054 0,0.437 0.044,0.863 0.111,1.282 l -21.851,14.517 50.231,-80.283 z"
         style="fill:#862633;fill-opacity:1;fill-rule:nonzero;stroke:none;stroke-opacity:1"
         id="path66"
         inkscape:connector-curvature="0" />
      <path
         d="m 467.37296,201.31813 c 0.124,-1.896 0.675,-3.725 1.598,-5.36 l -6.65,-29.238 -1.697,-0.356 1.173,74.715 7.214,-32.695 c -1.217,-2.126 -1.8,-4.579 -1.638,-7.066 m -2.776,53.277 c -1.498,0.29 -2.876,1.017 -3.979,2.12 -0.105,0.104 -0.199,0.217 -0.297,0.327 l -9.089,-2.472 c -0.267,-1.087 -0.761,-2.103 -1.471,-2.984 l -13.191,-98.188 24.171,-19.079 14.305,62.892 c -1.162,1.16 -1.925,2.723 -2.039,4.472 -0.136,2.098 0.679,4.039 2.069,5.412 z"
         style="fill:#862633;fill-opacity:1;fill-rule:nonzero;stroke:none;stroke-opacity:1"
         id="path70"
         inkscape:connector-curvature="0" />
      <path
         d="m 474.91006,653.71463 c 0,-3.051 -1.116,-5.923 -3.134,-8.178 l 39.404,-63.894 56.593,124.905 21.467,47.378 -115.427,-95.15 c 0.711,-1.571 1.097,-3.285 1.097,-5.061"
         style="fill:#862633;fill-opacity:1;fill-rule:nonzero;stroke:none;stroke-opacity:1"
         id="path74"
         inkscape:connector-curvature="0" />
      <path
         d="m 767.62746,565.56273 c 1.607,0 3.102,-0.478 4.36,-1.292 l 50.214,35.084 -29.835,0.063 c -0.467,-1.24 -1.191,-2.405 -2.187,-3.401 -1.818,-1.818 -4.235,-2.819 -6.805,-2.819 -2.571,0 -4.988,1.001 -6.806,2.819 -0.174,0.174 -0.333,0.359 -0.491,0.543 l -41.427,-12.816 c -0.01,-0.057 -0.019,-0.112 -0.025,-0.168 l 28.859,-19.173 c 1.213,0.731 2.627,1.16 4.143,1.16"
         style="fill:#862633;fill-opacity:1;fill-rule:nonzero;stroke:none;stroke-opacity:1"
         id="path78"
         inkscape:connector-curvature="0" />
      <path
         d="m 460.91006,334.57103 -6.973,-51.9 7.558,14.344 z"
         style="fill:#862633;fill-opacity:1;fill-rule:nonzero;stroke:none;stroke-opacity:1"
         id="path82"
         inkscape:connector-curvature="0" />
      <path
         d="m 451.66206,343.73163 -50.953,-125.597 c 0.266,-0.32 0.516,-0.654 0.727,-1.021 0.991,-1.715 1.254,-3.713 0.741,-5.627 -0.197,-0.737 -0.503,-1.425 -0.899,-2.052 l 29.578,-47.688 11.694,87.046 c -1.612,0.247 -3.101,0.988 -4.277,2.164 -3.012,3.012 -3.012,7.913 0,10.926 1.459,1.459 3.4,2.263 5.463,2.263 0.145,0 0.287,-0.014 0.43,-0.021 l 0.596,1.131 10.688,79.558 c -1.138,-0.679 -2.433,-1.055 -3.788,-1.082"
         style="fill:#862633;fill-opacity:1;fill-rule:nonzero;stroke:none;stroke-opacity:1"
         id="path86"
         inkscape:connector-curvature="0" />
      <path
         d="m 940.55666,424.44703 -10.799,10.528 -14.011,32.19 5.303,21.326 3.426,-2.556 c 0.634,-3.943 2.979,-7.416 6.339,-9.497 z m -10.606,63.638 c 0,0.263 0.015,0.523 0.04,0.78 l -75.029,55.98 c -1.132,-0.769 -2.435,-1.296 -3.836,-1.535 l -4.942,-26.227 c 2.833,-1.71 4.738,-4.809 4.738,-8.352 0,-1.409 -0.307,-2.746 -0.847,-3.957 l 97.449,-95.004 c 0.454,0.25 0.923,0.467 1.405,0.656 l -13.101,69.913 c -3.386,0.953 -5.877,4.06 -5.877,7.746"
         style="fill:#862633;fill-opacity:1;fill-rule:nonzero;stroke:none;stroke-opacity:1"
         id="path90"
         inkscape:connector-curvature="0" />
      <path
         d="m 491.42186,172.81423 -9.647,-2.02 3.394,14.925 9.351,-7.833 c -10e-4,-0.315 0.01,-0.63 0.029,-0.945 0.012,-0.175 0.026,-0.351 0.045,-0.525 z m -9.192,22.732 c -0.216,-0.074 -0.435,-0.137 -0.659,-0.19 l -12.963,-56.992 32.119,36.474 c -0.297,0.774 -0.488,1.602 -0.544,2.469 -0.065,1.003 0.054,1.988 0.328,2.924 z"
         style="fill:#862633;fill-opacity:1;fill-rule:nonzero;stroke:none;stroke-opacity:1"
         id="path94"
         inkscape:connector-curvature="0" />
      <path
         d="m 759.94826,292.66483 c 0.24,0 0.477,-0.013 0.711,-0.036 l 17.509,31.369 16.324,29.245 c -0.427,0.409 -0.818,0.855 -1.166,1.335 l -54.359,-13.446 c -0.373,-1.479 -1.088,-2.86 -2.123,-4.039 -0.457,-0.52 -0.962,-0.981 -1.504,-1.386 l 23.916,-43.077 c 0.228,0.022 0.459,0.035 0.692,0.035"
         style="fill:#862633;fill-opacity:1;fill-rule:nonzero;stroke:none;stroke-opacity:1"
         id="path98"
         inkscape:connector-curvature="0" />
      <path
         d="m 775.60796,558.53583 c 0.043,-0.337 0.073,-0.678 0.073,-1.026 0,-0.391 -0.037,-0.773 -0.092,-1.149 l 59.839,-39.753 c 0.563,0.412 1.169,0.768 1.814,1.053 l -4.463,75.565 c -1.63,0.323 -3.139,1.071 -4.409,2.176 z"
         style="fill:#862633;fill-opacity:1;fill-rule:nonzero;stroke:none;stroke-opacity:1"
         id="path102"
         inkscape:connector-curvature="0" />
      <path
         d="m 794.97856,419.75223 146.797,-16.856 c 0.245,0.73 0.555,1.434 0.933,2.106 l -68.473,66.755 -28.894,28.169 c -1.268,-0.605 -2.682,-0.953 -4.178,-0.953 -0.656,0 -1.296,0.067 -1.916,0.191 l -46.382,-75.274 c 1.011,-1.169 1.746,-2.58 2.113,-4.138"
         style="fill:#862633;fill-opacity:1;fill-rule:nonzero;stroke:none;stroke-opacity:1"
         id="path106"
         inkscape:connector-curvature="0" />
      <path
         d="m 844.46926,544.56813 c -0.791,0.478 -1.508,1.062 -2.132,1.736 l 0.587,-9.936 z"
         style="fill:#862633;fill-opacity:1;fill-rule:nonzero;stroke:none;stroke-opacity:1"
         id="path110"
         inkscape:connector-curvature="0" />
      <path
         d="m 736.07376,355.45973 -1.245,-3.758 c 1.432,-0.935 2.603,-2.239 3.384,-3.777 l 53.303,13.185 c 0.398,4.729 4.203,8.6 9.079,8.916 0.214,0.015 0.428,0.021 0.64,0.021 3.422,0 6.458,-1.793 8.201,-4.504 l 60.056,14.855 50.596,12.515 -174.431,-8.516 z"
         style="fill:#862633;fill-opacity:1;fill-rule:nonzero;stroke:none;stroke-opacity:1"
         id="path114"
         inkscape:connector-curvature="0" />
      <path
         d="m 918.82286,540.42893 v 0 l -0.042,0.222 z m 14.254,-45.414 -9.453,50.449 c -3.784,0.278 -6.971,2.717 -8.33,6.091 -18.079,-0.446 -42.62,-1.087 -55.929,-1.542 z"
         style="fill:#862633;fill-opacity:1;fill-rule:nonzero;stroke:none;stroke-opacity:1"
         id="path118"
         inkscape:connector-curvature="0" />
      <path
         d="m 819.66996,194.81033 c 0.76,-0.138 1.5,-0.349 2.214,-0.625 l 123.571,195.453 c -0.246,0.21 -0.491,0.423 -0.722,0.655 -0.45,0.449 -0.847,0.934 -1.216,1.436 l -132.627,-32.807 c -0.407,-2.884 -2.089,-5.398 -4.488,-6.904 l 9.425,-111.679 z"
         style="fill:#862633;fill-opacity:1;fill-rule:nonzero;stroke:none;stroke-opacity:1"
         id="path122"
         inkscape:connector-curvature="0" />
      <path
         d="m 849.48976,562.67843 c 4.018,0 7.474,-2.442 8.969,-5.918 0.883,0.029 1.827,0.06 2.858,0.094 6.277,0.207 15.042,0.462 26.051,0.758 9.001,0.242 17.992,0.471 24.947,0.645 l -70.681,37.779 c -0.055,-0.057 -0.102,-0.119 -0.159,-0.176 -0.597,-0.598 -1.264,-1.097 -1.975,-1.511 l 2.108,-35.699 c 1.777,2.436 4.643,4.028 7.882,4.028"
         style="fill:#862633;fill-opacity:1;fill-rule:nonzero;stroke:none;stroke-opacity:1"
         id="path126"
         inkscape:connector-curvature="0" />
      <path
         d="m 793.87306,697.89773 c 0.386,-0.154 0.779,-0.29 1.177,-0.406 l 17.336,-51.745 -9.931,12.406 -7.422,25.524 -23.992,5.599 c 8.747,3.283 16.985,6.401 22.832,8.622 m -63.719,-19.284 51.614,-66.311 c 0.526,0.088 1.062,0.143 1.606,0.143 2.571,0 4.987,-1.001 6.805,-2.819 1.005,-1.005 1.732,-2.182 2.199,-3.434 l 33.317,-0.07 c 0.468,1.22 1.187,2.366 2.169,3.348 0.632,0.632 1.34,1.158 2.098,1.585 l -30.685,91.591 c 0,0 -0.01,-0.001 -0.012,0 -0.197,-0.016 -0.393,-0.023 -0.588,-0.023 -1.636,0 -3.161,0.548 -4.399,1.469 -15.449,-5.873 -48.665,-18.437 -63.527,-23.574 -0.114,-0.667 -0.315,-1.306 -0.597,-1.903"
         style="fill:#862633;fill-opacity:1;fill-rule:nonzero;stroke:none;stroke-opacity:1"
         id="path130"
         inkscape:connector-curvature="0" />
      <path
         d="m 619.61476,529.57253 c 0.01,0 0.01,-0.01 0.013,-0.014 l 98.979,54.683 c -0.01,0.117 -0.018,0.231 -0.018,0.348 0,1.504 0.422,2.908 1.143,4.114 l -117.4,165.647 11.367,-221.504 c 2.222,-0.511 4.265,-1.623 5.916,-3.274"
         style="fill:#862633;fill-opacity:1;fill-rule:nonzero;stroke:none;stroke-opacity:1"
         id="path134"
         inkscape:connector-curvature="0" />
      <path
         d="m 602.13486,529.46903 c 0.033,0.033 0.061,0.07 0.094,0.104 1.346,1.346 2.955,2.329 4.705,2.928 l -11.251,219.227 -79.655,-175.801 z"
         style="fill:#862633;fill-opacity:1;fill-rule:nonzero;stroke:none;stroke-opacity:1"
         id="path138"
         inkscape:connector-curvature="0" />
      <path
         d="m 790.29986,459.86453 -0.945,-28.423 37.108,59.969 z"
         style="fill:#862633;fill-opacity:1;fill-rule:nonzero;stroke:none;stroke-opacity:1"
         id="path142"
         inkscape:connector-curvature="0" />
      <path
         d="m 726.64266,592.64283 c 2.282,0 4.341,-0.958 5.808,-2.489 l 41.309,12.781 c 0.025,2.099 0.728,4.19 2.113,5.912 l -51.082,65.626 c -0.248,-0.045 -0.501,-0.079 -0.757,-0.099 -0.197,-0.016 -0.394,-0.023 -0.588,-0.023 -3.841,0 -7.086,3.001 -7.388,6.833 -0.038,0.474 -0.025,0.941 0.025,1.398 l -25.201,16.945 c -1.216,-0.738 -2.638,-1.172 -4.162,-1.172 -4.441,0 -8.054,3.613 -8.054,8.053 0,0.43 0.044,0.848 0.109,1.26 l -25.922,17.43 c 0,0 0,10e-4 0,0 l -34.413,23.138 -6.628,4.457 113.518,-160.169 c 0.429,0.071 0.866,0.117 1.315,0.117"
         style="fill:#862633;fill-opacity:1;fill-rule:nonzero;stroke:none;stroke-opacity:1"
         id="path146"
         inkscape:connector-curvature="0" />
      <path
         d="m 785.48246,407.76143 c -2.174,0 -4.191,0.727 -5.823,1.949 l -25.194,-18.1 58.517,2.857 35.811,1.748 64.391,3.144 -119.041,13.669 c -0.36,-0.69 -0.795,-1.347 -1.322,-1.947 -1.719,-1.958 -4.099,-3.13 -6.7,-3.299 -0.214,-0.014 -0.428,-0.021 -0.639,-0.021"
         style="fill:#862633;fill-opacity:1;fill-rule:nonzero;stroke:none;stroke-opacity:1"
         id="path150"
         inkscape:connector-curvature="0" />
      <path
         d="m 668.62706,729.61743 -8.839,14.523 c -0.274,-0.053 -0.552,-0.095 -0.834,-0.117 -0.197,-0.016 -0.394,-0.024 -0.588,-0.024 -3.03,0 -5.683,1.872 -6.819,4.542 l -20.865,-0.373 25.278,-16.996 z"
         style="fill:#862633;fill-opacity:1;fill-rule:nonzero;stroke:none;stroke-opacity:1"
         id="path154"
         inkscape:connector-curvature="0" />
      <path
         d="m 762.23006,705.61793 -23.745,-8.744 -32.772,7.648 -5.406,3.635 c -0.244,1.912 -0.885,3.702 -1.836,5.286 z m -75.511,8.843 c 4.441,0 8.054,-3.613 8.054,-8.053 0,-0.43 -0.044,-0.848 -0.109,-1.26 l 25.164,-16.92 c 0.908,0.512 1.933,0.845 3.038,0.932 0.197,0.015 0.394,0.023 0.589,0.023 1.931,0 3.712,-0.76 5.044,-2.003 l 57.57,21.2 -104.381,12.81 4.128,-6.782 c 0.297,0.033 0.598,0.053 0.903,0.053"
         style="fill:#862633;fill-opacity:1;fill-rule:nonzero;stroke:none;stroke-opacity:1"
         id="path158"
         inkscape:connector-curvature="0" />
      <path
         d="m 675.80036,717.83223 -2.684,4.409 -4.738,0.582 z"
         style="fill:#862633;fill-opacity:1;fill-rule:nonzero;stroke:none;stroke-opacity:1"
         id="path162"
         inkscape:connector-curvature="0" />
      <path
         d="m 538.53996,728.22873 -21.063,-17.363 -107.77,-9.663 z m -84.617,-65.821 c 2.322,2.322 5.409,3.601 8.693,3.601 2.465,0 4.818,-0.72 6.82,-2.061 l 90.396,74.516 -219.88,-46.125 112.346,-31.946 c 0.462,0.713 1.001,1.39 1.625,2.015"
         style="fill:#862633;fill-opacity:1;fill-rule:nonzero;stroke:none;stroke-opacity:1"
         id="path166"
         inkscape:connector-curvature="0" />
      <path
         d="m 607.78766,160.72093 c -0.306,0 -0.613,-0.01 -0.92,-0.03 -3.76,-0.244 -7.199,-1.938 -9.683,-4.768 -1.039,-1.184 -1.863,-2.514 -2.45,-3.946 l -38.137,-13.457 -7.882,6.563 -26.285,29.918 c 0.257,1.233 0.348,2.499 0.264,3.77 -0.48,7.395 -6.66,13.188 -14.067,13.188 -0.306,0 -0.614,-0.01 -0.92,-0.03 -0.535,-0.035 -1.065,-0.099 -1.588,-0.192 l -13.574,11.371 c -0.32,4.144 -2.612,7.751 -6.036,9.816 l -9.248,41.913 c 1.426,2.161 2.191,4.693 2.191,7.341 0,3.571 -1.391,6.93 -3.916,9.454 -2.525,2.527 -5.883,3.918 -9.456,3.918 -0.651,0 -1.295,-0.046 -1.928,-0.137 l 8.735,16.579 c 0.706,1.339 1.064,2.845 1.04,4.351 l -1.194,76.636 c 0.437,0.348 0.856,0.723 1.257,1.123 5.772,5.774 5.772,15.168 0,20.942 -2.798,2.797 -6.517,4.338 -10.472,4.338 -0.533,0 -1.065,-0.029 -1.593,-0.086 l -16.738,16.089 c 0.054,0.377 0.093,0.755 0.117,1.135 0.268,4.106 -1.081,8.07 -3.794,11.162 -1.216,1.385 -2.646,2.522 -4.234,3.38 l -3.694,26.923 28.888,26.449 c 3.818,-0.236 7.522,1.172 10.229,3.879 2.516,2.515 3.902,5.863 3.902,9.426 0,3.562 -1.386,6.909 -3.901,9.424 -0.278,0.278 -0.566,0.542 -0.864,0.793 -0.202,17.78 -0.625,56.377 -0.871,89.513 l 25.262,-15.243 7.734,-12.54 c 0.151,-0.243 0.302,-0.446 0.426,-0.6 0.237,-0.32 0.501,-0.632 0.807,-0.948 0.132,-0.138 0.267,-0.27 0.383,-0.374 0.397,-0.361 0.82,-0.683 1.259,-0.96 l 86.155,-46.515 c 0.147,-4.57 1.996,-8.846 5.245,-12.096 3.389,-3.388 7.894,-5.253 12.685,-5.253 4.791,0 9.296,1.865 12.686,5.255 3.29,3.291 5.146,7.635 5.249,12.273 l 86.36,47.711 19.998,-14.098 43.775,-69.965 c 1.661,-2.657 4.525,-4.244 7.658,-4.244 1.051,0 2.088,0.183 3.087,0.545 l 8.97,3.262 -17.68,-15.423 c -1.882,-1.641 -3.007,-4.014 -3.09,-6.507 l -1.045,-31.461 c -4.028,-2.711 -6.597,-7.213 -6.792,-12.155 l -31.159,-22.385 -0.268,-0.188 c -0.633,-0.442 -1.592,-1.11 -2.459,-2.144 -1.325,-1.584 -1.851,-3.406 -2.199,-4.613 -0.06,-0.209 -0.118,-0.415 -0.181,-0.605 l -10.059,-30.378 c -2.229,-0.892 -4.234,-2.3 -5.838,-4.127 -2.714,-3.092 -4.063,-7.056 -3.795,-11.162 0.416,-6.41 4.862,-11.84 10.816,-13.707 l 11.257,-20.276 -5.858,-25.718 c -1.266,0.414 -2.617,0.64 -4.022,0.64 -7.019,0 -12.747,-5.632 -12.905,-12.615 l -5.993,-6.275 c -7.042,-0.088 -12.742,-5.845 -12.742,-12.908 0,-3.797 1.682,-7.345 4.476,-9.762 l 3.156,-49.74 -10.523,-15.647 -0.339,-0.411 c -8.216,-0.316 -14.804,-7.096 -14.804,-15.389 0,-0.377 0.014,-0.753 0.043,-1.129 l -35.221,-29.67 v 0 c -0.154,-0.131 -0.299,-0.267 -0.44,-0.41 -0.109,-0.104 -0.214,-0.21 -0.315,-0.318 -0.23,-0.244 -0.443,-0.501 -0.657,-0.786 -0.097,-0.128 -0.192,-0.259 -0.285,-0.399 -0.186,-0.279 -0.351,-0.565 -0.519,-0.895 l -0.222,-0.452 c -0.366,-0.83 -0.604,-1.704 -0.708,-2.603 l -0.063,-1.01 -5.28,4.13 -11.492,16.14 c 0.329,1.369 0.452,2.787 0.359,4.214 -0.481,7.396 -6.66,13.188 -14.068,13.188 m 8.435,-13.554 c 0.107,-1.656 -0.268,-3.269 -1.063,-4.682 l 27.636,-38.81 1.123,19.535 c 0,0.014 0.01,0.027 0.01,0.041 0.027,0.39 0.12,0.773 0.279,1.131 0.021,0.047 0.047,0.091 0.071,0.137 0.062,0.125 0.128,0.247 0.205,0.363 0.037,0.055 0.077,0.106 0.117,0.158 0.074,0.1 0.152,0.196 0.239,0.288 0.05,0.053 0.102,0.103 0.155,0.153 0.044,0.041 0.081,0.087 0.127,0.125 l 37.771,31.82 c -0.372,1.032 -0.585,2.139 -0.585,3.297 0,5.381 4.377,9.759 9.758,9.759 0.79,0 1.554,-0.105 2.29,-0.283 l 13.728,20.414 -3.454,54.441 c -2.525,1.139 -4.289,3.674 -4.289,6.619 0,4.005 3.259,7.262 7.263,7.262 0.688,0 1.351,-0.102 1.982,-0.281 l 9.707,10.166 c -0.138,0.559 -0.219,1.14 -0.219,1.741 0,4.005 3.258,7.263 7.262,7.263 3.897,0 7.078,-3.086 7.247,-6.941 l 43.705,-24.681 -7.511,13.527 -10.232,18.43 c -3.816,0.213 -6.857,3.375 -6.857,7.243 0,1.265 0.327,2.454 0.898,3.491 l -24.94,44.921 c -4.733,0.42 -8.556,4.256 -8.87,9.083 -0.169,2.601 0.685,5.113 2.405,7.071 1.565,1.783 3.68,2.905 6.008,3.221 l 4.195,12.667 7.575,22.876 c 0,0.001 0,0.001 0,0.001 l 0.178,0.535 0.049,-0.016 c 0.153,0.286 0.343,0.549 0.567,0.778 0.086,0.088 0.183,0.167 0.28,0.247 0.036,0.03 0.07,0.064 0.109,0.093 0.02,0.015 0.036,0.034 0.057,0.048 l 34.778,24.986 c -0.107,0.483 -0.19,0.975 -0.223,1.483 -0.294,4.52 2.559,8.521 6.671,9.885 l 1.156,34.79 c 0.031,0.935 0.453,1.825 1.159,2.44 l 40.504,35.334 -37.435,-13.613 c -0.374,-0.136 -0.764,-0.205 -1.158,-0.205 -1.174,0 -2.248,0.595 -2.871,1.592 l -56.008,89.514 c -0.369,-0.051 -0.743,-0.088 -1.126,-0.088 -1.852,0 -3.555,0.635 -4.917,1.689 l -98.828,-54.6 c 0.203,-0.891 0.318,-1.809 0.318,-2.746 0,-3.283 -1.279,-6.371 -3.601,-8.693 -2.322,-2.322 -5.409,-3.601 -8.693,-3.601 -3.283,0 -6.371,1.279 -8.693,3.601 -2.322,2.322 -3.601,5.41 -3.601,8.693 0,0.896 0.104,1.774 0.289,2.629 l -88.887,47.957 c -0.012,0.01 -0.022,0.017 -0.035,0.024 -0.011,0.01 -0.021,0.015 -0.032,0.021 -0.217,0.124 -0.411,0.272 -0.59,0.434 -0.054,0.049 -0.103,0.101 -0.153,0.152 -0.136,0.141 -0.257,0.29 -0.365,0.449 -0.03,0.044 -0.072,0.077 -0.099,0.122 l -42.703,69.244 c -0.303,-0.087 -0.608,-0.165 -0.918,-0.229 -0.082,-32.147 0.841,-115.025 1.092,-136.846 0.917,-0.381 1.759,-0.942 2.482,-1.665 2.995,-2.995 2.995,-7.87 0,-10.866 -1.451,-1.451 -3.381,-2.25 -5.433,-2.25 -0.882,0 -1.738,0.156 -2.546,0.44 l -33.142,-30.345 4.545,-33.132 c 1.981,-0.454 3.768,-1.504 5.134,-3.06 1.72,-1.959 2.574,-4.47 2.405,-7.071 -0.076,-1.156 -0.361,-2.25 -0.802,-3.259 l 21.34,-20.513 c 1.042,0.403 2.158,0.621 3.309,0.621 2.448,0 4.748,-0.953 6.479,-2.683 3.573,-3.573 3.573,-9.386 0,-12.958 -0.862,-0.863 -1.866,-1.532 -2.959,-1.986 l 1.244,-79.854 c 0.01,-0.566 -0.126,-1.131 -0.39,-1.633 l -16.576,-31.461 -0.216,-1.606 7.383,2.008 c 0.277,1.536 1.007,2.951 2.134,4.078 1.459,1.459 3.4,2.263 5.463,2.263 2.064,0 4.004,-0.804 5.464,-2.263 1.459,-1.459 2.262,-3.399 2.262,-5.463 0,-2.064 -0.803,-4.004 -2.262,-5.463 -0.128,-0.128 -0.264,-0.244 -0.398,-0.361 l 10.469,-47.451 c 2.891,-0.708 5.106,-3.224 5.307,-6.314 0.044,-0.682 -0.012,-1.355 -0.159,-2.003 l 18.091,-15.155 c 0.992,0.494 2.08,0.79 3.219,0.865 0.185,0.012 0.37,0.017 0.554,0.017 4.441,0 8.146,-3.473 8.434,-7.908 0.109,-1.68 -0.288,-3.276 -1.052,-4.648 l 37.252,-42.402 46.127,16.278 c 0.2,1.682 0.897,3.264 2.039,4.565 1.49,1.697 3.552,2.713 5.807,2.859 0.185,0.013 0.37,0.019 0.553,0.019 4.441,0 8.146,-3.474 8.435,-7.909"
         style="fill:#862633;fill-opacity:1;fill-rule:nonzero;stroke:none;stroke-opacity:1"
         id="path170"
         inkscape:connector-curvature="0" />
      <path
         d="m 604.42486,138.86543 c -1.188,0.518 -2.238,1.3 -3.072,2.277 l -48.096,-16.973 51.466,-67.239995 -0.09,24.761 z"
         style="fill:#862633;fill-opacity:1;fill-rule:nonzero;stroke:none;stroke-opacity:1"
         id="path174"
         inkscape:connector-curvature="0" />
      <path
         d="m 650.30186,82.384035 c -0.898,-0.34 -1.851,-0.549 -2.837,-0.614 -0.214,-0.013 -0.427,-0.02 -0.639,-0.02 -5.124,0 -9.399,4.008 -9.732,9.125 -0.155,2.399 0.578,4.651 1.911,6.444 l -27.795,39.032995 0.312,-85.931995 56.328,10.156 z"
         style="fill:#862633;fill-opacity:1;fill-rule:nonzero;stroke:none;stroke-opacity:1"
         id="path178"
         inkscape:connector-curvature="0" />
      <path
         d="m 675.41366,61.983635 24.209,4.901 -41.396,16.45 z"
         style="fill:#862633;fill-opacity:1;fill-rule:nonzero;stroke:none;stroke-opacity:1"
         id="path182"
         inkscape:connector-curvature="0" />
      <path
         d="m 456.99796,356.88353 c 0.022,-0.023 0.042,-0.048 0.064,-0.071 l 0.047,0.344 z"
         style="fill:#862633;fill-opacity:1;fill-rule:nonzero;stroke:none;stroke-opacity:1"
         id="path186"
         inkscape:connector-curvature="0" />
      <path
         d="m 442.68886,77.882035 c -0.186,-0.012 -0.37,-0.018 -0.554,-0.018 -1.784,0 -3.445,0.568 -4.818,1.527 l -24.956,-17.069 35.284,-2.682 88.786,-6.753 -88.075,27.711 c -1.479,-1.608 -3.48,-2.573 -5.667,-2.716"
         style="fill:#862633;fill-opacity:1;fill-rule:nonzero;stroke:none;stroke-opacity:1"
         id="path190"
         inkscape:connector-curvature="0" />
      <path
         d="m 505.49406,170.00073 -36.887,-41.89 88.339,-69.725995 -49.031,111.047995 c -0.847,0.07 -1.66,0.263 -2.421,0.568"
         style="fill:#862633;fill-opacity:1;fill-rule:nonzero;stroke:none;stroke-opacity:1"
         id="path194"
         inkscape:connector-curvature="0" />
      <path
         d="m 661.68126,89.252235 19.693,-7.826 111.238,36.972995 z"
         style="fill:#862633;fill-opacity:1;fill-rule:nonzero;stroke:none;stroke-opacity:1"
         id="path198"
         inkscape:connector-curvature="0" />
      <path
         d="m 565.21736,56.425035 c 3.126,-0.567 5.676,-2.868 6.585,-5.895 l 29.772,-0.632 -79.109,103.352995 z"
         style="fill:#862633;fill-opacity:1;fill-rule:nonzero;stroke:none;stroke-opacity:1"
         id="path202"
         inkscape:connector-curvature="0" />
      <path
         d="m 551.70946,126.19113 0.644,-0.841 -0.379,1.073 z"
         style="fill:#862633;fill-opacity:1;fill-rule:nonzero;stroke:none;stroke-opacity:1"
         id="path206"
         inkscape:connector-curvature="0" />
      <path
         d="m 929.84136,331.64183 c -0.099,0 -0.197,-0.01 -0.297,-0.016 -3.003,-0.195 -5.804,-1.308 -8.084,-3.183 l 28.607,45.249 2.622,-13.993 z m 21.852,55.186 -102.451,-162.047 73.41,89.168 c -0.407,0.906 -0.668,1.894 -0.736,2.937 -0.149,2.284 0.601,4.489 2.111,6.209 1.51,1.72 3.599,2.749 5.883,2.897 0.188,0.013 0.375,0.019 0.561,0.019 v 0 c 0.648,0 1.278,-0.081 1.887,-0.22 l 26.363,32.373 -5.346,28.531 c -0.569,0 -1.128,0.055 -1.682,0.133"
         style="fill:#862633;fill-opacity:1;fill-rule:nonzero;stroke:none;stroke-opacity:1"
         id="path210"
         inkscape:connector-curvature="0" />
      <path
         d="m 674.18266,54.833235 -23.808,-4.292 46.358,0.859 6.762,9.357 -29.31,-5.935 v 0.011 z"
         style="fill:#862633;fill-opacity:1;fill-rule:nonzero;stroke:none;stroke-opacity:1"
         id="path214"
         inkscape:connector-curvature="0" />
      <path
         d="m 829.69196,183.70143 c 0.24,-3.039 -0.638,-6.148 -2.642,-8.652 l 25.258,-28.712 c 0.918,0.287 1.893,0.442 2.905,0.442 0.659,0 1.303,-0.068 1.926,-0.193 l 14.205,36.979 c -1.846,1.777 -3.001,4.265 -3.001,7.024 0,5.381 4.378,9.758 9.759,9.758 1.27,0 2.481,-0.251 3.595,-0.695 l 33.741,31.218 -22.51,-12.382 z"
         style="fill:#862633;fill-opacity:1;fill-rule:nonzero;stroke:none;stroke-opacity:1"
         id="path218"
         inkscape:connector-curvature="0" />
      <path
         d="m 964.96686,355.10473 -27.127,-33.311 c 0.667,-1.124 1.086,-2.413 1.176,-3.796 0.149,-2.284 -0.601,-4.489 -2.111,-6.208 -0.522,-0.595 -1.117,-1.101 -1.762,-1.523 l 6.273,-62.757 c 0,-0.016 0,-0.032 0,-0.049 0,-0.038 0.001,-0.076 0,-0.114 0.01,-0.153 0.01,-0.305 -0.01,-0.454 0,-0.05 -0.011,-0.099 -0.018,-0.148 -0.018,-0.141 -0.044,-0.28 -0.079,-0.416 -0.013,-0.05 -0.025,-0.099 -0.04,-0.148 -0.044,-0.143 -0.098,-0.282 -0.161,-0.418 -0.016,-0.036 -0.029,-0.074 -0.047,-0.11 -0.086,-0.171 -0.185,-0.335 -0.299,-0.489 -0.011,-0.016 -0.026,-0.03 -0.037,-0.045 -0.104,-0.136 -0.22,-0.264 -0.344,-0.383 -0.016,-0.015 -0.028,-0.034 -0.044,-0.049 l -53.598,-49.591 c 0.707,-1.349 1.112,-2.881 1.112,-4.507 0,-5.38 -4.377,-9.758 -9.758,-9.758 -0.183,0 -0.361,0.018 -0.541,0.027 l -14.58,-37.955 c 1.243,-1.637 1.99,-3.672 1.99,-5.881 0,-5.381 -4.378,-9.759 -9.758,-9.759 -2.043,0 -3.94,0.634 -5.509,1.712 l -136.143,-65.855995 -12.329,-17.058 c -0.621,-0.858 -1.624,-1.383 -2.683,-1.402 l -89.907,-1.667 v -0.021 l -0.505,0.011 -0.489,-0.01 v 0.02 l -36.681,0.779 c -0.262,-0.436 -0.56,-0.854 -0.902,-1.244 -1.49,-1.697 -3.553,-2.713 -5.806,-2.86 -0.186,-0.011 -0.371,-0.017 -0.555,-0.017 -3.388,0 -6.342,2.024 -7.683,4.952 l -146.064,11.109 c -0.306,-0.572 -0.67,-1.116 -1.109,-1.615 -1.49,-1.698 -3.552,-2.714 -5.806,-2.86 -0.186,-0.012 -0.371,-0.018 -0.554,-0.018 -3.525,0 -6.579,2.192 -7.836,5.312 l -130.292,4.038 c -0.609,-0.683 -1.324,-1.276 -2.14,-1.747 -1.32,-0.762 -2.82,-1.165 -4.339,-1.165 -3.096,0 -5.981,1.665 -7.528,4.344 -1.16,2.01 -1.468,4.351 -0.868,6.592 0.601,2.241 2.039,4.115 4.048,5.275 1.32,0.762 2.82,1.165 4.339,1.165 1.22,0 2.403,-0.267 3.489,-0.745 l 74.295,29.696995 -1.711,158.412 c -1.178,0.455 -2.263,1.147 -3.183,2.067 -1.73,1.731 -2.683,4.032 -2.683,6.479 0,2.448 0.953,4.749 2.683,6.479 0.927,0.927 2.02,1.622 3.209,2.077 l 1.354,98.614 0.709,18.17 c -1.006,0.451 -1.935,1.078 -2.738,1.882 -1.731,1.73 -2.684,4.031 -2.684,6.479 0,2.447 0.953,4.748 2.684,6.479 0.894,0.894 1.943,1.576 3.084,2.031 l -0.16,223.869 c -0.679,0.35 -1.31,0.802 -1.866,1.358 -1.12,1.12 -1.801,2.511 -2.055,3.964 l -80.521,41.111 c -1.669,-1.502 -3.867,-2.425 -6.283,-2.425 -5.189,0 -9.41,4.222 -9.41,9.411 0,5.189 4.221,9.411 9.41,9.411 3.61,0 6.747,-2.046 8.324,-5.036 l 65.028,1.271 c 1.517,3.166 4.744,5.364 8.484,5.364 2.873,0 5.445,-1.298 7.173,-3.333 l 235.076,49.311 0.167,-0.794 20.82,17.163 c -0.169,0.649 -0.268,1.326 -0.268,2.027 0,4.441 3.612,8.054 8.053,8.054 4.441,0 8.054,-3.613 8.054,-8.054 0,-0.429 -0.044,-0.848 -0.109,-1.26 l 14.569,-9.796 31.213,0.557 c 0.196,0.313 0.408,0.618 0.652,0.904 1.286,1.507 3.082,2.422 5.057,2.578 0.197,0.016 0.393,0.023 0.588,0.023 3.841,0 7.086,-3.001 7.388,-6.832 0.1,-1.261 -0.121,-2.497 -0.626,-3.618 l 12.062,-19.816 115.488,-14.172 c 0.113,0.155 0.228,0.311 0.355,0.459 1.286,1.506 3.081,2.422 5.056,2.578 0.197,0.015 0.393,0.023 0.588,0.023 3.841,0 7.086,-3.001 7.388,-6.832 0.12,-1.514 -0.228,-2.958 -0.919,-4.193 l 31.619,-94.377 c 1.766,-0.392 3.39,-1.27 4.701,-2.581 1.967,-1.967 2.892,-4.58 2.797,-7.162 l 73.957,-39.531 c 1.675,1.352 3.8,2.166 6.115,2.166 5.381,0 9.759,-4.378 9.759,-9.758 0,-3.2 -1.555,-6.036 -3.942,-7.817 l 9.655,-51.444 c 3.569,-0.824 6.241,-4.023 6.241,-7.84 0,-2.761 -1.398,-5.201 -3.522,-6.652 l 13.207,-70.374 c 2.401,-0.455 4.611,-1.614 6.377,-3.379 2.322,-2.323 3.6,-5.409 3.6,-8.694 0,-3.283 -1.278,-6.371 -3.6,-8.693 -0.672,-0.671 -1.414,-1.245 -2.2,-1.736 l 5.751,-30.689 c 0.184,-0.981 -0.072,-1.988 -0.703,-2.763 m -707.07,-274.432995 c 0.083,0 0.165,-0.012 0.248,-0.014 -0.171,0 -0.341,0.001 -0.511,0 0.088,0 0.175,0.017 0.263,0.017 m 721.091,279.691995 -4.444,23.714 c 3.07,4.331 4.725,9.493 4.725,14.908 0,6.905 -2.688,13.394 -7.57,18.275 -1.215,1.215 -2.533,2.297 -3.942,3.237 l -10.756,57.313 c 1.696,3.139 2.606,6.679 2.606,10.274 0,6.411 -2.848,12.431 -7.627,16.482 l -7.352,39.175 c 1.967,3.484 3.024,7.435 3.024,11.443 0,12.853 -10.456,23.309 -23.307,23.309 -1.847,0 -3.709,-0.229 -5.519,-0.671 l -32.899,17.584 -0.092,0.05 -0.093,0.046 -10.213,5.117 -13.312,7.459 -0.068,0.039 -0.07,0.036 -5.923,3.167 c -1.157,2.888 -2.884,5.515 -5.099,7.731 -1.002,1.002 -2.087,1.904 -3.243,2.7 l -28.441,84.893 c 0.273,1.66 0.343,3.348 0.209,5.044 -0.855,10.83 -10.024,19.316 -20.875,19.316 -0.56,0 -1.128,-0.023 -1.687,-0.067 -2.909,-0.23 -5.707,-1.053 -8.242,-2.413 l -103.416,12.69 -6.029,9.903 c 0.01,0.651 -0.011,1.3 -0.062,1.948 -0.856,10.831 -10.03,19.316 -20.885,19.316 -0.555,0 -1.115,-0.022 -1.668,-0.066 -3.624,-0.286 -7.113,-1.519 -10.097,-3.535 l -21.735,-0.387 -5.953,4.003 c -2.81,8.791 -11.069,15.032 -20.582,15.032 -10.426,0 -19.068,-7.24 -21.134,-17.074 l -12.167,-10.031 -227.501,-47.722 c -3.156,1.578 -6.63,2.399 -10.219,2.399 -5.492,0 -10.737,-1.964 -14.866,-5.486 l -52.774,-1.031 c -4.016,3.159 -9.016,4.918 -14.196,4.918 -12.66,0 -22.96,-10.3 -22.96,-22.961 0,-12.66 10.3,-22.96 22.96,-22.96 2.066,0 4.135,0.286 6.129,0.84 l 70.22,-35.852 c 0.263,-0.417 0.539,-0.825 0.831,-1.224 l 0.15,-211.481 c -3.727,-4.169 -5.763,-9.488 -5.763,-15.121 0,-5.33 1.823,-10.379 5.175,-14.435 l -0.452,-11.566 v -0.1 l -0.001,-0.1 -1.267,-92.134 c -3.867,-4.204 -5.984,-9.622 -5.984,-15.365 0,-5.722 2.102,-11.121 5.939,-15.315 l 1.539,-142.506 -61.728,-24.673995 c -0.788,0.085 -1.583,0.128 -2.38,0.129 -3.919,0 -7.771,-1.029 -11.142,-2.975 -5.143,-2.97 -8.822,-7.765 -10.359,-13.502 -1.538,-5.737 -0.749,-11.73 2.221,-16.874 3.962,-6.858 11.343,-11.119 19.262,-11.119 3.753,0 7.46,0.958 10.748,2.773 l 119.301,-3.698 c 3.981,-3.501 9.19,-5.513 14.558,-5.513 0.475,0 0.957,0.016 1.431,0.047 4.104,0.266 8.006,1.663 11.306,4.006 l 134.025,-10.193 c 3.981,-3.484 9.084,-5.428 14.454,-5.428 0.482,0 0.968,0.016 1.444,0.047 4.056,0.264 7.937,1.645 11.222,3.956 l 17.729,-0.377 v -0.566 l 8.055,0.154 5.978,0.115 5.857,-0.108 7.832,-0.145 0.014,0.507 76.967,1.428 c 5.298,0.098 10.311,2.721 13.413,7.013 l 10.325,14.286 127.794,61.816995 c 1.595,-0.342 3.227,-0.515 4.88,-0.515 12.852,0 23.308,10.456 23.308,23.308 0,2.157 -0.29,4.265 -0.865,6.301 l 9.984,25.989 c 8.173,3.636 13.618,11.675 13.766,20.889 l 48.16,44.558 0.123,0.114 0.118,0.119 0.384,0.386 0.058,0.06 0.057,0.06 c 0.303,0.317 0.6,0.655 0.882,1.002 l 0.038,0.046 0.037,0.047 0.251,0.318 0.076,0.096 0.073,0.099 c 0.566,0.764 1.076,1.596 1.517,2.472 0.134,0.267 0.248,0.515 0.357,0.767 0.27,0.614 0.498,1.226 0.697,1.871 0.087,0.288 0.155,0.536 0.211,0.754 0.168,0.651 0.299,1.337 0.394,2.065 l 0.01,0.067 0.01,0.066 0.042,0.371 0.012,0.109 0.01,0.109 c 0.055,0.659 0.071,1.318 0.047,2.012 l -0.01,0.256 -0.025,0.255 -5.715,57.424 c 2.382,3.786 3.55,8.181 3.347,12.712 l 22.912,28.134 c 3.153,3.873 4.433,8.908 3.514,13.815"
         style="fill:#862633;fill-opacity:1;fill-rule:nonzero;stroke:none;stroke-opacity:1"
         id="path222"
         inkscape:connector-curvature="0" />
      <path
         d="m 927.65096,309.36013 -96.363,-117.048 64.003,35.208 39.161,21.543 -6.003,60.061 c -0.271,0.066 -0.537,0.145 -0.798,0.236"
         style="fill:#862633;fill-opacity:1;fill-rule:nonzero;stroke:none;stroke-opacity:1"
         id="path226"
         inkscape:connector-curvature="0" />
      <path
         d="m 711.28136,69.541735 97.029,46.935995 -117.152,-38.938995 z"
         style="fill:#862633;fill-opacity:1;fill-rule:nonzero;stroke:none;stroke-opacity:1"
         id="path230"
         inkscape:connector-curvature="0" />
      <path
         d="m 821.48446,171.11893 c -1.282,-0.445 -2.638,-0.689 -4.034,-0.689 -3.284,0 -6.371,1.278 -8.693,3.601 -0.545,0.545 -1.02,1.132 -1.441,1.746 l -105.684,-16.949 c -0.885,-4.476 -4.838,-7.863 -9.57,-7.863 -1.749,0 -3.388,0.469 -4.809,1.278 l -29.919,-25.204 188.297,11.807 c 0.229,1.204 0.684,2.327 1.312,3.332 l -8.981,10.209 z"
         style="fill:#862633;fill-opacity:1;fill-rule:nonzero;stroke:none;stroke-opacity:1"
         id="path234"
         inkscape:connector-curvature="0" />
      <path
         d="m 650.51036,119.82303 -1.087,-18.914 c 3.006,-0.832 5.454,-3.070995 6.547,-5.985995 l 157.86,35.139995 -145.466,-9.12 z"
         style="fill:#862633;fill-opacity:1;fill-rule:nonzero;stroke:none;stroke-opacity:1"
         id="path238"
         inkscape:connector-curvature="0" />
      <path
         d="m 458.92476,126.33523 0.125,0.55 0.027,0.117 -21.694,17.124 6.409,-49.509995 c 3.635,-0.725 6.464,-3.801 6.773,-7.611 l 98.418,-30.965 -88.656,69.975995 z"
         style="fill:#862633;fill-opacity:1;fill-rule:nonzero;stroke:none;stroke-opacity:1"
         id="path242"
         inkscape:connector-curvature="0" />
      <path
         d="m 347.73866,377.78833 0.404,10.316 48.117,-29.628 c 0.015,-0.081 0.031,-0.161 0.048,-0.241 l -49.678,-61.343 z m -4.937,18.213 -0.707,-18.067 -1.333,-97.26 61.935,76.48 c -0.811,1.411 -1.147,3.024 -0.995,4.601 l -57.058,35.133 c -0.58,-0.366 -1.197,-0.662 -1.842,-0.887"
         style="fill:#862633;fill-opacity:1;fill-rule:nonzero;stroke:none;stroke-opacity:1"
         id="path246"
         inkscape:connector-curvature="0" />
      <path
         d="m 409.38766,374.37323 c -1.246,0 -2.477,-0.173 -3.66,-0.511 l -23.085,14.215 49.656,-7.247 -17.481,-7.613 c -1.698,0.756 -3.547,1.156 -5.43,1.156 m -53.002,23.242 48.869,-30.091 c 1.225,0.78 2.645,1.203 4.133,1.203 1.858,0 3.612,-0.656 5.009,-1.851 l 38.306,16.682 z"
         style="fill:#862633;fill-opacity:1;fill-rule:nonzero;stroke:none;stroke-opacity:1"
         id="path250"
         inkscape:connector-curvature="0" />
      <path
         d="m 406.00236,308.93283 12.619,6.277 -7.832,31.719 -5.386,-37.526 c 0.206,-0.146 0.406,-0.303 0.599,-0.47"
         style="fill:#862633;fill-opacity:1;fill-rule:nonzero;stroke:none;stroke-opacity:1"
         id="path254"
         inkscape:connector-curvature="0" />
      <path
         d="m 391.49706,312.55003 c -1.745,-1.745 -2.952,-3.924 -3.525,-6.281 l -17.584,-8.747 25.234,31.161 -2.074,-14.454 c -0.735,-0.489 -1.423,-1.052 -2.051,-1.679 m 7.219,-2.057 5.404,37.653 -54.45,-67.236 43.584,21.681 c -0.139,2.143 0.601,4.333 2.235,5.967 0.916,0.915 2.021,1.572 3.227,1.935"
         style="fill:#862633;fill-opacity:1;fill-rule:nonzero;stroke:none;stroke-opacity:1"
         id="path258"
         inkscape:connector-curvature="0" />
      <path
         d="m 423.85536,633.32053 c 1.702,0 3.314,-0.572 4.624,-1.62 7.773,5.884 16.428,12.48 22.748,17.385 -0.624,1.54 -0.915,3.182 -0.89,4.82 l -55.314,15.73 -45.037,-231.788 16.408,38.485 15.492,37.49 36.612,106.939 c -2.783,2.904 -2.751,7.527 0.106,10.384 1.403,1.403 3.268,2.175 5.251,2.175"
         style="fill:#862633;fill-opacity:1;fill-rule:nonzero;stroke:none;stroke-opacity:1"
         id="path262"
         inkscape:connector-curvature="0" />
      <path
         d="m 446.40716,363.81663 c -1.613,-0.662 -3.085,-1.642 -4.355,-2.911 -3.979,-3.979 -4.968,-9.851 -2.821,-14.776 l -7.695,-18.968 -2.154,-3.717 -7.878,31.903 c 0.199,0.426 0.375,0.863 0.528,1.307 l 26.076,11.356 z m -29.31,-3.152 c -0.069,-1.624 -0.635,-3.156 -1.629,-4.422 l 10.382,-42.043 c 0.383,-1.552 -0.349,-3.133 -1.78,-3.845 l -15.412,-7.667 c -0.098,-1.91 -0.88,-3.694 -2.243,-5.056 -1.459,-1.46 -3.399,-2.263 -5.463,-2.263 -1.568,0 -3.064,0.467 -4.333,1.33 l -50.256,-25.001 c 0.121,-1.484 -0.119,-2.989 -0.715,-4.379 l 46.887,-46.939 c 0.626,0.223 1.277,0.359 1.94,0.408 l 51.033,125.795 c -2.463,3.031 -2.285,7.509 0.536,10.331 1.241,1.241 2.832,2.002 4.549,2.204 l 7.374,18.177 c -0.312,0.239 -0.616,0.493 -0.9,0.775 z"
         style="fill:#862633;fill-opacity:1;fill-rule:nonzero;stroke:none;stroke-opacity:1"
         id="path266"
         inkscape:connector-curvature="0" />
      <path
         d="m 395.55756,404.44943 22.552,3.202 c 2.656,-3.203 6.523,-5.224 10.814,-5.502 1.273,-0.087 2.524,-0.011 3.746,0.211 l 4.081,-3.923 z m 34.382,3.312 c -0.211,0 -0.424,0.01 -0.639,0.021 -3.813,0.248 -6.968,2.67 -8.357,5.973 l -65.01,-9.229 97.419,-14.218 -19.177,18.435 c -1.286,-0.625 -2.722,-0.982 -4.236,-0.982"
         style="fill:#862633;fill-opacity:1;fill-rule:nonzero;stroke:none;stroke-opacity:1"
         id="path270"
         inkscape:connector-curvature="0" />
      <path
         d="m 377.83296,471.49343 2.216,5.199 34.339,-51.322 -59.081,-8.387 z m -30.725,-61.377 73.564,10.443 c 0.373,1.131 0.944,2.166 1.674,3.07 l -43.402,64.867 -6.305,-14.789 -26.027,-62.983 c 0.175,-0.197 0.341,-0.399 0.496,-0.608"
         style="fill:#862633;fill-opacity:1;fill-rule:nonzero;stroke:none;stroke-opacity:1"
         id="path274"
         inkscape:connector-curvature="0" />
      <path
         d="m 415.61666,456.02123 -0.029,0.212 z m -23.539,25.029 32.459,-48.514 -3.71,27.048 z"
         style="fill:#862633;fill-opacity:1;fill-rule:nonzero;stroke:none;stroke-opacity:1"
         id="path278"
         inkscape:connector-curvature="0" />
      <path
         d="m 344.85396,648.88203 c 2.895,-2.895 2.895,-7.606 0,-10.501 -0.554,-0.555 -1.183,-1.006 -1.86,-1.354 l 0.141,-198.917 45.348,233.385 -53.424,15.192 c -0.839,-1.207 -1.95,-2.213 -3.247,-2.919 l 8.969,-32.812 c 1.535,-0.243 2.952,-0.953 4.073,-2.074"
         style="fill:#862633;fill-opacity:1;fill-rule:nonzero;stroke:none;stroke-opacity:1"
         id="path282"
         inkscape:connector-curvature="0" />
      <path
         d="m 318.32806,689.30153 -60.777,-1.187 76.762,-39.192 -9.296,34.007 c -3.189,0.81 -5.734,3.243 -6.689,6.372"
         style="fill:#862633;fill-opacity:1;fill-rule:nonzero;stroke:none;stroke-opacity:1"
         id="path286"
         inkscape:connector-curvature="0" />
      <path
         d="m 266.16786,68.915235 c 0.167,-0.535 0.281,-1.083 0.341,-1.637 l 124.183,-3.847 -52.016,34.465 z"
         style="fill:#862633;fill-opacity:1;fill-rule:nonzero;stroke:none;stroke-opacity:1"
         id="path290"
         inkscape:connector-curvature="0" />
      <path
         d="m 342.43456,103.53343 12.831,-8.501995 41.19,-27.292 -55.577,179.943995 z"
         style="fill:#862633;fill-opacity:1;fill-rule:nonzero;stroke:none;stroke-opacity:1"
         id="path294"
         inkscape:connector-curvature="0" />
      <path
         d="m 458.36566,642.18673 c -1.047,0.386 -2.037,0.914 -2.95,1.577 -7.359,-5.726 -17.279,-13.259 -24.167,-18.465 -0.135,-1.698 -0.846,-3.359 -2.143,-4.654 -0.021,-0.021 -0.044,-0.04 -0.065,-0.06 l 30.208,-97.833 c -0.352,32.133 -0.965,92.978 -0.883,119.435"
         style="fill:#862633;fill-opacity:1;fill-rule:nonzero;stroke:none;stroke-opacity:1"
         id="path298"
         inkscape:connector-curvature="0" />
      <path
         d="m 433.70066,85.773235 c -0.146,2.254 0.594,4.431 2.084,6.128 0,0 0.01,0.01 0.011,0.011 l -41.811,114.153995 c -2.239,0.317 -4.246,1.646 -5.393,3.632 -0.99,1.716 -1.253,3.714 -0.741,5.627 0.011,0.041 0.027,0.079 0.038,0.119 l -43.374,43.423 28.372,-91.859 30.556,-98.932995 c 1.28,-0.144 2.479,-0.575 3.527,-1.233 l 26.8,18.33 c -0.027,0.199 -0.056,0.398 -0.069,0.601"
         style="fill:#862633;fill-opacity:1;fill-rule:nonzero;stroke:none;stroke-opacity:1"
         id="path302"
         inkscape:connector-curvature="0" />
      <path
         d="m 423.40476,473.15993 -18.814,14.048 35.128,0.889 z m -35.257,19.28 35.623,-26.599 30.89,28.282 z"
         style="fill:#862633;fill-opacity:1;fill-rule:nonzero;stroke:none;stroke-opacity:1"
         id="path306"
         inkscape:connector-curvature="0" />
      <path
         d="m 457.84276,503.17113 c 0.091,0.091 0.188,0.171 0.283,0.256 l -34.446,111.554 -35.424,-103.468 c -0.022,-0.065 -0.048,-0.132 -0.074,-0.196 l -5.053,-12.227 73.173,1.852 c 0.37,0.807 0.877,1.565 1.541,2.229"
         style="fill:#862633;fill-opacity:1;fill-rule:nonzero;stroke:none;stroke-opacity:1"
         id="path310"
         inkscape:connector-curvature="0" />
      <path
         d="m 554.93516,423.10033 -0.326,23.615 -20.262,27.748 -68.466,1.723 51.3,-37.127 23.268,2.773 z"
         style="fill:#862633;fill-opacity:1;fill-rule:nonzero;stroke:none;stroke-opacity:1"
         id="path314"
         inkscape:connector-curvature="0" />
      <path
         d="m 651.97176,434.75703 3.533,-55.521 9.401,49.578 10.067,13.018 23.269,-2.773 51.299,37.127 -68.465,-1.723 z"
         style="fill:#862633;fill-opacity:1;fill-rule:nonzero;stroke:none;stroke-opacity:1"
         id="path318"
         inkscape:connector-curvature="0" />
      <path
         d="m 663.56896,271.29123 -51.955,34.887 0.287,24.399 53.267,27.587 -8.159,7.436 -49.298,-4.278 -49.298,4.278 -8.158,-7.436 53.267,-27.587 0.287,-24.399 -51.955,-34.887 -13.059,0.907 -1.364,-22.012 47.384,30.693 h 22.896 22.897 l 47.384,-30.693 -0.788,22.423 z"
         style="fill:#862633;fill-opacity:1;fill-rule:nonzero;stroke:none;stroke-opacity:1"
         id="path322"
         inkscape:connector-curvature="0" />
      <path
         d="m 583.20656,196.95923 h 48.206 l -23.789,20.822 z"
         style="fill:#862633;fill-opacity:1;fill-rule:nonzero;stroke:none;stroke-opacity:1"
         id="path326"
         inkscape:connector-curvature="0" />
    </g>
  </g>
</svg>
