<svg xmlns="http://www.w3.org/2000/svg" width="192" height="316" viewBox="0 0 192 316">
  <defs>
    <style>
      .cls-1, .cls-12 {
        fill: #fff;
      }

      .cls-1, .cls-10, .cls-4 {
        opacity: 0.74;
      }

      .cls-2 {
        fill: #b8c2e6;
      }

      .cls-3 {
        fill: #d2d8ff;
      }

      .cls-4, .cls-8 {
        fill: #5a67ff;
      }

      .cls-5 {
        fill: #4b5fef;
      }

      .cls-6 {
        fill: #7687ff;
      }

      .cls-7 {
        fill: #ebefff;
      }

      .cls-9 {
        fill: #1b2559;
      }

      .cls-10 {
        fill: #ccd8ff;
      }

      .cls-11 {
        fill: #dee5fc;
        opacity: 0.8;
      }
    </style>
  </defs>
  <g id="Layer_1" data-name="Layer 1">
    <g>
      <g>
        <polygon class="cls-1" points="161.68 222.37 50.52 158 10.11 181.41 121.26 245.78 161.68 222.37"/>
        <polyline class="cls-2" points="50.52 202.52 123.23 244.64 159.69 223.53 50.52 160.3"/>
        <polygon class="cls-3" points="121.26 292.59 10.1 228.22 10.11 181.41 121.26 245.78 121.26 292.59"/>
        <polygon class="cls-4" points="50.52 160.3 50.52 202.52 32.29 191.97 14.07 181.41 50.52 160.3"/>
      </g>
      <g>
        <polygon class="cls-1" points="161.68 163.85 50.53 99.48 10.11 122.89 121.26 187.26 161.68 163.85"/>
        <polyline class="cls-2" points="50.52 144 123.23 186.12 159.69 165.01 50.52 101.78"/>
        <polygon class="cls-3" points="121.26 234.07 10.1 169.71 10.11 122.89 121.26 187.26 121.26 234.07"/>
        <polygon class="cls-4" points="50.52 101.78 50.52 144 32.29 133.45 14.07 122.89 50.52 101.78"/>
      </g>
      <polyline class="cls-5" points="70.73 97.18 123.23 127.6 159.69 106.49 70.73 54.96"/>
      <polygon class="cls-6" points="161.68 105.33 70.74 52.67 30.32 76.07 121.26 128.74 161.68 105.33"/>
      <polygon class="cls-7" points="181.9 70.22 181.89 280.89 121.26 316 121.26 105.33 181.9 70.22"/>
      <polygon class="cls-3" points="171.79 169.71 131.37 193.11 131.37 239.93 171.79 216.52 171.79 169.71"/>
      <polygon class="cls-3" points="171.79 228.22 131.37 251.63 131.37 298.45 171.79 275.04 171.79 228.22"/>
      <polygon class="cls-8" points="192 122.89 151.58 146.3 151.58 193.11 192 169.7 192 122.89"/>
      <polygon class="cls-5" points="151.58 193.11 131.37 181.41 131.37 134.59 151.58 146.3 151.58 193.11"/>
      <polygon class="cls-5" points="121.26 175.56 30.32 122.89 30.32 76.07 121.26 128.74 121.26 175.56"/>
      <polyline class="cls-6" points="131.37 134.59 151.58 146.3 192 122.89 171.79 111.19"/>
      <polyline class="cls-5" points="133.35 133.44 151.58 144 188.03 122.89 169.81 112.33"/>
      <polygon class="cls-9" points="169.81 112.33 169.81 133.44 151.58 144 133.35 133.44 169.81 112.33"/>
      <polygon class="cls-9" points="70.73 54.96 70.73 97.18 52.51 86.63 34.28 76.07 70.73 54.96"/>
      <g>
        <polygon class="cls-10" points="121.26 105.33 0 35.11 0 245.78 121.26 316 121.26 105.33"/>
        <polygon class="cls-11" points="181.9 70.22 60.63 0 0 35.11 121.26 105.33 181.9 70.22"/>
      </g>
      <path class="cls-12" d="M166.87,169.18l4.35-2.47-.05-11.22c0-.68,0-1.38,0-1.38l-.05,0a10,10,0,0,1-.87,1.62l-1.59,2.44-2.12-1.11,4.95-7.64,3.14-1.74.12,17,4.35-2.47,0,3.13-12.29,7Z"/>
      <path class="cls-7" d="M145.58,218.78c0-7.34,9.32-13.48,9.29-17.48,0-1.75-1.37-2.09-3-1.21-2.32,1.23-3.57,4.29-3.57,4.29l-2.68-.41a15.18,15.18,0,0,1,6.54-7.51c3.47-1.83,6.45-1.23,6.49,2.55.07,6.43-8.86,12.32-8.93,16.19l9.37-5,0,3.13-13.34,7.21A13,13,0,0,1,145.58,218.78Z"/>
      <path class="cls-7" d="M147.85,270a4.94,4.94,0,0,0,4.55-.34c2.09-1.11,3.6-3.19,3.59-4.92,0-2.12-2-2.1-4.3-.87l-1.38.72-.81-1.46,3.61-6.28c.78-1.34,1.41-2.27,1.41-2.27v-.06s-.58.39-1.75,1l-5.91,3.07v-3.17l12.07-6.25,0,2.29-4.81,8.22c2.75-1,5.46-.48,5.51,3s-2.53,7.95-7,10.33c-4.28,2.28-6.66.82-6.66.82Z"/>
    </g>
  </g>
</svg>
