<svg xmlns="http://www.w3.org/2000/svg" width="192" height="316" viewBox="0 0 192 316">
  <defs>
    <style>
      .cls-1 {
        fill: #4b5fef;
      }

      .cls-2 {
        fill: #7687ff;
      }

      .cls-3 {
        fill: #1b2559;
      }

      .cls-12, .cls-4 {
        fill: #fff;
      }

      .cls-4, .cls-7, .cls-9 {
        opacity: 0.74;
      }

      .cls-5 {
        fill: #b8c2e6;
      }

      .cls-6 {
        fill: #d2d8ff;
      }

      .cls-11, .cls-7 {
        fill: #5a67ff;
      }

      .cls-8 {
        fill: #ebefff;
      }

      .cls-9 {
        fill: #ccd8ff;
      }

      .cls-10 {
        fill: #dee5fc;
        opacity: 0.8;
      }
    </style>
  </defs>
  <g id="Layer_1" data-name="Layer 1">
    <g>
      <g>
        <polyline class="cls-1" points="70.73 214.22 123.23 244.64 159.69 223.53 70.73 172"/>
        <polygon class="cls-2" points="161.68 222.37 70.74 169.7 30.32 193.11 121.26 245.78 161.68 222.37"/>
        <polygon class="cls-1" points="121.26 292.59 30.31 239.93 30.32 193.11 121.26 245.78 121.26 292.59"/>
        <polygon class="cls-3" points="70.73 172 70.73 214.22 52.51 203.67 34.28 193.11 70.73 172"/>
      </g>
      <g>
        <polygon class="cls-4" points="161.68 163.85 50.52 99.48 10.11 122.89 121.26 187.26 161.68 163.85"/>
        <polyline class="cls-5" points="50.52 144 123.23 186.12 159.69 165.01 50.52 101.78"/>
        <polygon class="cls-6" points="121.26 234.07 10.1 169.7 10.11 122.89 121.26 187.26 121.26 234.07"/>
        <polygon class="cls-7" points="50.52 101.78 50.52 144 32.29 133.44 14.07 122.89 50.52 101.78"/>
      </g>
      <g>
        <polygon class="cls-4" points="161.68 105.33 50.52 40.96 10.11 64.37 121.26 128.74 161.68 105.33"/>
        <polyline class="cls-5" points="50.52 85.48 123.23 127.6 159.69 106.49 50.52 43.26"/>
        <polygon class="cls-6" points="121.26 175.55 10.1 111.18 10.11 64.37 121.26 128.74 121.26 175.55"/>
        <polygon class="cls-7" points="50.52 43.26 50.52 85.48 32.29 74.92 14.07 64.37 50.52 43.26"/>
      </g>
      <polygon class="cls-8" points="181.9 70.22 181.89 280.89 121.26 316 121.26 105.33 181.9 70.22"/>
      <g>
        <polygon class="cls-9" points="121.26 105.33 0 35.11 0 245.78 121.26 316 121.26 105.33"/>
        <polygon class="cls-10" points="181.9 70.22 60.63 0 0 35.11 121.26 105.33 181.9 70.22"/>
      </g>
      <g>
        <polygon class="cls-6" points="171.79 169.71 131.37 193.11 131.37 239.93 171.79 216.52 171.79 169.71"/>
        <path class="cls-8" d="M145.58,218.78c0-7.34,9.32-13.48,9.28-17.48,0-1.75-1.36-2.09-3-1.21-2.32,1.23-3.57,4.29-3.57,4.29l-2.68-.41a15.18,15.18,0,0,1,6.54-7.51c3.47-1.83,6.44-1.23,6.49,2.55.07,6.43-8.86,12.32-8.93,16.19l9.37-5,0,3.13-13.34,7.21A13,13,0,0,1,145.58,218.78Z"/>
      </g>
      <polygon class="cls-6" points="171.79 111.18 131.37 134.59 131.37 181.41 171.79 158 171.79 111.18"/>
      <g id="front-drawerr">
        <polyline class="cls-2" points="131.37 251.63 151.58 263.33 192 239.93 171.79 228.22"/>
        <polygon class="cls-11" points="192 239.93 151.58 263.33 151.58 310.15 192 286.74 192 239.93"/>
        <polygon class="cls-1" points="151.58 310.15 131.37 298.44 131.37 251.63 151.58 263.33 151.58 310.15"/>
        <polyline class="cls-1" points="133.35 250.48 151.58 261.04 188.03 239.93 169.81 229.37"/>
        <polygon class="cls-3" points="169.81 229.37 169.81 250.48 151.58 261.04 133.35 250.48 169.81 229.37"/>
        <path class="cls-12" d="M167.44,283.32A5,5,0,0,0,172,283c2.08-1.11,3.6-3.19,3.58-4.92,0-2.12-2-2.09-4.29-.87l-1.38.72-.82-1.45,3.62-6.29c.77-1.34,1.41-2.27,1.41-2.27v-.06a19.72,19.72,0,0,1-1.76,1l-5.91,3.07v-3.17l12.07-6.25,0,2.29L173.73,273c2.75-1,5.46-.48,5.5,3s-2.52,8-7,10.34c-4.27,2.27-6.65.81-6.65.81Z"/>
      </g>
      <path class="cls-8" d="M147.66,155,152,152.5l0-11.22c0-.68,0-1.38,0-1.38l-.06,0a9.35,9.35,0,0,1-.86,1.62L149.47,144l-2.13-1.1,5-7.65,3.14-1.74.12,17,4.35-2.47,0,3.13-12.29,7Z"/>
    </g>
  </g>
</svg>
