<svg xmlns="http://www.w3.org/2000/svg" width="192" height="316" viewBox="0 0 192 316">
  <defs>
    <style>
      .cls-1, .cls-12 {
        fill: #fff;
      }

      .cls-1, .cls-4, .cls-9 {
        opacity: 0.74;
      }

      .cls-2 {
        fill: #b8c2e6;
      }

      .cls-3 {
        fill: #d2d8ff;
      }

      .cls-11, .cls-4 {
        fill: #5a67ff;
      }

      .cls-5 {
        fill: #4b5fef;
      }

      .cls-6 {
        fill: #7687ff;
      }

      .cls-7 {
        fill: #1b2559;
      }

      .cls-8 {
        fill: #ebefff;
      }

      .cls-9 {
        fill: #ccd8ff;
      }

      .cls-10 {
        fill: #dee5fc;
        opacity: 0.8;
      }
    </style>
  </defs>
  <g id="Layer_1" data-name="Layer 1">
    <g>
      <g>
        <polygon class="cls-1" points="161.68 222.37 50.52 158 10.11 181.41 121.26 245.78 161.68 222.37"/>
        <polyline class="cls-2" points="50.52 202.52 123.23 244.64 159.69 223.53 50.52 160.3"/>
        <polygon class="cls-3" points="121.26 292.59 10.1 228.22 10.11 181.41 121.26 245.78 121.26 292.59"/>
        <polygon class="cls-4" points="50.52 160.3 50.52 202.52 32.29 191.97 14.07 181.41 50.52 160.3"/>
      </g>
      <polyline class="cls-5" points="70.73 155.7 123.23 186.12 159.69 165.01 70.73 113.48"/>
      <polygon class="cls-6" points="161.68 163.85 70.74 111.18 30.32 134.59 121.26 187.26 161.68 163.85"/>
      <polygon class="cls-5" points="121.26 234.07 30.31 181.41 30.32 134.59 121.26 187.26 121.26 234.07"/>
      <polygon class="cls-7" points="70.73 113.48 70.73 155.7 52.51 145.15 34.28 134.59 70.73 113.48"/>
      <g>
        <polygon class="cls-1" points="161.68 105.33 50.52 40.96 10.11 64.37 121.26 128.74 161.68 105.33"/>
        <polyline class="cls-2" points="50.52 85.48 123.23 127.6 159.69 106.49 50.52 43.26"/>
        <polygon class="cls-3" points="121.26 175.55 10.1 111.18 10.11 64.37 121.26 128.74 121.26 175.55"/>
        <polygon class="cls-4" points="50.52 43.26 50.52 85.48 32.29 74.92 14.07 64.37 50.52 43.26"/>
      </g>
      <polygon class="cls-8" points="181.9 70.22 181.89 280.89 121.26 316 121.26 105.33 181.9 70.22"/>
      <g>
        <polygon class="cls-9" points="121.26 105.33 0 35.11 0 245.78 121.26 316 121.26 105.33"/>
        <polygon class="cls-10" points="181.9 70.22 60.63 0 0 35.11 121.26 105.33 181.9 70.22"/>
      </g>
      <g>
        <polygon class="cls-3" points="171.79 228.22 131.37 251.63 131.37 298.45 171.79 275.04 171.79 228.22"/>
        <path class="cls-8" d="M147.85,270a4.94,4.94,0,0,0,4.55-.34c2.09-1.11,3.6-3.19,3.58-4.92,0-2.12-2-2.1-4.29-.87l-1.38.72-.82-1.46,3.62-6.28c.78-1.34,1.41-2.27,1.41-2.27v-.06s-.58.39-1.75,1l-5.92,3.07v-3.17l12.07-6.25,0,2.29-4.81,8.22c2.75-1,5.46-.48,5.5,3s-2.52,7.95-7,10.33c-4.27,2.28-6.65.82-6.65.82Z"/>
      </g>
      <polygon class="cls-3" points="171.79 111.18 131.37 134.59 131.37 181.41 171.79 158 171.79 111.18"/>
      <g id="front-drawerr">
        <polyline class="cls-6" points="131.37 193.11 151.58 204.82 192 181.41 171.79 169.71"/>
        <polygon class="cls-11" points="192 181.41 151.58 204.82 151.58 251.63 192 228.22 192 181.41"/>
        <polygon class="cls-5" points="151.58 251.63 131.37 239.93 131.37 193.11 151.58 204.82 151.58 251.63"/>
        <polyline class="cls-5" points="133.35 191.96 151.58 202.52 188.03 181.41 169.81 170.85"/>
        <polygon class="cls-7" points="169.81 170.85 169.81 191.96 151.58 202.52 133.35 191.96 169.81 170.85"/>
        <g>
          <path class="cls-12" d="M165.65,229.37c0-7.33,9.32-13.48,9.29-17.47,0-1.76-1.37-2.1-3-1.21-2.32,1.22-3.57,4.28-3.57,4.28l-2.68-.41a15.13,15.13,0,0,1,6.54-7.5c3.47-1.83,6.45-1.24,6.49,2.54.07,6.43-8.86,12.32-8.93,16.19l9.37-5,0,3.13-13.34,7.21A13,13,0,0,1,165.65,229.37Z"/>
          <path class="cls-8" d="M165.65,229.37c0-7.33,9.32-13.48,9.29-17.47,0-1.76-1.37-2.1-3-1.21-2.32,1.22-3.57,4.28-3.57,4.28l-2.68-.41a15.13,15.13,0,0,1,6.54-7.5c3.47-1.83,6.45-1.24,6.49,2.54.07,6.43-8.86,12.32-8.93,16.19l9.37-5,0,3.13-13.34,7.21A13,13,0,0,1,165.65,229.37Z"/>
        </g>
      </g>
      <path class="cls-8" d="M147.65,155,152,152.5l0-11.22c0-.68,0-1.38,0-1.38l-.06,0a9.35,9.35,0,0,1-.86,1.62L149.47,144l-2.13-1.1,4.95-7.65,3.15-1.74.12,17,4.35-2.47,0,3.13-12.29,7Z"/>
    </g>
  </g>
</svg>
