<svg xmlns="http://www.w3.org/2000/svg" width="192" height="316" viewBox="0 0 192 316">
  <defs>
    <style>
      .cls-1, .cls-12 {
        fill: #fff;
      }

      .cls-1, .cls-4, .cls-9 {
        opacity: 0.74;
      }

      .cls-2 {
        fill: #b8c2e6;
      }

      .cls-3 {
        fill: #d2d8ff;
      }

      .cls-11, .cls-4 {
        fill: #5a67ff;
      }

      .cls-5 {
        fill: #4b5fef;
      }

      .cls-6 {
        fill: #7687ff;
      }

      .cls-7 {
        fill: #1b2559;
      }

      .cls-8 {
        fill: #ebefff;
      }

      .cls-9 {
        fill: #ccd8ff;
      }

      .cls-10 {
        fill: #dee5fc;
        opacity: 0.8;
      }
    </style>
  </defs>
  <g id="Layer_1" data-name="Layer 1">
    <g>
      <g>
        <polygon class="cls-1" points="30.32 222.37 141.47 158 181.89 181.41 70.74 245.78 30.32 222.37"/>
        <polyline class="cls-2" points="141.48 202.52 68.77 244.64 32.31 223.53 141.48 160.3"/>
        <polygon class="cls-3" points="70.74 292.59 181.9 228.22 181.89 181.41 70.74 245.78 70.74 292.59"/>
        <polygon class="cls-4" points="141.48 160.3 141.48 202.52 159.71 191.97 177.93 181.41 141.48 160.3"/>
      </g>
      <polyline class="cls-5" points="121.27 155.7 68.77 186.12 32.31 165.01 121.27 113.48"/>
      <polygon class="cls-6" points="30.32 163.85 121.26 111.18 161.68 134.59 70.74 187.26 30.32 163.85"/>
      <polygon class="cls-5" points="70.74 234.07 161.69 181.41 161.68 134.59 70.74 187.26 70.74 234.07"/>
      <polygon class="cls-7" points="121.27 113.48 121.27 155.7 139.5 145.15 157.72 134.59 121.27 113.48"/>
      <g>
        <polygon class="cls-1" points="30.32 105.33 141.47 40.96 181.89 64.37 70.74 128.74 30.32 105.33"/>
        <polyline class="cls-2" points="141.48 85.48 68.77 127.6 32.31 106.49 141.48 43.26"/>
        <polygon class="cls-3" points="70.74 175.55 181.9 111.18 181.89 64.37 70.74 128.74 70.74 175.55"/>
        <polygon class="cls-4" points="141.48 43.26 141.48 85.48 159.71 74.92 177.93 64.37 141.48 43.26"/>
      </g>
      <polygon class="cls-8" points="10.11 70.22 10.11 280.89 70.74 316 70.74 105.33 10.11 70.22"/>
      <g>
        <polygon class="cls-9" points="70.74 105.33 192 35.11 192 245.78 70.74 316 70.74 105.33"/>
        <polygon class="cls-10" points="10.11 70.22 131.37 0 192 35.11 70.74 105.33 10.11 70.22"/>
      </g>
      <g>
        <polygon class="cls-3" points="20.21 228.22 60.63 251.63 60.63 298.45 20.21 275.04 20.21 228.22"/>
        <path class="cls-8" d="M33.74,265.64a16.52,16.52,0,0,0,4.6,4.93c2.12,1.32,3.66,1,3.66-.75,0-2.14-2-4.37-4.34-5.85l-1.4-.88-.82-2.4,3.71-2.09a7.93,7.93,0,0,1,1.46-.63v-.06s-.6-.29-1.8-1l-6-3.78v-3.17l12.38,7.72V260l-5,2.65c2.8,2.15,5.54,5.86,5.54,9.38s-2.64,5-7.16,2.2a22,22,0,0,1-6.72-6.91Z"/>
      </g>
      <polygon class="cls-3" points="20.21 111.18 60.63 134.59 60.63 181.41 20.21 158 20.21 111.18"/>
      <g id="front-drawerr">
        <polyline class="cls-6" points="60.63 193.11 40.42 204.82 0 181.41 20.21 169.71"/>
        <polygon class="cls-11" points="0 181.41 40.42 204.82 40.42 251.63 0 228.22 0 181.41"/>
        <polygon class="cls-5" points="40.42 251.63 60.63 239.93 60.63 193.11 40.42 204.82 40.42 251.63"/>
        <polyline class="cls-5" points="58.65 191.96 40.42 202.52 3.97 181.41 22.19 170.85"/>
        <polygon class="cls-7" points="22.19 170.85 22.19 191.96 40.42 202.52 58.65 191.96 22.19 170.85"/>
        <path class="cls-12" d="M13.39,220.52c0-7.56,9.51-3.1,9.51-7.4a6,6,0,0,0-3.07-4.79c-2.36-1.36-3.65.4-3.65.4l-2.73-3.48s1.87-3.16,6.7-.43c3.56,2,6.57,6.05,6.57,10.19,0,7.05-9.08,2.71-9.18,6.68L27,227.61V231l-13.48-8.55A19,19,0,0,1,13.39,220.52Z"/>
      </g>
      <path class="cls-8" d="M32.29,147.62l4.4,2.95,0-11.26c0-.69,0-1.36,0-1.36l-.06,0a1.72,1.72,0,0,1-.88.55l-1.63.45L32,135.19l5.09-1.49,3.22,2.15V153l4.4,3v3.17l-12.42-8.31Z"/>
    </g>
  </g>
</svg>
