<?xml version="1.0" encoding="UTF-8"?>
<svg width="19px" height="24px" viewBox="0 0 19 24" version="1.1" xmlns="http://www.w3.org/2000/svg" xmlns:xlink="http://www.w3.org/1999/xlink">
    <!-- Generator: Sketch 60.1 (88133) - https://sketch.com -->
    <desc>Created with Sketch.</desc>
    <defs>
        <path d="M17.8413132,12.8764646 C17.8413132,12.8764646 16.6555879,12.5091919 15.661533,12.2855556 C15.661533,12.2855556 15.3477198,10.3246465 14.8939121,8.23646465 C14.8939121,8.23646465 15.1560495,8.21373737 15.3383242,8.8710101 L16.0223242,12.0219192 C16.0223242,12.0219192 17.2343571,12.2991919 18.1795549,12.6537374 L17.8413132,12.8764646 Z M15.2603407,6.10282828 L15.5328132,5.80555556 C16.0627253,5.87828283 16.3483516,6.02828283 16.3483516,6.02828283 L16.291978,6.11191919 L16.3972088,6.9310101 C16.2440604,6.93646465 16.0091703,7.05919192 16.0091703,7.05919192 L15.8315934,6.95010101 L15.8315934,6.38282828 C15.3026209,6.29919192 15.2556429,6.21828283 15.2556429,6.21828283 L15.2603407,6.10282828 Z M12.4557527,18.2873737 C11.2831813,18.4964646 9.84565385,18.2237374 9.84565385,18.2237374 L9.89732967,17.9991919 C9.89732967,17.9991919 11.6496099,18.1955556 12.6248736,17.8973737 C12.5553462,18.0628283 12.5356154,18.1137374 12.4557527,18.2873737 L12.4557527,18.2873737 Z M9.18984066,14.5464646 C8.379,15.1364646 7.56064286,15.6791919 7.00442308,16.1091919 C6.9705989,16.6955556 6.91516484,17.6464646 6.91516484,17.6464646 L5.46448352,18.5182828 L5.22207692,18.3737374 C5.27845055,17.9219192 5.34891758,17.5882828 5.34891758,17.5882828 L5.55186264,17.4410101 C5.50676374,17.7282828 5.48515385,18.1346465 5.48515385,18.1346465 L6.5928956,17.440101 C6.63705495,16.7019192 6.72443407,15.960101 6.72443407,15.960101 C6.9705989,15.7373737 8.73697253,14.5237374 10.0100803,13.6864646 C10.0100803,13.6864646 10.018533,13.9437374 9.18984066,14.5464646 L9.18984066,14.5464646 Z M14.977533,0.195555556 C15.2612802,0.167373737 15.5065055,0.184646465 15.7103901,0.228282828 L15.7103901,0.228282828 L15.8813901,0.697373737 L16.1003077,0.361919192 C16.2694286,0.447373737 16.3746593,0.547373737 16.4056648,0.624646465 C16.4056648,0.624646465 16.3615055,0.909191919 16.4319725,1.36464646 C16.5005604,1.80373737 16.6988077,2.78191919 16.6988077,2.78191919 C16.9740989,3.00646465 17.2850934,3.51282828 17.2850934,3.51282828 C17.4758242,4.41737374 17.4645495,5.04919192 17.4636099,5.1210101 C16.6734396,4.68646465 15.6173736,4.58555556 15.6173736,4.58555556 L15.6173736,4.58555556 L15.2481264,4.90828283 C15.9753462,5.00828283 16.8792033,5.26555556 17.1122143,5.44555556 C17.2484505,5.74737374 17.3386484,6.22828283 17.3386484,6.22828283 L17.3386484,6.22828283 L17.0445659,6.58919192 L17.3198571,6.8810101 C17.3386484,7.22464646 17.2183846,7.56919192 17.2183846,7.56919192 C17.7905769,7.93010101 17.9512418,8.79373737 18.3101538,10.250101 C18.6700055,11.7064646 18.9903956,12.9055556 18.9903956,12.9055556 L18.9903956,12.9055556 L18.4567253,13.2019192 C19.1623352,15.7282828 18.444511,17.7391919 17.5378352,19.0664646 C16.6320989,20.3946465 16.0862143,21.7137374 16.1031264,22.8910101 L16.1031264,22.8910101 L16.5475385,23.2346465 L16.7749121,23.9491919 L14.3048077,23.9491919 L14.293533,23.2728283 C14.2925934,21.5619192 14.9230385,20.1328283 14.9230385,20.1328283 C15.2857088,20.0473737 15.6596538,19.7628283 15.6596538,19.7628283 C15.0733681,19.8828283 14.3414505,19.7964646 14.3414505,19.7964646 C14.8676044,18.8537374 15.0292088,18.1773737 15.0292088,18.1773737 L15.0292088,18.1773737 L14.7811648,18.1228283 C14.6956648,18.310101 14.6073462,18.4937374 14.5133901,18.6710101 C13.8754286,19.8864646 13.1735769,20.6628283 12.7554725,22.4055556 L12.7554725,22.4055556 L13.1933077,22.7455556 L13.6987912,23.9491919 L10.8509835,23.9491919 C10.8340714,21.8246465 11.495522,20.2273737 11.7341703,19.7628283 C10.2233571,19.9264646 8.42128022,19.1782828 6.99314835,19.4664646 C6.60041209,21.9473737 4.59257143,22.4355556 3.65019231,22.300101 L3.65019231,22.300101 L2.97652747,23.4146465 L3.58724176,23.9491919 L1.33135714,23.9491919 C1.32008242,23.8546465 1.2918956,23.7537374 1.22988462,23.6591919 C1.22988462,23.6591919 1.97401648,22.5882828 2.48231868,21.150101 C2.89008791,21.3255556 3.75166484,20.9928283 3.78736813,20.1055556 C3.82401099,19.2191919 3.67086264,17.8419192 4.46854945,16.7891919 C5.2652967,15.7355556 6.12687363,15.1655556 7.25152747,14.3328283 C7.98250549,13.7910101 9.22084615,12.8755556 9.99974176,12.3010101 L9.99974176,12.3010101 L9.61546154,12.3864646 L6.81087363,14.6491919 L5.82997253,14.6491919 L8.66368681,12.1164646 L8.29725824,12.1091919 L5.33576374,14.6491919 L4.34170879,14.6491919 L7.27313736,11.720101 L6.9208022,11.7173737 L3.88038462,14.6491919 L2.86565934,14.6491919 L5.8093022,11.3037374 L5.46918132,11.3055556 L2.43534066,14.6491919 L1.36706044,14.6491919 L4.22614286,10.8528283 L3.89635714,10.8573737 L0.963989011,14.6491919 L0,14.6491919 C0,14.6491919 4.11809341,8.22464646 4.92893407,7.00737374 C5.73883516,5.79010101 6.6192033,4.62282828 8.06894505,4.38464646 C9.53465934,4.14282828 10.5343516,4.46646465 11.2502967,5.63373737 C11.636456,6.2610101 12.1034176,6.97828283 12.4698462,7.55919192 C12.0968407,8.1510101 11.6298791,8.6110101 11.5857198,9.32282828 C11.534044,10.1419192 12.0921429,10.6373737 12.6558791,10.6773737 C12.2321374,10.5282828 11.8976538,10.0337374 12.0489231,9.37646465 C12.2058297,8.69737374 12.7554725,8.35191919 13.1726374,7.80282828 C13.5315495,7.32828283 13.5371868,6.63282828 13.5108791,6.4010101 C13.4836319,6.16919192 13.2167967,5.98828283 13.2167967,5.98828283 C13.2167967,5.98828283 13.2252527,5.52373737 13.2167967,5.01646465 C13.2083407,4.51010101 13.4300769,4.21828283 13.4300769,4.21828283 C13.4300769,4.21828283 13.4216209,3.4610101 13.3943736,2.57646465 C13.3671264,1.72555556 13.2863242,1.46828283 13.205522,1.35464646 C13.205522,1.35464646 13.2694121,1.10919192 13.5099396,0.844646465 L13.5099396,0.844646465 L13.7542253,1.06282828 L13.8284505,0.571919192 C13.9825385,0.469191919 14.1723297,0.375555556 14.4072198,0.307373737 C14.4325879,0.30010101 14.4570165,0.294646465 14.4823846,0.288282828 L14.4823846,0.288282828 L14.7896209,0.644646465 Z M7.71628243,19.8937938 C8.32897736,19.8402566 9.02386307,19.9393405 9.75797621,20.0432188 L9.75797621,20.0432188 L9.86538462,20.058401 C9.7449004,20.8103202 9.02106112,21.7691969 7.79193531,22.0896215 L7.79193531,22.0896215 L9.01358923,23.5151515 L7.36136769,23.5151515 C7.15589073,23.2226941 6.50396838,22.32135 6.16586538,21.9681638 C6.72065317,21.6525335 7.42954868,21.0388524 7.71628243,19.8937938 Z" id="path-1"></path>
    </defs>
    <g id="Symbols" stroke="none" stroke-width="1" fill="none" fill-rule="evenodd">
        <g id="nav-/-primary-/-1440" transform="translate(-128.000000, -14.000000)">
            <g id="icon/lamassu-logo" transform="translate(128.000000, 14.000000)">
                <g id="color/amaz/default">
                    <mask id="mask-2" fill="white">
                        <use xlink:href="#path-1"></use>
                    </mask>
                    <use id="Mask" fill="#16D6D3" xlink:href="#path-1"></use>
                </g>
            </g>
        </g>
    </g>
</svg>