<?xml version="1.0" encoding="UTF-8" standalone="no"?>
<!-- Generator: Adobe Illustrator 26.2.1, SVG Export Plug-In . SVG Version: 6.00 Build 0)  -->

<svg
   version="1.1"
   id="Layer_1"
   x="0px"
   y="0px"
   viewBox="0 0 539.28 152.22998"
   xmlSpace="preserve"
   width="539.28003"
   height="152.23"
   xmlns="http://www.w3.org/2000/svg"
   xmlnsSvg="http://www.w3.org/2000/svg"><defs
   id="defs99" />
<style
   type="text/css"
   id="style2">
	.st0{fill:#E73061;}
	.st1{fill:#232650;}
</style>
<g
   id="g8"
   transform="translate(-28.244985,-56.770002)">
	<path
   class="st1"
   d="m 110.17,95.83 c -0.63,0 -1.14,0.51 -1.14,1.14 -0.01,0.97 -1.63,2.05 -3.94,2.05 h -1.29 c -0.63,0 -1.14,0.52 -1.14,1.14 0,0.63 0.51,1.14 1.14,1.14 h 1.29 c 3.48,0 6.22,-1.91 6.22,-4.34 0,-0.61 -0.51,-1.13 -1.14,-1.13"
   id="path4" />
	<path
   class="st1"
   d="m 145.86,103.5 c -0.36,1.3 -0.97,2.47 -1.83,3.49 l -16.84,20.13 -0.08,-9.89 c 0,-0.72 -0.04,-1.45 -0.13,-2.17 l -0.03,-0.28 0.18,-0.21 16.75,-19.98 0.49,0.66 c 0.64,0.86 1.11,1.81 1.43,2.85 0.02,0.06 0.03,0.11 0.05,0.17 l 0.05,0.2 c 0.04,0.13 0.07,0.26 0.1,0.39 0.32,1.52 0.28,3.13 -0.14,4.64 m 11.53,65.67 -0.15,0.05 -0.6,0.2 c -0.79,0.27 -1.61,0.44 -2.44,0.5 -0.28,0.02 -0.56,0.03 -0.83,0.03 -0.91,0 -1.83,-0.12 -2.72,-0.36 -2.68,-0.72 -4.9,-2.45 -6.27,-4.84 l -15.39,-27.52 -1.75,-3.53 -0.02,-2.59 0.03,-0.04 4.98,-5.95 0.09,0.16 z m -16.59,-5.21 -0.6,0.19 c -0.25,0.08 -0.51,0.15 -0.77,0.21 -0.02,0 -0.04,0.01 -0.06,0.02 v 0 c -0.19,0.04 -0.37,0.08 -0.56,0.11 -0.47,0.07 -0.95,0.11 -1.42,0.11 -0.82,0 -1.63,-0.11 -2.43,-0.32 -2.4,-0.65 -4.39,-2.19 -5.62,-4.35 l -6.75,-11.87 1.09,-0.02 c 1.17,-0.02 2.31,-0.35 3.33,-0.96 l 0.05,-0.03 3.22,-1.96 0.11,-0.07 10.57,18.9 z m -14.99,-53.29 c -1.07,-2.46 -2.75,-4.46 -4.87,-5.79 l -0.63,-0.4 22.72,-27.09 0.5,0.52 c 1.48,1.56 2.36,3.52 2.56,5.68 0.23,2.53 -0.55,5 -2.18,6.94 l -17.67,21.09 z m -12.54,-8.02 c -0.74,1.39 -1.6,2.46 -2.57,3.21 -1.33,1.02 -2.6,1.24 -3.44,1.25 -0.2,0 -0.73,0 -1.21,0 -0.37,0 -0.72,0 -0.87,0 -0.81,-0.01 -2.05,-0.22 -3.35,-1.19 -0.25,-0.19 -0.5,-0.4 -0.74,-0.63 -0.71,-0.69 -1.35,-1.57 -1.91,-2.63 -0.01,-0.02 -0.86,-1.74 -1.6,-4.39 C 96.86,95.68 96.5,93.12 96.5,90.65 L 96.46,90.03 95.9,89.68 C 95.48,89.42 95.11,88.96 94.8,88.3 94.69,88.07 94.58,87.81 94.48,87.53 94.32,87.07 94.18,86.54 94.06,85.96 93.97,85.54 93.9,85.08 93.84,84.6 93.77,84.09 93.72,83.54 93.68,82.96 93.61,81.94 93.59,80.84 93.62,79.68 l 0.02,-0.93 0.86,0.34 c 1.7,0.67 4.17,1.83 6.26,3.56 0.53,0.41 0.89,0.76 1.48,1.4 0.81,0.88 1.8,2.07 2.18,3.48 0.07,0.25 0.16,0.75 0.28,1.49 l 0.07,0.44 h -2.12 c -0.61,0 -1.11,0.48 -1.14,1.09 -0.03,0.61 0.43,1.13 1.04,1.19 0.09,0.01 2.13,0.22 2.62,2.22 0.13,0.51 0.58,0.87 1.11,0.87 0.53,0 0.98,-0.36 1.11,-0.87 0.47,-1.93 2.46,-2.2 2.68,-2.22 0.62,-0.05 1.08,-0.58 1.05,-1.19 -0.03,-0.61 -0.53,-1.09 -1.14,-1.09 h -2.32 l 0.08,-0.45 c 0.14,-0.74 0.24,-1.24 0.31,-1.49 0.31,-1.1 0.99,-2.2 2.15,-3.45 0.5,-0.59 1.2,-1.18 1.53,-1.43 2.08,-1.71 4.54,-2.87 6.22,-3.54 l 0.86,-0.35 0.02,0.93 c 0.03,1.12 0,2.21 -0.06,3.23 -0.32,4.86 -1.53,6.32 -2.23,6.76 l -0.56,0.35 -0.04,0.65 c 0,6.23 -2.56,11.75 -2.67,11.98 M 98.53,77.07 c 0.97,-0.63 2.01,-1.14 3.1,-1.5 0.44,-0.15 0.9,-0.27 1.36,-0.37 0.38,-0.08 0.77,-0.15 1.15,-0.19 0.02,0 2.32,-0.17 3.99,-0.02 1.13,0.11 3.39,0.52 5.78,2.09 l 0.91,0.6 -0.96,0.52 c -0.52,0.28 -1,0.55 -1.46,0.84 -2.48,1.54 -4.38,3.33 -5.64,5.32 l -0.54,0.86 -0.55,-0.86 C 104.4,82.37 102.5,80.58 100.03,79.04 99.56,78.75 99.08,78.47 98.58,78.2 L 97.62,77.68 Z M 77.08,89.2 77.22,103.43 66.28,90.53 c -0.4,-0.48 -0.76,-1.01 -1.06,-1.55 -0.9,-1.64 -1.29,-3.51 -1.12,-5.39 0.04,-0.48 0.13,-0.98 0.25,-1.47 0.33,-1.33 0.93,-2.54 1.78,-3.6 0.17,-0.2 0.34,-0.41 0.53,-0.6 l 0.5,-0.52 z m 1.85,20.26 -0.11,0.06 0.11,-0.06 0.03,0.04 c 0.22,0.41 0.47,0.81 0.74,1.21 0.83,1.2 1.82,2.26 2.94,3.14 l 10.82,12.56 v 7.21 c 0,1.2 -0.14,2.4 -0.42,3.58 l -0.3,1.25 -26.59,-31.46 C 63.37,103.67 63.23,98.74 65.8,95.25 l 0.51,-0.69 0.1,0.12 z m 11.18,7.39 c 0.48,0.04 0.92,0.07 1.35,0.07 h 2.01 v 5.54 l -4.95,-5.75 z m -2.52,31.22 c -0.22,0.38 -0.43,0.79 -0.63,1.23 l -6.1,10.63 c -1.23,2.16 -3.23,3.7 -5.62,4.35 -0.79,0.21 -1.61,0.32 -2.43,0.32 -0.95,0 -1.9,-0.15 -2.81,-0.44 l -0.75,-0.24 0.08,-0.14 16.54,-29.48 5.72,6.77 z m -21.77,16.67 c -1.2,2.11 -3.04,3.68 -5.3,4.54 -0.32,0.12 -0.65,0.23 -0.98,0.32 -0.89,0.24 -1.8,0.36 -2.72,0.36 -1.12,0 -2.22,-0.18 -3.28,-0.54 l -0.75,-0.25 0.08,-0.14 25.13,-44.01 6.07,7.17 -0.22,0.39 z m 80.08,-71.72 -0.36,-0.42 0.21,-0.25 c 1.73,-2.07 2.74,-4.46 2.92,-6.92 0.29,-3.99 -1.27,-7.73 -4.3,-10.26 l -1.67,-1.4 -24.9,29.69 -0.39,-0.09 c -0.23,-0.06 -0.45,-0.11 -0.68,-0.15 l -0.78,-0.15 0.3,-0.73 c 1.16,-2.8 1.9,-6.38 2.2,-10.64 l 0.02,-0.25 0.18,-0.17 c 1.54,-1.46 2.42,-4.14 2.68,-8.18 0.21,-3.16 -0.07,-6.03 -0.08,-6.16 l -0.15,-1.49 -1.45,0.38 c -0.01,0 -0.73,0.19 -1.87,0.61 l -0.36,0.13 -0.29,-0.25 c -3.46,-3.04 -7.19,-3.75 -9.1,-3.9 l -0.59,-0.04 v -1.29 c 0,-0.7 -0.57,-1.27 -1.27,-1.27 -0.71,0 -1.29,0.57 -1.29,1.27 v 1.3 l -0.59,0.05 c -1.89,0.17 -5.56,0.9 -8.96,3.89 l -0.29,0.25 -0.36,-0.13 c -1.12,-0.41 -1.86,-0.6 -1.87,-0.61 l -1.45,-0.38 -0.14,1.49 c -0.01,0.12 -0.29,2.97 -0.08,6.15 0.03,0.39 0.06,0.79 0.11,1.23 l 0.15,1.15 c 0.42,2.75 1.21,4.65 2.43,5.81 L 94.01,91.46 94,91.7 c 0.3,4.16 1.01,7.67 2.11,10.43 l 0.36,0.89 h -4.26 c -1.27,0 -2.31,-1.03 -2.31,-2.31 V 85.48 c 0,0 -0.02,-0.6 -0.13,-1 -0.13,-0.47 -0.36,-0.94 -0.65,-1.31 l -7.6,-9.93 -5.31,4.24 c -0.91,0.73 -1.63,1.69 -2.05,2.77 l -0.4,1.01 -6.29,-7.48 -1.43,1.2 c -2.3,1.92 -3.84,4.47 -4.36,7.19 -0.68,3.58 0.27,7.24 2.6,10.02 l 0.35,0.42 -0.36,0.42 c -1.68,1.94 -2.68,4.33 -2.89,6.91 -0.26,3.18 0.73,6.28 2.78,8.73 l 12.06,14.26 -0.23,0.39 -26.75,46.85 0.91,0.53 c 2.03,1.17 4.22,1.82 6.32,1.86 4.57,0.13 8.76,-2.11 11.22,-5.94 l 0.29,-0.45 0.49,0.19 c 2.38,0.94 4.94,1.08 7.42,0.41 3.06,-0.83 5.62,-2.81 7.19,-5.56 l 2.07,-3.61 v 18.73 h -2.92 c -9.54,0 -17.37,7.76 -17.47,17.3 l 1.29,2.24 1.3,-2.25 c 0.09,-8.11 6.76,-14.71 14.88,-14.71 h 5.5 v -21.68 c 0,-2.29 0.51,-4.6 1.47,-6.69 l 4.44,-7.91 c 1.56,-2.74 2.39,-5.85 2.39,-9.01 v -11.7 l 0.59,0.05 c 0.26,0.02 0.48,0.03 0.69,0.03 1.29,0 2.57,-0.32 3.8,-0.96 0.57,-0.29 0.82,-0.96 0.58,-1.49 -0.13,-0.28 -0.36,-0.48 -0.65,-0.58 -0.29,-0.09 -0.59,-0.07 -0.86,0.07 -1.58,0.84 -2.93,0.83 -3.79,0.67 l -0.29,-0.05 -0.06,-0.3 v -3.4 c 0.02,-0.19 0.03,-0.26 0.03,-0.34 0,-0.07 -0.01,-0.14 -0.03,-0.23 -0.1,-0.61 -0.62,-1.06 -1.24,-1.06 h -3.35 c -2.62,0 -5.09,-0.85 -7.15,-2.45 -1.3,-1.01 -2.39,-2.3 -3.16,-3.75 -0.89,-1.67 -1.36,-3.57 -1.36,-5.48 l -0.14,-14.4 -2.35,-2.82 c -0.75,-0.89 -1.11,-2.04 -1,-3.14 0.11,-1.11 0.66,-2.1 1.53,-2.8 l 3.27,-2.61 0.08,0.1 5.91,7.77 c 0.15,0.19 0.23,0.43 0.23,0.67 v 15.27 c 0,2.69 2.19,4.89 4.89,4.89 h 5.77 l 0.19,0.26 c 0.64,0.84 1.36,1.56 2.14,2.13 1.88,1.4 3.71,1.69 4.91,1.69 h 1.99 c 1.21,0 3.04,-0.29 4.93,-1.69 0.78,-0.58 1.5,-1.3 2.14,-2.14 l 0.21,-0.27 0.34,0.02 c 5.81,0.32 9.71,5 9.71,11.66 l 0.13,17.25 4.31,8.35 -3.19,1.96 c -1.01,0.61 -2.2,0.8 -3.28,0.52 -1.08,-0.28 -1.99,-0.97 -2.54,-1.95 -0.03,-0.06 -0.08,-0.13 -0.13,-0.19 l -0.85,-1.48 v 0 l -0.07,-0.12 -0.28,-0.5 c -1.24,-2.26 -1.9,-4.82 -1.9,-7.4 v -17.99 c 0,-0.68 -0.46,-1.27 -1.07,-1.36 -0.39,-0.06 -0.76,0.04 -1.05,0.29 -0.29,0.25 -0.46,0.61 -0.46,0.98 v 4 l -0.64,0.13 c -1.22,0.2 -2.47,-0.03 -3.7,-0.69 -0.26,-0.14 -0.56,-0.16 -0.84,-0.08 -0.28,0.09 -0.51,0.28 -0.65,0.54 -0.14,0.26 -0.16,0.56 -0.08,0.84 0.08,0.28 0.28,0.51 0.54,0.65 1.26,0.67 2.57,1.01 3.9,1.01 0.24,0 0.47,-0.01 0.73,-0.04 l 0.75,-0.07 v 11.73 c 0,3.15 0.83,6.27 2.39,9.01 l 3.85,6.76 c 1.35,2.39 2.07,5.1 2.07,7.85 v 21.68 h 5.5 c 8.12,0 14.79,6.6 14.89,14.71 l 1.29,2.25 1.29,-2.24 c -0.09,-9.54 -7.92,-17.3 -17.47,-17.3 h -2.91 v -18.77 l 2.07,3.64 c 2.01,3.53 5.53,5.71 9.67,5.97 1.64,0.11 3.34,-0.18 5.05,-0.85 l 0.4,-0.15 0.29,0.45 c 2.26,3.52 5.97,5.68 10.2,5.92 2.48,0.14 5.03,-0.51 7.39,-1.87 l 0.85,-0.49 -26.98,-47.18 0.06,-0.07 11.74,-14.03 c 2.11,-2.52 3.18,-5.59 3.02,-8.65 -0.16,-2.7 -1.16,-5.21 -2.92,-7.24"
   id="path6" />
</g>
<polygon
   class="st1"
   points="140.8,163.96 140.2,164.15 "
   id="polygon10"
   transform="translate(-28.244985,-56.770002)" />
<g
   id="g14"
   transform="translate(-28.244985,-56.770002)">
	<path
   class="st1"
   d="m 139.37,164.38 v 0 c 0.02,-0.01 0.04,-0.01 0.06,-0.02 -0.2,0.05 -0.41,0.09 -0.62,0.13 0.19,-0.04 0.37,-0.07 0.56,-0.11"
   id="path12" />
</g>
<path
   class="st1"
   d="m 98.805015,90.269998 3.209995,-1.96 z"
   id="path16" />
<g
   id="g56"
   transform="translate(-28.244985,-56.770002)">
	<polygon
   class="st1"
   points="127,147.07 127.05,147.04 "
   id="polygon18" />
	<path
   class="st1"
   d="m 101.44,140.03 2.27,-0.03 0.02,2.7 c 0,0.6 0.5,1.09 1.1,1.09 0.3,0 0.58,-0.12 0.78,-0.33 0.21,-0.21 0.32,-0.49 0.32,-0.78 l -0.02,-2.71 2.23,-0.03 c 0.3,0 0.57,-0.12 0.78,-0.33 0.2,-0.21 0.31,-0.49 0.31,-0.78 0,-0.3 -0.12,-0.57 -0.33,-0.77 -0.23,-0.22 -0.51,-0.34 -0.76,-0.31 l -2.23,0.03 -0.03,-4.46 2.27,-0.03 c 0.3,0 0.57,-0.12 0.77,-0.33 0.21,-0.21 0.32,-0.49 0.31,-0.78 -0.01,-0.6 -0.5,-1.08 -1.1,-1.08 l -2.27,0.03 -0.02,-2.58 c -0.01,-0.6 -0.5,-1.09 -1.11,-1.09 -0.3,0 -0.57,0.12 -0.78,0.33 -0.21,0.21 -0.32,0.49 -0.32,0.78 l 0.02,2.6 -2.23,0.03 c -0.29,0 -0.57,0.12 -0.77,0.33 -0.2,0.21 -0.31,0.49 -0.31,0.78 0.01,0.6 0.5,1.08 1.1,1.08 l 2.23,-0.03 0.03,4.46 -2.27,0.03 c -0.3,0.01 -0.57,0.12 -0.77,0.34 -0.2,0.21 -0.31,0.49 -0.31,0.78 0,0.57 0.5,1.06 1.09,1.06"
   id="path20" />
	<path
   class="st1"
   d="m 127.41,186.78 h -13.46 v -27.24 c 0,-4.89 -3.97,-8.86 -8.86,-8.86 -4.89,0 -8.86,3.97 -8.86,8.86 v 27.24 H 82.77 c -3.78,0 -6.93,3.07 -7.02,6.85 l 1.3,2.24 1.28,-2.25 c 0.1,-2.35 2.08,-4.25 4.43,-4.25 h 5.44 l -0.55,0.97 c -0.58,1 -0.89,2.14 -0.92,3.3 l 1.29,2.24 1.3,-2.25 c 0.09,-2.35 2.08,-4.25 4.43,-4.25 l 3.75,-0.01 c 0.72,0 1.3,-0.58 1.3,-1.29 v -28.53 c 0,-3.46 2.82,-6.28 6.28,-6.28 3.46,0 6.28,2.82 6.28,6.28 v 28.53 c 0,0.71 0.58,1.29 1.29,1.29 l 3.77,0.01 c 2.35,0 4.34,1.9 4.43,4.25 l 1.29,2.25 1.3,-2.24 c -0.03,-1.16 -0.34,-2.3 -0.92,-3.3 l -0.55,-0.97 h 5.44 c 2.35,0 4.34,1.91 4.43,4.25 l 1.3,2.25 1.29,-2.24 c -0.09,-3.79 -3.23,-6.85 -7.02,-6.85"
   id="path22" />
	<path
   class="st1"
   d="m 232.45,130.46 c -2.46,2.33 -5.55,3.51 -9.17,3.51 -4.63,0 -11.06,-1.94 -14.95,-4.52 l -0.14,-0.09 v -5.21 c -0.01,-4.02 -0.01,-9.1 -0.01,-10.02 v -0.32 h 0.32 c 1.2,0 3.97,0.01 6.73,0.01 2.73,0.01 5.45,0.01 6.6,0.01 4.13,0 8,1.42 9.99,2.83 2.16,1.52 3.45,3.78 3.64,6.37 0.19,2.73 -0.9,5.44 -3.01,7.43 m 1.85,-36.94 c -11.52,-0.37 -23.28,-0.28 -34.66,-0.19 -4.9,0.03 -9.97,0.07 -14.99,0.08 v 77 h 23.73 v -28.42 l 0.48,0.27 c 0.38,0.22 0.87,0.52 1.32,0.8 0.33,0.2 0.64,0.39 0.88,0.53 6.02,3.56 12.69,5.34 20.39,5.42 0.09,0 0.19,0 0.28,0 14.73,0 27.17,-12.67 27.81,-28.39 0.29,-7.16 -2.14,-13.89 -6.84,-18.95 -4.69,-5.02 -11.22,-7.92 -18.4,-8.15"
   id="path24" />
	<path
   class="st1"
   d="m 459.05,158.08 c 0.01,0 -0.07,0.78 -0.08,0.79 -0.13,1.26 -0.47,3.49 -0.82,5.84 -0.33,2.16 -0.67,4.39 -0.82,5.75 h 21.38 v -0.63 c -0.01,-12.82 -0.02,-44 0.04,-58.09 -3.1,0 -17.87,0.08 -20.25,0.09 0.03,1.7 0.14,9.67 0.08,12.7 -0.06,2.67 -0.04,5.39 -0.03,8.02 0.02,3.06 0.03,6.23 -0.06,9.34 -0.19,6.11 -2.58,10.12 -7.32,12.26 -3.9,1.76 -8.03,1.57 -11.35,-0.52 -3.65,-2.29 -5.82,-6.47 -5.94,-11.45 -0.11,-4.67 -0.09,-9.42 -0.06,-14.01 0.01,-2.07 0.02,-4.15 0.02,-6.22 v -10.17 h -5.23 c -5.08,0 -10.35,0.01 -14.89,-0.02 v 38.83 c 0,9.38 6.2,17.58 15.44,20.4 6.97,2.13 21.98,2.29 29.13,-12.2 -0.01,0 0.33,-0.71 0.76,-0.71"
   id="path26" />
	<path
   class="st1"
   d="m 372.97,127.93 c 0,0 -20.78,30.18 -25.94,37.65 l -0.29,0.41 c -0.83,1.17 -1.76,2.49 -1.85,4.41 h 57.72 v -15.22 h -28.75 l 6.41,-9.29 c 6.41,-9.31 16.08,-23.34 19.66,-28.54 l 0.34,-0.48 c 0.93,-1.32 2.19,-3.1 2.32,-5.04 l -57.49,-0.06 v 15.22 h 28.53 z"
   id="path28" />
	<path
   class="st1"
   d="m 305.6,166.84 c -0.28,0.23 -0.57,0.44 -0.86,0.65 0.29,-0.21 0.58,-0.42 0.86,-0.65"
   id="path30" />
	<path
   class="st1"
   d="m 310.39,161.84 c -0.2,0.26 -0.41,0.51 -0.61,0.76 0.2,-0.26 0.41,-0.5 0.61,-0.76"
   id="path32" />
	<path
   class="st1"
   d="m 304.29,167.82 c -0.33,0.23 -0.66,0.44 -0.99,0.64 0.33,-0.2 0.66,-0.41 0.99,-0.64"
   id="path34" />
	<path
   class="st1"
   d="m 306.86,165.75 c -0.25,0.23 -0.51,0.44 -0.76,0.66 0.25,-0.21 0.51,-0.43 0.76,-0.66"
   id="path36" />
	<path
   class="st1"
   d="m 308.07,164.56 c -0.23,0.24 -0.46,0.45 -0.69,0.68 0.24,-0.23 0.47,-0.45 0.69,-0.68"
   id="path38" />
	<path
   class="st1"
   d="m 309.25,163.25 c -0.21,0.25 -0.43,0.48 -0.64,0.72 0.21,-0.24 0.43,-0.47 0.64,-0.72"
   id="path40" />
	<path
   class="st1"
   d="m 311.49,160.31 c -0.19,0.28 -0.39,0.54 -0.58,0.81 0.19,-0.27 0.38,-0.53 0.58,-0.81"
   id="path42" />
	<path
   class="st1"
   d="m 309.76,151.62 c -2.61,2.59 -6.19,4.02 -10.08,4.02 h -0.07 c -3.95,-0.02 -7.59,-1.5 -10.23,-4.17 -2.7,-2.73 -4.17,-6.5 -4.13,-10.61 0.07,-8.22 6.28,-14.43 14.45,-14.43 h 0.01 c 3.94,0 7.55,1.45 10.18,4.08 2.67,2.68 4.13,6.38 4.12,10.42 -0.02,4.18 -1.52,7.98 -4.25,10.69 m 23.64,-39.71 c -0.69,0.2 -2.11,0.63 -3.85,1.9 -4.11,3.01 -12.65,9.26 -13.21,9.65 l -0.25,0.18 -0.61,-0.8 c -0.23,-0.3 -0.4,-0.52 -0.56,-0.75 -5.27,-7.53 -13.6,-11.94 -22.43,-11.94 -0.33,0 -0.66,0.01 -0.98,0.02 -9.24,0.34 -17.33,5.25 -22.19,13.47 -3.28,5.55 -5.08,11.45 -5.34,17.55 0.02,16.86 11.44,30.44 26.01,30.92 3.76,-0.08 7.09,-0.72 10.08,-1.96 0,0 0.01,0 0.01,-0.01 0.49,-0.2 0.97,-0.43 1.45,-0.66 0.08,-0.04 0.15,-0.08 0.23,-0.12 0.4,-0.21 0.79,-0.42 1.18,-0.65 0.12,-0.07 0.24,-0.16 0.36,-0.23 0.33,-0.21 0.67,-0.42 0.99,-0.64 0.15,-0.11 0.3,-0.23 0.45,-0.33 0.29,-0.21 0.58,-0.42 0.86,-0.65 0.17,-0.14 0.33,-0.29 0.5,-0.43 0.25,-0.22 0.51,-0.43 0.76,-0.66 0.18,-0.17 0.35,-0.35 0.53,-0.52 0.23,-0.22 0.46,-0.44 0.69,-0.68 0.18,-0.19 0.36,-0.39 0.53,-0.59 0.22,-0.24 0.43,-0.47 0.64,-0.72 0.18,-0.21 0.35,-0.43 0.52,-0.65 0.2,-0.25 0.41,-0.5 0.61,-0.76 0.18,-0.23 0.35,-0.48 0.52,-0.72 0.19,-0.27 0.39,-0.53 0.58,-0.81 0.17,-0.25 0.33,-0.53 0.51,-0.78 1.02,-1.49 1.35,-1.83 1.35,-1.83 l -0.3,2.1 c -0.24,1.69 -0.49,3.51 -0.74,5.34 -0.27,1.93 -0.47,3.46 -0.73,5.29 h 21.85 V 111.9 c -0.01,0 -0.01,0 -0.02,0.01"
   id="path44" />
	<path
   class="st1"
   d="m 290,172.1 c 3.76,-0.08 7.08,-0.72 10.07,-1.96 -2.99,1.24 -6.32,1.88 -10.07,1.96 -0.01,0 0,0 0,0"
   id="path46" />
	<path
   class="st1"
   d="m 301.53,169.47 c -0.47,0.24 -0.96,0.46 -1.45,0.67 0.49,-0.21 0.98,-0.43 1.45,-0.67"
   id="path48" />
	<path
   class="st1"
   d="m 302.94,168.7 c -0.39,0.23 -0.78,0.44 -1.18,0.65 0.39,-0.21 0.79,-0.42 1.18,-0.65"
   id="path50" />
	<path
   class="st1"
   d="m 518.88,155.18 h -0.75 -0.72 l 0.3,-0.49 c 0,0 0.04,-0.06 0.12,-0.17 l 0.2,-0.28 5.11,-7.42 c 6.53,-9.48 17.1,-24.83 20.83,-30.23 l 0.34,-0.48 c 0.85,-1.19 1.72,-2.42 1.81,-4.29 l -57.04,-0.06 c 0,0 0,0 0,0 h -0.45 V 127 l 28.52,-0.01 -6.18,8.96 c -6.55,9.52 -16.77,24.34 -20.41,29.64 l -0.29,0.41 c -0.83,1.17 -1.76,2.49 -1.85,4.41 h 57.72 v -15.22 h -27.26 z"
   id="path52" />
	<path
   class="st1"
   d="m 189.31,194.09 c 1.15,0 1.95,-0.64 1.95,-1.59 0,-0.95 -0.8,-1.56 -1.96,-1.56 h -2.85 v 3.15 z m -0.23,-4.34 c 0.99,0 1.7,-0.59 1.7,-1.46 0,-0.89 -0.71,-1.44 -1.7,-1.44 h -2.63 v 2.9 z m -4.51,-4.44 h 4.83 c 1.85,0 3.15,0.98 3.15,2.52 0,1.02 -0.58,1.81 -1.5,2.21 v 0.12 c 1.35,0.37 2.23,1.35 2.23,2.66 0,1.77 -1.57,2.88 -3.65,2.88 h -5.06 z"
   id="path54" />
</g>
<rect
   x="177.52501"
   y="128.53999"
   class="st1"
   width="1.88"
   height="10.39"
   id="rect58" />
<polygon
   class="st1"
   points="219.9,185.31 228.48,185.31 228.48,186.99 225.13,186.99 225.13,195.7 223.23,195.7 223.23,186.99 219.9,186.99 "
   id="polygon60"
   transform="translate(-28.244985,-56.770002)" />
<g
   id="g66"
   transform="translate(-28.244985,-56.770002)">
	<path
   class="st1"
   d="m 240.01,190.53 c 0,-3.09 2.21,-5.42 5.61,-5.42 0.95,0 2.15,0.27 2.9,0.67 l -0.28,1.78 c -0.63,-0.43 -1.58,-0.74 -2.54,-0.74 -2.2,0 -3.83,1.56 -3.83,3.67 0,2.17 1.56,3.65 4.03,3.65 1.18,0 2.28,-0.39 3.07,-0.99 v 1.9 c -0.81,0.52 -2.06,0.85 -3.18,0.85 -3.56,-0.01 -5.78,-2.28 -5.78,-5.37"
   id="path62" />
	<path
   class="st1"
   d="m 269.19,190.52 c 0,-2.06 -1.43,-3.64 -3.43,-3.64 -1.98,0 -3.39,1.56 -3.39,3.64 0,2.06 1.43,3.62 3.4,3.62 2,0 3.42,-1.56 3.42,-3.62 m -8.67,0 c 0,-3.07 2.24,-5.4 5.25,-5.4 3.02,0 5.26,2.31 5.26,5.39 0,3.07 -2.24,5.39 -5.28,5.39 -3.01,-0.01 -5.23,-2.31 -5.23,-5.38"
   id="path64" />
</g>
<rect
   x="255.315"
   y="128.53999"
   class="st1"
   width="1.88"
   height="10.39"
   id="rect68" />
<polygon
   class="st1"
   points="305.28,192.05 305.4,192.05 305.4,185.31 307.26,185.31 307.26,195.95 306.95,195.95 300.31,188.97 300.19,188.97 300.19,195.7 298.33,195.7 298.33,185.06 298.64,185.06 "
   id="polygon70"
   transform="translate(-28.244985,-56.770002)" />
<path
   class="st1"
   d="m 312.71501,136.3 -1.93,-4.35 h -0.1 l -1.92,4.35 z m -2.14,-8.01 h 0.32 l 4.96,10.64 h -1.96 l -0.69,-1.52 h -4.96 l -0.68,1.52 h -1.95 z"
   id="path72" />
<polygon
   class="st1"
   points="354.04,185.31 362.62,185.31 362.62,186.99 359.27,186.99 359.27,195.7 357.37,195.7 357.37,186.99 354.04,186.99 "
   id="polygon74"
   transform="translate(-28.244985,-56.770002)" />
<polygon
   class="st1"
   points="380.24,194.6 379.9,194.6 377.42,189.4 377.3,189.4 375.95,195.7 374.01,195.7 376.31,185.06 376.68,185.06 380.01,191.45 380.13,191.45 383.47,185.06 383.83,185.06 386.13,195.7 384.19,195.7 382.86,189.4 382.72,189.4 "
   id="polygon76"
   transform="translate(-28.244985,-56.770002)" />
<g
   id="g80"
   transform="translate(-28.244985,-56.770002)">
	<path
   class="st1"
   d="m 412.39,194.67 0.57,-1.5 c 1.15,0.8 2.65,1.19 3.85,1.19 1.28,0 2.23,-0.59 2.23,-1.47 0,-0.8 -0.57,-1.23 -2.41,-1.62 -2.35,-0.49 -3.74,-1.4 -3.74,-3.15 0,-1.74 1.46,-3.01 3.99,-3.01 1.29,0 2.51,0.31 3.31,0.64 v 1.62 c -0.75,-0.38 -1.79,-0.73 -3.11,-0.73 -1.32,0 -2.24,0.65 -2.24,1.44 0,0.77 0.58,1.19 2.37,1.57 2.62,0.52 3.74,1.47 3.74,3.1 0,1.83 -1.46,3.13 -4.03,3.13 -1.46,0.01 -3.42,-0.48 -4.53,-1.21"
   id="path78" />
</g>
<polygon
   class="st1"
   points="434.33,185.31 437.33,189.85 437.44,189.85 440.47,185.31 442.47,185.31 438.33,191.59 438.33,195.7 436.43,195.7 436.43,191.6 432.31,185.31 "
   id="polygon82"
   transform="translate(-28.244985,-56.770002)" />
<g
   id="g86"
   transform="translate(-28.244985,-56.770002)">
	<path
   class="st1"
   d="m 453.24,194.67 0.57,-1.5 c 1.15,0.8 2.65,1.19 3.85,1.19 1.28,0 2.23,-0.59 2.23,-1.47 0,-0.8 -0.57,-1.23 -2.41,-1.62 -2.35,-0.49 -3.74,-1.4 -3.74,-3.15 0,-1.74 1.46,-3.01 3.99,-3.01 1.29,0 2.51,0.31 3.31,0.64 v 1.62 c -0.75,-0.38 -1.79,-0.73 -3.11,-0.73 -1.32,0 -2.24,0.65 -2.24,1.44 0,0.77 0.58,1.19 2.37,1.57 2.62,0.52 3.74,1.47 3.74,3.1 0,1.83 -1.46,3.13 -4.03,3.13 -1.46,0.01 -3.42,-0.48 -4.53,-1.21"
   id="path84" />
</g>
<polygon
   class="st1"
   points="473.34,185.31 481.92,185.31 481.92,186.99 478.57,186.99 478.57,195.7 476.67,195.7 476.67,186.99 473.34,186.99 "
   id="polygon88"
   transform="translate(-28.244985,-56.770002)" />
<polygon
   class="st1"
   points="501.06,191.14 496.01,191.14 496.01,194 502.14,194 502.12,195.7 494.15,195.7 494.15,185.31 502.03,185.31 502.03,187 496.01,187 496.01,189.72 501.06,189.72 "
   id="polygon90"
   transform="translate(-28.244985,-56.770002)" />
<polygon
   class="st1"
   points="520.41,194.6 520.07,194.6 517.59,189.4 517.47,189.4 516.12,195.7 514.19,195.7 516.48,185.06 516.85,185.06 520.18,191.45 520.31,191.45 523.64,185.06 524,185.06 526.3,195.7 524.36,195.7 523.03,189.4 522.9,189.4 "
   id="polygon92"
   transform="translate(-28.244985,-56.770002)" />
<path
   class="st1"
   d="m 509.72501,137.9 0.57,-1.5 c 1.15,0.8 2.65,1.19 3.85,1.19 1.28,0 2.23,-0.59 2.23,-1.47 0,-0.8 -0.57,-1.23 -2.41,-1.62 -2.35,-0.49 -3.74,-1.4 -3.74,-3.15 0,-1.74 1.46,-3.01 3.99,-3.01 1.29,0 2.51,0.31 3.31,0.64 v 1.62 c -0.75,-0.38 -1.79,-0.73 -3.11,-0.73 -1.32,0 -2.24,0.65 -2.24,1.44 0,0.77 0.58,1.19 2.37,1.57 2.62,0.52 3.74,1.47 3.74,3.1 0,1.83 -1.46,3.13 -4.03,3.13 -1.46,0.01 -3.42,-0.48 -4.53,-1.21"
   id="path94" />
</svg>
