<?xml version="1.0" encoding="UTF-8" standalone="no"?>
<!-- Generator: Adobe Illustrator 26.2.1, SVG Export Plug-In . SVG Version: 6.00 Build 0)  -->

<svg
   version="1.1"
   id="Layer_1"
   x="0px"
   y="0px"
   viewBox="0 0 199.99999 199.99999"
   xmlSpace="preserve"
   width="200"
   height="200"
   xmlns="http://www.w3.org/2000/svg"
   xmlnsSvg="http://www.w3.org/2000/svg"><defs
   id="defs99" />

<path
   class="st1"
   d="m 107.35402,46.196458 c -0.91562,0 -1.65683,0.741215 -1.65683,1.656835 -0.0145,1.409763 -2.36899,2.979396 -5.726257,2.979396 h -1.87484 c -0.91562,0 -1.656835,0.75575 -1.656835,1.656836 0,0.915619 0.741215,1.656835 1.656835,1.656835 h 1.87484 c 5.057707,0 9.039927,-2.775926 9.039927,-6.307601 0,-0.886552 -0.74122,-1.642301 -1.65684,-1.642301"
   id="path4"
   style="stroke-width:1.45336" /><path
   class="st1"
   d="m 159.22459,57.343761 c -0.52321,1.889374 -1.40976,3.58981 -2.65966,5.072241 l -24.47465,29.256221 -0.11627,-14.373771 c 0,-1.046423 -0.0581,-2.107379 -0.18893,-3.153801 l -0.0436,-0.406942 0.26161,-0.305206 24.34385,-29.038217 0.71215,0.95922 c 0.93015,1.249894 1.61323,2.63059 2.07831,4.142088 0.0291,0.0872 0.0436,0.15987 0.0727,0.247072 l 0.0727,0.290673 c 0.0581,0.188937 0.10173,0.377875 0.14533,0.566812 0.46508,2.209114 0.40694,4.54903 -0.20347,6.74361 m 16.75729,95.442429 -0.218,0.0727 -0.87202,0.29067 c -1.14816,0.39241 -2.33992,0.63948 -3.54621,0.72668 -0.40694,0.0291 -0.81389,0.0436 -1.20629,0.0436 -1.32257,0 -2.65966,-0.1744 -3.95315,-0.52321 -3.89502,-1.04642 -7.12149,-3.56074 -9.1126,-7.03428 l -22.36727,-39.99658 -2.54339,-5.13038 -0.0291,-3.764213 0.0436,-0.05814 7.23776,-8.647517 0.1308,0.232538 z m -24.11131,-7.57203 -0.87202,0.27614 c -0.36334,0.11627 -0.74122,0.218 -1.11909,0.30521 -0.0291,0 -0.0581,0.0145 -0.0872,0.0291 v 0 c -0.27614,0.0581 -0.53775,0.11627 -0.81389,0.15987 -0.68308,0.10174 -1.38069,0.15987 -2.06377,0.15987 -1.19176,0 -2.36899,-0.15987 -3.53168,-0.46507 -3.48807,-0.94469 -6.38027,-3.18287 -8.16791,-6.32214 l -9.8102,-17.25143 1.58416,-0.0291 c 1.70044,-0.0291 3.35727,-0.50867 4.83971,-1.39523 l 0.0727,-0.0436 4.67984,-2.84859 0.15987,-0.10174 15.36206,27.46859 z m -21.786,-77.449778 c -1.5551,-3.575276 -3.99675,-6.482004 -7.07788,-8.414978 l -0.91562,-0.581346 33.02043,-39.371636 0.72668,0.755749 c 2.15098,2.267248 3.42994,5.115842 3.72061,8.255109 0.33428,3.677011 -0.79935,7.266821 -3.16833,10.086347 L 130.70959,69.145078 Z M 111.85945,56.108401 c -1.07549,2.020177 -2.32538,3.575276 -3.73514,4.6653 -1.93298,1.482431 -3.77875,1.802171 -4.99958,1.816705 -0.29067,0 -1.06095,0 -1.75857,0 -0.53774,0 -1.04642,0 -1.26442,0 -1.17723,-0.01453 -2.979401,-0.31974 -4.868775,-1.729504 -0.363341,-0.276139 -0.726682,-0.581345 -1.075489,-0.915619 -1.031889,-1.002821 -1.962042,-2.281782 -2.775926,-3.822348 -0.01453,-0.02907 -1.249893,-2.528854 -2.325382,-6.380269 -1.046423,-3.764213 -1.569634,-7.484825 -1.569634,-11.074635 L 87.4284,37.766945 86.614516,37.258268 c -0.610413,-0.377875 -1.148158,-1.046422 -1.598701,-2.005643 -0.15987,-0.334274 -0.31974,-0.712148 -0.465076,-1.11909 -0.232539,-0.668548 -0.43601,-1.438831 -0.610413,-2.281782 -0.130803,-0.610413 -0.232539,-1.278961 -0.319741,-1.976575 -0.101735,-0.741216 -0.174403,-1.540566 -0.232538,-2.383518 -0.101735,-1.482431 -0.130803,-3.081132 -0.0872,-4.767034 l 0.02907,-1.351629 1.249893,0.494144 c 2.470719,0.973754 6.060529,2.659656 9.09806,5.173976 0.770283,0.59588 1.293494,1.104557 2.150979,2.03471 1.177225,1.278961 2.616055,3.008464 3.168334,5.057708 0.101735,0.363341 0.232538,1.090023 0.406942,2.165512 l 0.101735,0.639481 h -3.081132 c -0.886552,0 -1.613234,0.697614 -1.656835,1.584167 -0.0436,0.886552 0.624946,1.642301 1.511499,1.729503 0.130802,0.01453 3.095665,0.31974 3.807808,3.226469 0.18894,0.741215 0.84295,1.264426 1.61324,1.264426 0.77028,0 1.42429,-0.523211 1.61323,-1.264426 0.68308,-2.804993 3.57528,-3.197402 3.89502,-3.226469 0.90108,-0.07267 1.56963,-0.842951 1.52603,-1.729503 -0.0436,-0.886553 -0.77028,-1.584167 -1.65684,-1.584167 h -3.3718 l 0.11627,-0.654014 c 0.20347,-1.07549 0.34881,-1.802172 0.45054,-2.165513 0.45054,-1.5987 1.43883,-3.197401 3.12473,-5.014106 0.72669,-0.857485 1.74404,-1.71497 2.22365,-2.078311 3.023,-2.485253 6.59827,-4.171155 9.03993,-5.144909 l 1.24989,-0.508678 0.0291,1.351629 c 0.0436,1.627768 0,3.211935 -0.0872,4.694366 -0.46507,7.06335 -2.22364,9.185262 -3.241,9.824742 l -0.81388,0.508678 -0.0581,0.944686 c 0,9.054459 -3.72061,17.07703 -3.88048,17.411303 M 90.436864,18.931345 c 1.409763,-0.915619 2.921262,-1.656835 4.505429,-2.180046 0.63948,-0.218005 1.308027,-0.392408 1.976575,-0.537745 0.552278,-0.116269 1.11909,-0.218004 1.671369,-0.276139 0.02907,0 3.371803,-0.247072 5.798923,-0.02907 1.6423,0.15987 4.9269,0.755749 8.40044,3.037531 l 1.32257,0.872018 -1.39523,0.75575 c -0.75575,0.406942 -1.45337,0.79935 -2.12192,1.220826 -3.60434,2.238181 -6.36573,4.839702 -8.19697,7.731897 l -0.78482,1.249893 -0.79935,-1.249893 C 98.968111,26.634172 96.206719,24.032651 92.61691,21.79447 91.933829,21.372994 91.236214,20.966052 90.509532,20.573644 l -1.39523,-0.75575 z M 59.262201,36.560653 59.465672,57.242026 43.565868,38.493627 c -0.581346,-0.697614 -1.104557,-1.467897 -1.540566,-2.252714 -1.308028,-2.383517 -1.87484,-5.101308 -1.627768,-7.833633 0.05814,-0.697615 0.188937,-1.424297 0.363341,-2.136446 0.47961,-1.932974 1.351629,-3.691545 2.586988,-5.232111 0.247072,-0.290673 0.494144,-0.595879 0.770283,-0.872018 l 0.726683,-0.75575 z m 2.688724,29.445159 -0.15987,0.0872 0.15987,-0.0872 0.0436,0.05813 c 0.31974,0.59588 0.683081,1.177225 1.07549,1.758571 1.206292,1.744037 2.645122,3.284603 4.27289,4.563564 l 15.725401,18.254254 v 10.478759 c 0,1.74404 -0.203471,3.48807 -0.610413,5.20304 L 82.021885,108.13884 43.376931,62.416002 C 39.336578,57.590833 39.133107,50.425747 42.868253,45.353506 l 0.741216,-1.002821 0.145336,0.174404 z m 16.248612,10.740361 c 0.697615,0.05814 1.337095,0.101736 1.962042,0.101736 h 2.921262 v 8.051637 L 75.888688,76.542702 Z M 74.537059,122.1202 c -0.31974,0.55228 -0.624946,1.14816 -0.915619,1.78764 l -8.865522,15.44926 c -1.787638,3.13927 -4.694366,5.37745 -8.167907,6.32214 -1.148157,0.3052 -2.339916,0.46507 -3.531675,0.46507 -1.380696,0 -2.761392,-0.218 -4.083953,-0.63948 l -1.090023,-0.3488 0.116269,-0.20347 24.038644,-42.84518 8.313243,9.83927 z m -31.639738,24.22758 c -1.744038,3.0666 -4.418228,5.34838 -7.702831,6.59828 -0.465076,0.1744 -0.944686,0.33427 -1.424297,0.46507 -1.293494,0.34881 -2.616055,0.52322 -3.95315,0.52322 -1.627768,0 -3.226469,-0.26161 -4.767035,-0.78482 l -1.090023,-0.36334 0.116269,-0.20347 36.523042,-63.962561 8.821921,10.420621 -0.31974,0.566812 z M 159.28273,42.112504 l -0.52322,-0.610413 0.30521,-0.363341 c 2.51432,-3.008464 3.98222,-6.482004 4.24382,-10.05728 0.42148,-5.798923 -1.84577,-11.234505 -6.24946,-14.911517 l -2.42712,-2.03471 -36.18877,43.150383 -0.56681,-0.130802 c -0.33427,-0.0872 -0.65401,-0.15987 -0.98829,-0.218005 l -1.13362,-0.218005 0.43601,-1.060955 c 1.6859,-4.06942 2.76139,-9.272464 3.1974,-15.463796 l 0.0291,-0.363341 0.2616,-0.247071 c 2.23818,-2.121912 3.51714,-6.016928 3.89502,-11.88852 0.3052,-4.592631 -0.10174,-8.763786 -0.11627,-8.952723 l -0.21801,-2.165513 -2.10737,0.552279 c -0.0145,0 -1.06096,0.276139 -2.7178,0.886552 l -0.52321,0.188937 -0.42147,-0.363341 c -5.02864,-4.418227 -10.44969,-5.450116 -13.22562,-5.66812 l -0.85748,-0.05814 v -1.87484 c 0,-1.0173546 -0.82842,-1.8457722 -1.84577,-1.8457722 -1.03189,0 -1.874844,0.8284176 -1.874844,1.8457722 v 1.889374 l -0.857485,0.07267 c -2.746858,0.247072 -8.080705,1.308028 -13.022143,5.653587 l -0.421476,0.363341 -0.523211,-0.188938 C 83.213643,17.43438 82.138154,17.158241 82.12362,17.143707 l -2.107378,-0.552278 -0.203471,2.165513 c -0.01453,0.174403 -0.421475,4.316491 -0.116269,8.938189 0.0436,0.566812 0.0872,1.148158 0.15987,1.787638 l 0.218005,1.671369 c 0.610413,3.996752 1.75857,6.758144 3.531675,8.444046 l 0.261605,0.247072 -0.01453,0.348807 c 0.436009,6.045996 1.467898,11.147304 3.066598,15.158589 l 0.523211,1.293494 h -6.191331 c -1.845773,0 -3.357272,-1.496965 -3.357272,-3.357271 V 31.154138 c 0,0 -0.02907,-0.872018 -0.188937,-1.453364 -0.188937,-0.683081 -0.523211,-1.366162 -0.944687,-1.903907 L 65.715138,13.36496 57.997775,19.527225 c -1.322562,1.060955 -2.368984,2.456185 -2.979397,4.025818 l -0.581346,1.467898 -9.141661,-10.871164 -2.07831,1.744037 c -3.342738,2.790459 -5.580919,6.496538 -6.336668,10.449689 -0.988288,5.203043 0.392408,10.522356 3.778747,14.562709 l 0.508677,0.610413 -0.523211,0.610413 c -2.441652,2.819526 -3.895016,6.293067 -4.200223,10.042746 -0.377874,4.621699 1.060956,9.127128 4.040353,12.68787 l 17.527572,20.724973 -0.334274,0.566812 -38.877492,68.090111 1.322562,0.77029 c 2.950329,1.70043 6.133196,2.64512 9.185261,2.70325 6.641875,0.18894 12.731471,-3.0666 16.306747,-8.63298 l 0.421475,-0.65401 0.712149,0.27613 c 3.459006,1.36617 7.179619,1.56964 10.783962,0.59588 4.447294,-1.20629 8.167907,-4.08395 10.449689,-8.0807 l 3.008464,-5.24665 v 27.22152 h -4.243824 c -13.865094,0 -25.244936,11.2781 -25.390273,25.1432 l 1.87484,3.25553 1.889374,-3.27007 c 0.130803,-11.78678 9.824742,-21.37898 21.626059,-21.37898 h 7.993503 v -31.50894 c 0,-3.3282 0.741216,-6.68548 2.136446,-9.72301 l 6.452937,-11.49611 c 2.267248,-3.98222 3.47354,-8.50218 3.47354,-13.09481 V 84.11473 l 0.857485,0.07267 c 0.377875,0.02907 0.697615,0.0436 1.002821,0.0436 1.87484,0 3.735146,-0.465077 5.522784,-1.39523 0.828418,-0.421476 1.191759,-1.39523 0.842951,-2.165513 -0.188937,-0.406942 -0.523211,-0.697614 -0.944686,-0.842951 -0.421476,-0.130803 -0.857485,-0.101735 -1.249894,0.101736 -2.296315,1.220826 -4.258357,1.206292 -5.50825,0.973754 l -0.421475,-0.07267 -0.0872,-0.43601 v -4.941438 c 0.02907,-0.276139 0.0436,-0.377875 0.0436,-0.494144 0,-0.101735 -0.01453,-0.203471 -0.0436,-0.334274 -0.145337,-0.886552 -0.901086,-1.540566 -1.802172,-1.540566 h -4.86877 c -3.807814,0 -7.397624,-1.235359 -10.391554,-3.560742 -1.889374,-1.467898 -3.47354,-3.342738 -4.592631,-5.450116 -1.293494,-2.427118 -1.976575,-5.18851 -1.976575,-7.964436 L 62.982814,35.179957 59.567408,31.08147 c -1.090023,-1.293494 -1.613234,-2.964863 -1.453364,-4.563564 0.15987,-1.613234 0.95922,-3.052064 2.223647,-4.069419 l 4.752501,-3.793281 0.116269,0.145336 8.589382,11.29264 c 0.218005,0.276139 0.334274,0.624947 0.334274,0.973754 v 22.192872 c 0,3.909549 3.182868,7.106951 7.106951,7.106951 h 8.385912 l 0.276139,0.377874 c 0.930153,1.220826 1.976575,2.267248 3.110199,3.095666 2.732325,2.03471 5.391981,2.456186 7.136022,2.456186 h 2.89219 c 1.75857,0 4.41823,-0.421476 7.16509,-2.456186 1.13362,-0.842951 2.18004,-1.889373 3.1102,-3.110199 l 0.3052,-0.392409 0.49415,0.02907 c 8.44404,0.465076 14.11216,7.266821 14.11216,16.946226 l 0.18894,25.070533 6.264,12.13559 -4.63623,2.84859 c -1.4679,0.88655 -3.1974,1.16269 -4.76704,0.75575 -1.56963,-0.40694 -2.89219,-1.40976 -3.69154,-2.83406 -0.0436,-0.0872 -0.11627,-0.18894 -0.18894,-0.27614 l -1.23536,-2.15098 v 0 l -0.10173,-0.1744 -0.40695,-0.72668 c -1.80217,-3.28461 -2.76139,-7.00522 -2.76139,-10.7549 V 75.060271 c 0,-0.988288 -0.66855,-1.845773 -1.5551,-1.976576 -0.56681,-0.0872 -1.10455,0.05813 -1.52603,0.421476 -0.42148,0.363341 -0.66855,0.886552 -0.66855,1.424297 v 5.813457 l -0.93015,0.188937 c -1.77311,0.290673 -3.58981,-0.0436 -5.37745,-1.002821 -0.37787,-0.203471 -0.81388,-0.232539 -1.22082,-0.116269 -0.40695,0.130802 -0.74122,0.406942 -0.94469,0.784816 -0.20347,0.377875 -0.23254,0.813884 -0.11627,1.220826 0.11627,0.406942 0.40694,0.741216 0.78482,0.944687 1.83124,0.973754 3.73514,1.467898 5.66812,1.467898 0.3488,0 0.68308,-0.01453 1.06095,-0.05813 l 1.09003,-0.101735 V 101.1191 c 0,4.5781 1.20629,9.11259 3.47354,13.0948 l 5.59545,9.82475 c 1.96204,3.47354 3.00846,7.41215 3.00846,11.4089 v 31.50894 h 7.99351 c 11.80131,0 21.49525,9.5922 21.64059,21.37899 l 1.87484,3.27007 1.87484,-3.25553 c -0.1308,-13.8651 -11.51065,-25.14321 -25.39027,-25.14321 h -4.22929 v -27.27965 l 3.00846,5.29026 c 2.92126,5.13037 8.0371,8.29871 14.05403,8.67658 2.38352,0.15987 4.85424,-0.2616 7.33949,-1.23537 l 0.58135,-0.21799 0.42147,0.65401 c 3.28461,5.11583 8.67659,8.25511 14.82432,8.60391 3.60434,0.20347 7.31042,-0.74122 10.74036,-2.71779 l 1.23536,-0.71215 -39.21177,-68.569718 0.0872,-0.101736 17.0625,-20.3907 c 3.0666,-3.662477 4.6217,-8.124306 4.38916,-12.5716 -0.23254,-3.924083 -1.6859,-7.572027 -4.24382,-10.522357"
   id="path6"
   style="stroke-width:1.45336" /><polygon
   class="st1"
   points="140.2,164.15 140.8,163.96 "
   id="polygon10"
   transform="matrix(1.4533642,0,0,1.4533642,-52.763111,-93.079434)" /><path
   class="st1"
   d="m 149.79226,145.82457 v 0 c 0.0291,-0.0145 0.0581,-0.0145 0.0872,-0.0291 -0.29067,0.0727 -0.59588,0.1308 -0.90109,0.18893 0.27614,-0.0581 0.53775,-0.10173 0.81389,-0.15987"
   id="path12"
   style="stroke-width:1.45336" /><path
   class="st1"
   d="m 131.88681,120.62324 4.6653,-2.8486 z"
   id="path16"
   style="stroke-width:1.45336" /><polygon
   class="st1"
   points="127.05,147.04 127,147.07 "
   id="polygon18"
   transform="matrix(1.4533642,0,0,1.4533642,-52.763111,-93.079434)" /><path
   class="st1"
   d="m 94.666153,110.43516 3.299137,-0.0436 0.02907,3.92409 c 0,0.87202 0.726682,1.58416 1.598701,1.58416 0.436009,0 0.842949,-0.1744 1.133619,-0.47961 0.30521,-0.3052 0.46508,-0.71214 0.46508,-1.13362 l -0.0291,-3.93862 3.241,-0.0436 c 0.43601,0 0.82842,-0.1744 1.13363,-0.47961 0.29067,-0.3052 0.45054,-0.71215 0.45054,-1.13362 0,-0.43601 -0.1744,-0.82842 -0.47961,-1.11909 -0.33427,-0.31974 -0.74122,-0.49415 -1.10456,-0.45055 l -3.241,0.0436 -0.0436,-6.48201 3.29914,-0.0436 c 0.43601,0 0.82841,-0.1744 1.11909,-0.47961 0.3052,-0.305206 0.46507,-0.712148 0.45054,-1.133624 -0.0145,-0.872018 -0.72668,-1.569633 -1.5987,-1.569633 l -3.29914,0.0436 -0.0291,-3.74968 c -0.0145,-0.872018 -0.72669,-1.584167 -1.613235,-1.584167 -0.43601,0 -0.828418,0.174404 -1.133625,0.47961 -0.305206,0.305207 -0.465076,0.712149 -0.465076,1.133625 l 0.02907,3.778746 -3.241002,0.0436 c -0.421476,0 -0.828418,0.174404 -1.11909,0.479611 -0.290673,0.305206 -0.450543,0.712148 -0.450543,1.133624 0.01453,0.872018 0.726682,1.569638 1.5987,1.569638 l 3.241003,-0.0436 0.0436,6.482 -3.299136,0.0436 c -0.43601,0.0145 -0.828418,0.17441 -1.119091,0.49415 -0.290673,0.3052 -0.450543,0.71214 -0.450543,1.13362 0,0.82842 0.726682,1.54057 1.584167,1.54057"
   id="path20"
   style="stroke-width:1.45336" /><path
   class="st1"
   d="m 132.41002,178.37993 h -19.56228 v -39.58964 c 0,-7.10695 -5.76986,-12.87681 -12.876807,-12.87681 -7.106951,0 -12.876807,5.76986 -12.876807,12.87681 v 39.58964 H 67.531844 c -5.493717,0 -10.071814,4.46183 -10.202617,9.95555 l 1.889374,3.25553 1.860306,-3.27007 c 0.145336,-3.4154 3.022997,-6.1768 6.438403,-6.1768 h 7.906301 l -0.79935,1.40977 c -0.842951,1.45336 -1.293494,3.1102 -1.337095,4.7961 l 1.87484,3.25554 1.889373,-3.27007 c 0.130803,-3.41541 3.022998,-6.1768 6.438404,-6.1768 l 5.450115,-0.0145 c 1.046423,0 1.889374,-0.84295 1.889374,-1.87483 v -41.46449 c 0,-5.02864 4.098487,-9.12712 9.127127,-9.12712 5.028641,0 9.127131,4.09848 9.127131,9.12712 v 41.46449 c 0,1.03188 0.84295,1.87483 1.87484,1.87483 l 5.47918,0.0145 c 3.4154,0 6.3076,2.76139 6.4384,6.1768 l 1.87484,3.27007 1.88938,-3.25554 c -0.0436,-1.6859 -0.49415,-3.34274 -1.3371,-4.7961 l -0.79935,-1.40977 h 7.9063 c 3.41541,0 6.3076,2.77593 6.43841,6.1768 l 1.88937,3.27007 1.87484,-3.25553 c -0.1308,-5.50825 -4.69437,-9.95555 -10.20262,-9.95555"
   id="path22"
   style="stroke-width:1.45336" />















</svg>
