<svg xmlns="http://www.w3.org/2000/svg" width="192" height="316" viewBox="0 0 192 316">
  <defs>
    <style>
      .cls-1 {
        fill: #4b5fef;
      }

      .cls-2 {
        fill: #7687ff;
      }

      .cls-3 {
        fill: #1b2559;
      }

      .cls-12, .cls-4 {
        fill: #fff;
      }

      .cls-4, .cls-7, .cls-9 {
        opacity: 0.74;
      }

      .cls-5 {
        fill: #b8c2e6;
      }

      .cls-6 {
        fill: #d2d8ff;
      }

      .cls-11, .cls-7 {
        fill: #5a67ff;
      }

      .cls-8 {
        fill: #ebefff;
      }

      .cls-9 {
        fill: #ccd8ff;
      }

      .cls-10 {
        fill: #dee5fc;
        opacity: 0.8;
      }
    </style>
  </defs>
  <g id="Layer_1" data-name="Layer 1">
    <g>
      <g>
        <polyline class="cls-1" points="121.27 214.22 68.77 244.64 32.31 223.53 121.27 172"/>
        <polygon class="cls-2" points="30.32 222.37 121.26 169.7 161.68 193.11 70.74 245.78 30.32 222.37"/>
        <polygon class="cls-1" points="70.74 292.59 161.69 239.93 161.68 193.11 70.74 245.78 70.74 292.59"/>
        <polygon class="cls-3" points="121.27 172 121.27 214.22 139.5 203.67 157.72 193.11 121.27 172"/>
      </g>
      <g>
        <polygon class="cls-4" points="30.32 163.85 141.47 99.48 181.89 122.89 70.74 187.26 30.32 163.85"/>
        <polyline class="cls-5" points="141.48 144 68.77 186.12 32.31 165.01 141.48 101.78"/>
        <polygon class="cls-6" points="70.74 234.07 181.9 169.7 181.89 122.89 70.74 187.26 70.74 234.07"/>
        <polygon class="cls-7" points="141.48 101.78 141.48 144 159.71 133.44 177.93 122.89 141.48 101.78"/>
      </g>
      <g>
        <polygon class="cls-4" points="30.32 105.33 141.47 40.96 181.89 64.37 70.74 128.74 30.32 105.33"/>
        <polyline class="cls-5" points="141.48 85.48 68.77 127.6 32.31 106.49 141.48 43.26"/>
        <polygon class="cls-6" points="70.74 175.55 181.9 111.18 181.89 64.37 70.74 128.74 70.74 175.55"/>
        <polygon class="cls-7" points="141.48 43.26 141.48 85.48 159.71 74.92 177.93 64.37 141.48 43.26"/>
      </g>
      <polygon class="cls-8" points="10.1 70.22 10.11 280.89 70.74 316 70.74 105.33 10.1 70.22"/>
      <g>
        <polygon class="cls-9" points="70.74 105.33 192 35.11 192 245.78 70.74 316 70.74 105.33"/>
        <polygon class="cls-10" points="10.1 70.22 131.37 0 192 35.11 70.74 105.33 10.1 70.22"/>
      </g>
      <g>
        <polygon class="cls-6" points="20.21 169.71 60.63 193.11 60.63 239.93 20.21 216.52 20.21 169.71"/>
        <path class="cls-8" d="M32.61,210.69c0-7.57,9.51-3.1,9.51-7.41a5.94,5.94,0,0,0-3.07-4.79c-2.36-1.36-3.65.41-3.65.41l-2.73-3.49s1.87-3.15,6.7-.43c3.56,2,6.57,6.06,6.57,10.2,0,7-9.08,2.71-9.18,6.67l9.5,5.92v3.44l-13.48-8.55A16.93,16.93,0,0,1,32.61,210.69Z"/>
      </g>
      <polygon class="cls-6" points="20.21 111.18 60.63 134.59 60.63 181.41 20.21 158 20.21 111.18"/>
      <g id="front-drawerr">
        <polyline class="cls-2" points="60.63 251.63 40.42 263.33 0 239.93 20.21 228.22"/>
        <polygon class="cls-11" points="0 239.93 40.42 263.33 40.42 310.15 0 286.74 0 239.93"/>
        <polygon class="cls-1" points="40.42 310.15 60.63 298.44 60.63 251.63 40.42 263.33 40.42 310.15"/>
        <polyline class="cls-1" points="58.65 250.48 40.42 261.04 3.97 239.93 22.2 229.37"/>
        <polygon class="cls-3" points="22.2 229.37 22.2 250.48 40.42 261.04 58.65 250.48 22.2 229.37"/>
        <path class="cls-12" d="M14.55,279a16.52,16.52,0,0,0,4.6,4.93c2.12,1.32,3.66,1,3.66-.75,0-2.14-2-4.38-4.34-5.86l-1.4-.87-.82-2.4L20,271.93a8,8,0,0,1,1.45-.63v-.06s-.59-.29-1.79-1l-6-3.77v-3.17L26,271v2.32L21,276c2.8,2.14,5.54,5.86,5.54,9.38s-2.63,5-7.15,2.2a22,22,0,0,1-6.72-6.91Z"/>
      </g>
      <path class="cls-8" d="M32.29,147.62l4.4,2.95,0-11.26c0-.69,0-1.36,0-1.36l-.06,0a1.72,1.72,0,0,1-.88.55l-1.63.45L32,135.19l5.09-1.49,3.22,2.15V153l4.4,3v3.17l-12.42-8.31Z"/>
    </g>
  </g>
</svg>
