<svg width="14" height="14" viewBox="0 0 14 14" fill="none" xmlns="http://www.w3.org/2000/svg">
<path d="M6.8457 6.07693H10.0765" stroke="white" stroke-linecap="round"/>
<path d="M6.8457 7.92309H11.4611" stroke="white" stroke-linecap="round"/>
<path d="M6.8457 9.76925H11.4611" stroke="white" stroke-linecap="round"/>
<path fill-rule="evenodd" clip-rule="evenodd" d="M13 12H5L5 1L10.3333 1L13 4.0229V12Z" stroke="white" stroke-linecap="round" stroke-linejoin="round"/>
<path fill-rule="evenodd" clip-rule="evenodd" d="M10 1V3.76923H12.7692L10 1Z" stroke="white" stroke-linejoin="round"/>
<path fill-rule="evenodd" clip-rule="evenodd" d="M4.69231 13.3846C6.73151 13.3846 8.38462 11.7315 8.38462 9.69231C8.38462 7.6531 6.73151 6 4.69231 6C2.6531 6 1 7.6531 1 9.69231C1 11.7315 2.6531 13.3846 4.69231 13.3846Z" fill="#5F668A" stroke="white"/>
<path d="M4.69163 7.97803V11.5385" stroke="white" stroke-linecap="round" stroke-linejoin="round"/>
<path d="M2.8457 9.69231L4.69186 7.84616L6.53801 9.69231" stroke="white" stroke-linecap="round" stroke-linejoin="round"/>
</svg>
