<svg id="Layer_1" data-name="Layer 1" xmlns="http://www.w3.org/2000/svg" viewBox="0 0 264.9 300"><defs><style>.cls-1{fill:#4b5fef;}.cls-2{fill:#7687ff;}.cls-3{fill:#1b2559;}.cls-4{fill:#ebefff;}.cls-5{fill:#ccd8ff;opacity:0.74;}.cls-6{fill:#dee5fc;opacity:0.8;}.cls-7{fill:#5a67ff;}.cls-8{fill:#fff;}.cls-9{fill:#48f694;}.cls-10{fill:#41de85;}.cls-11{fill:#00cd5a;}</style></defs><title>both-filled</title><polyline class="cls-1" points="122.26 156.51 69.33 187.09 32.58 165.87 122.26 114.07"/><polygon class="cls-2" points="30.57 164.7 122.26 111.76 163.01 135.29 71.32 188.24 30.57 164.7"/><polygon class="cls-1" points="71.32 235.29 163.02 182.35 163.01 135.29 71.32 188.24 71.32 235.29"/><polygon class="cls-3" points="122.26 114.07 122.26 156.51 140.64 145.9 159.02 135.29 122.26 114.07"/><polyline class="cls-1" points="122.27 97.69 69.34 128.26 32.58 107.04 122.27 55.25"/><polygon class="cls-2" points="30.57 105.88 122.26 52.94 163.02 76.47 71.32 129.41 30.57 105.88"/><polygon class="cls-4" points="10.19 70.59 10.19 223.53 71.32 258.82 71.32 105.88 10.19 70.59"/><polygon class="cls-1" points="71.32 176.47 163.02 123.53 163.02 76.47 71.32 129.41 71.32 176.47"/><polygon class="cls-3" points="122.27 55.25 122.27 97.69 140.65 87.08 159.02 76.47 122.27 55.25"/><polygon class="cls-5" points="71.32 105.88 193.58 35.29 193.59 188.23 71.32 258.82 71.32 105.88"/><polygon class="cls-6" points="10.19 70.59 132.45 0 193.58 35.29 71.32 105.88 10.19 70.59"/><polygon class="cls-7" points="0 182.35 40.76 205.88 40.76 252.94 0 229.41 0 182.35"/><polygon class="cls-1" points="40.76 252.94 61.13 241.18 61.13 194.12 40.76 205.88 40.76 252.94"/><polyline class="cls-2" points="61.13 194.12 40.76 205.88 0 182.35 20.38 170.59"/><polyline class="cls-1" points="59.13 192.96 40.76 203.57 4 182.35 22.38 171.74"/><polygon class="cls-3" points="22.38 171.74 22.38 192.96 40.76 203.57 59.13 192.96 22.38 171.74"/><path class="cls-8" d="M13.5,223.73c0-7.57,9.59-3.1,9.59-7.41A6,6,0,0,0,20,211.53c-2.39-1.37-3.69.4-3.69.4l-2.75-3.49s1.88-3.16,6.76-.43c3.58,2,6.62,6.06,6.62,10.21,0,7.06-9.16,2.71-9.25,6.68l9.57,5.93v3.44l-13.59-8.56A16.91,16.91,0,0,1,13.5,223.73Z"/><polygon class="cls-7" points="0 123.53 40.76 147.06 40.76 194.12 0 170.59 0 123.53"/><polygon class="cls-1" points="40.76 194.12 61.14 182.35 61.13 135.29 40.76 147.06 40.76 194.12"/><polyline class="cls-2" points="61.13 135.29 40.76 147.06 0 123.53 20.38 111.77"/><polyline class="cls-1" points="59.13 134.14 40.76 144.75 4 123.53 22.38 112.92"/><polygon class="cls-3" points="22.38 112.92 22.38 134.14 40.76 144.75 59.13 134.14 22.38 112.92"/><path class="cls-8" d="M13,163.07l4.44,3V154.74c0-.69,0-1.35,0-1.35l0,0a1.8,1.8,0,0,1-.9.55l-1.64.46-2.18-3.75,5.13-1.49,3.24,2.16v17.15l4.44,2.95v3.18L13,166.24Z"/><path class="cls-4" d="M81.51,111.76v153L142.64,300V147.06Z"/><g id="Drawer_2" data-name="Drawer 2"><g id="rest_of_drawer" data-name="rest of drawer"><polygon id="Inner_right_side" data-name="Inner right side" class="cls-1" points="193.59 138.87 112.08 185.93 75.32 164.71 193.59 96.43 193.59 138.87"/><polygon class="cls-3" points="93.7 175.31 93.7 154.1 102.77 148.86 102.77 180.6 93.7 175.31"/><polygon id="Back" class="cls-3" points="193.59 96.43 193.59 138.87 211.97 128.26 230.34 117.65 193.59 96.43"/><polygon class="cls-9" points="121.86 190.88 193.59 149.47 193.59 116.95 93.7 174.62 121.86 190.88"/><polygon class="cls-9" points="193.59 116.95 193.59 149.47 221.74 133.21 193.59 116.95"/><polygon class="cls-10" points="93.7 175.22 93.7 174.62 121.86 190.88 121.34 191.18 93.7 175.22"/><polygon class="cls-9" points="121.86 189.28 193.59 147.87 193.59 115.35 93.7 173.02 121.86 189.28"/><polygon class="cls-9" points="193.59 115.35 193.59 147.87 221.74 131.61 193.59 115.35"/><polygon class="cls-10" points="93.7 173.62 93.7 173.02 121.86 189.28 121.34 189.58 93.7 173.62"/><polygon class="cls-9" points="121.86 187.68 193.59 146.26 193.59 113.75 93.7 171.42 121.86 187.68"/><polygon class="cls-9" points="193.59 113.75 193.59 146.26 221.74 130.01 193.59 113.75"/><polygon class="cls-10" points="93.7 172.02 93.7 171.42 121.86 187.68 121.34 187.98 93.7 172.02"/><polygon class="cls-9" points="121.86 186.08 193.59 144.66 193.59 112.15 93.7 169.82 121.86 186.08"/><polygon class="cls-9" points="193.59 112.15 193.59 144.66 221.74 128.41 193.59 112.15"/><polygon class="cls-10" points="93.7 170.42 93.7 169.82 121.86 186.08 121.34 186.38 93.7 170.42"/><polygon class="cls-9" points="121.86 184.48 193.59 143.06 193.59 110.55 93.7 168.22 121.86 184.48"/><polygon class="cls-9" points="193.59 110.55 193.59 143.06 221.74 126.81 193.59 110.55"/><polygon class="cls-10" points="93.7 168.82 93.7 168.22 121.86 184.48 121.34 184.78 93.7 168.82"/><polygon class="cls-9" points="121.86 182.68 193.59 141.26 193.59 108.75 93.7 166.42 121.86 182.68"/><polygon class="cls-9" points="193.59 108.75 193.59 141.26 221.74 125.01 193.59 108.75"/><polygon class="cls-10" points="93.7 167.02 93.7 166.42 121.86 182.68 121.34 182.98 93.7 167.02"/><polygon class="cls-9" points="121.86 181.08 193.59 139.66 193.59 107.15 93.7 164.82 121.86 181.08"/><polygon class="cls-9" points="193.59 107.15 193.59 139.66 221.74 123.41 193.59 107.15"/><polygon class="cls-10" points="93.7 165.42 93.7 164.82 121.86 181.08 121.34 181.38 93.7 165.42"/><polygon class="cls-9" points="121.86 179.48 193.59 138.06 193.59 105.55 93.7 163.22 121.86 179.48"/><polygon class="cls-9" points="193.59 105.55 193.59 138.06 221.74 121.81 193.59 105.55"/><polygon class="cls-10" points="93.7 163.82 93.7 163.22 121.86 179.48 121.86 180.08 93.7 163.82"/><polygon class="cls-10" points="221.74 122.41 221.74 121.81 121.86 179.48 121.86 180.08 221.74 122.41"/><polygon class="cls-9" points="121.86 177.88 193.59 136.47 193.59 103.95 93.7 161.62 121.86 177.88"/><polygon class="cls-9" points="193.59 103.95 193.59 136.47 221.74 120.21 193.59 103.95"/><polygon class="cls-10" points="93.7 162.22 93.7 161.62 121.86 177.88 121.86 178.48 93.7 162.22"/><polygon class="cls-10" points="221.74 120.81 221.74 120.21 121.86 177.88 121.86 178.48 221.74 120.81"/><path class="cls-11" d="M168,135.59c-5-2.91-13.27-2.91-18.3,0s-5,7.66,0,10.56,13.27,2.91,18.3,0S173,138.49,168,135.59Z"/><polygon id="Outer_right_side" data-name="Outer right side" class="cls-1" points="112.08 294.12 234.34 223.53 234.34 117.65 112.08 188.24 112.08 294.12"/></g><g id="Front_drawer" data-name="Front drawer"><polygon id="Front" class="cls-7" points="71.32 164.71 112.08 188.24 112.08 294.12 71.32 270.59 71.32 164.71"/><path id="Top_edge" data-name="Top edge" class="cls-2" d="M71.32,164.71l40.76,23.53,122.26-70.59L193.58,94.12Zm40.76,21.22L75.32,164.71,193.59,96.43l36.75,21.22Z"/></g><line class="cls-9" x1="93.7" y1="164.02" x2="121.86" y2="180.28"/></g><polygon class="cls-4" points="132.46 223.53 132.45 176.47 81.51 147.06 81.51 111.76 142.64 147.06 142.64 167.65 142.64 167.65 142.64 179.58 142.64 182.35 142.64 182.35 142.64 300 132.46 294.12 132.46 235.3 132.46 223.53"/><polygon id="left_part_box" data-name="left part box" class="cls-5" points="142.64 147.06 264.9 76.47 264.9 229.41 142.64 300 142.64 147.06"/><polygon id="top_part_box" data-name="top part box" class="cls-6" points="81.51 111.76 203.77 41.18 264.9 76.47 142.64 147.06 81.51 111.76"/></svg>