<?xml version="1.0" encoding="UTF-8"?>
<svg width="32px" height="32px" viewBox="0 0 24 24" version="1.1" xmlns="http://www.w3.org/2000/svg" xmlns:xlink="http://www.w3.org/1999/xlink">
    <g id="↳-notification-center" stroke="none" stroke-width="1" fill="none" fill-rule="evenodd" stroke-linecap="round" stroke-linejoin="round">
        <g id="notification-center_v01a#2-(open)" transform="translate(-1023.000000, -459.000000)" stroke="#1B2559">
            <g id="Group-5" transform="translate(1000.000000, 0.000000)">
                <g id="icon/sf-small/wrench" transform="translate(24.000000, 460.000000)">
                    <path d="M15.7602493,3.10720971 L13.1962412,5.67121772 L10.3290323,5.67121772 L10.3290323,2.80400876 L12.8930403,0.24000075 C12.4378389,0.0872002725 11.9506373,0 11.4434358,0 C8.9282279,0 6.88822153,2.04000637 6.88822153,4.55681424 C6.88822153,5.08081588 6.98102182,5.58321745 7.14422233,6.05201891 L0.580201813,12.6168394 C-0.193400604,13.3904418 -0.193400604,14.6456458 0.580201813,15.4200482 C1.35460423,16.1936506 2.60980816,16.1936506 3.38341057,15.4200482 L9.94823109,8.85602767 C10.4170326,9.01922818 10.9186341,9.11202847 11.4434358,9.11202847 C13.9602436,9.11202847 16.00025,7.0720221 16.00025,4.55681424 C16.00025,4.04961265 15.9130497,3.56241113 15.7602493,3.10720971 Z" id="Stroke-1"></path>
                </g>
            </g>
        </g>
    </g>
</svg>