<?xml version="1.0" encoding="UTF-8"?>
<svg width="12px" height="12px" viewBox="0 0 12 12" version="1.1" xmlns="http://www.w3.org/2000/svg" xmlns:xlink="http://www.w3.org/1999/xlink">
    <!-- Generator: Sketch 60.1 (88133) - https://sketch.com -->
    <desc>Created with Sketch.</desc>
    <g id="icon/button/configure/zodiac" stroke="none" stroke-width="1" fill="none" fill-rule="evenodd" stroke-linecap="round" stroke-linejoin="round">
        <path d="M7.341,9.85819137 L8.755,9.06119137 L10.144,10.4221914 C11.096,9.57519137 11.726,8.47119137 11.993,7.28619137 L10.096,6.79319137 L10.096,5.19919137 L12,4.70419137 C11.868,4.11919137 11.644,3.54319137 11.32,2.99619137 C10.997,2.44919137 10.599,1.97119137 10.146,1.56719137 L8.755,2.93019137 L7.341,2.13319137 L7.853,0.282191366 C6.667,-0.0838086336 5.374,-0.102808634 4.147,0.278191366 L4.659,2.13219137 L3.245,2.93019137 L1.857,1.56919137 C0.904,2.41719137 0.276,3.52019137 0.007,4.70619137 L1.904,5.19919137 L1.904,6.79319137 L0,7.28719137 C0.132,7.87319137 0.357,8.44919137 0.68,8.99619137 C1.003,9.54319137 1.402,10.0201914 1.855,10.4241914 L3.245,9.06119137 L4.659,9.85919137 L4.148,11.7101914 C5.333,12.0761914 6.626,12.0941914 7.854,11.7131914 L7.341,9.85819137 Z" id="Stroke-1" stroke="#1B2559"></path>
        <path d="M7.0002,5.99589137 C7.0002,5.44289137 6.5532,4.99589137 6.0002,4.99589137 C5.4472,4.99589137 5.0002,5.44289137 5.0002,5.99589137 C5.0002,6.54889137 5.4472,6.99589137 6.0002,6.99589137 C6.5532,6.99589137 7.0002,6.54889137 7.0002,5.99589137 Z" id="Stroke-3" stroke="#1B2559"></path>
    </g>
</svg>