<?xml version="1.0" encoding="UTF-8"?>
<svg width="34px" height="28px" viewBox="0 0 34 28" version="1.1" xmlns="http://www.w3.org/2000/svg" xmlns:xlink="http://www.w3.org/1999/xlink">
    <!-- Generator: Sketch 56.3 (81716) - https://sketch.com -->
    <title>icon/container/ID</title>
    <desc>Created with Sketch.</desc>
    <defs>
        <rect id="path-1" x="0" y="0" width="34" height="28" rx="8"></rect>
        <rect id="path-3" x="0" y="0" width="34" height="28"></rect>
    </defs>
    <g id="Styleguide" stroke="none" stroke-width="1" fill="none" fill-rule="evenodd">
        <g id="icon/container/ID">
            <g id="color/secondary/zircon" stroke-width="1" fill-rule="evenodd">
                <mask id="mask-2" fill="white">
                    <use xlink:href="#path-1"></use>
                </mask>
                <use id="Mask" fill="#EBEFFF" xlink:href="#path-1"></use>
                <g mask="url(#mask-2)">
                    <mask id="mask-4" fill="white">
                        <use xlink:href="#path-3"></use>
                    </mask>
                    <use id="Background" fill="#EBEFFF" fill-rule="evenodd" xlink:href="#path-3"></use>
                </g>
            </g>
            <g id="icon/ID/phone/zodiac" transform="translate(6.000000, 6.000000)" stroke="#1B2559" stroke-linecap="round" stroke-linejoin="round" stroke-width="1.6">
                <path d="M6.47150618,12.52898 C9.939556,15.9970298 13.7804112,16.1146315 15.4756355,15.9586292 C16.0220434,15.9090285 16.5308507,15.6578249 16.9188563,15.2698193 L19.0004862,13.1881894 L17.0220577,11.210561 L15.0436293,10.5505516 L13.7244104,11.8697705 C13.7244104,11.8697705 12.4059914,13.1881894 9.10914407,9.89054208 C5.81229671,6.59449473 7.13071565,5.27527578 7.13071565,5.27527578 L8.4499346,3.95605683 L7.78992512,1.97842842 L5.81229671,0 L3.73066681,2.0816299 C3.34186123,2.46963548 3.09145763,2.97844279 3.04105691,3.52485063 C2.88585468,5.22007499 3.00345637,9.06013015 6.47150618,12.52898 Z" id="Stroke-1-Copy"></path>
            </g>
        </g>
    </g>
</svg>