<?xml version="1.0" encoding="UTF-8"?>
<svg width="22px" height="22px" viewBox="0 0 22 22" version="1.1" xmlns="http://www.w3.org/2000/svg" xmlns:xlink="http://www.w3.org/1999/xlink">
    <!-- Generator: Sketch 56.3 (81716) - https://sketch.com -->
    <title>icon/action/help-w</title>
    <desc>Created with Sketch.</desc>
    <g id="Styleguide" stroke="none" stroke-width="1" fill="none" fill-rule="evenodd">
        <g id="icon/action/help-w" fill="#FFFFFF">
            <path d="M20.0004,11 C20.0004,6.03028475 15.9701153,2 11.0004,2 C6.03004556,2 2.0004,6.02992391 2.0004,11 C2.0004,15.9700761 6.03004556,20 11.0004,20 C15.9701153,20 20.0004,15.9697153 20.0004,11 Z M22.0004,11 C22.0004,17.0742847 17.0746847,22 11.0004,22 C4.92544514,22 0.000400000001,17.0746147 0.000400000001,11 C0.000400000001,4.92538534 4.92544514,0 11.0004,0 C17.0746847,0 22.0004,4.92571525 22.0004,11 Z" id="Stroke-1" fill-rule="nonzero"></path>
            <path d="M9.9164,8.9063 C9.9164,9.45858475 9.46868475,9.9063 8.9164,9.9063 C8.36411525,9.9063 7.9164,9.45858475 7.9164,8.9063 C7.9164,6.89094438 9.72972438,5.35290249 11.7463843,5.7072003 C13.0663562,5.93764844 14.1348314,7.00654285 14.3652323,8.32479116 C14.6130182,9.7312185 13.941375,11.0876584 12.732214,11.7545735 C12.370484,11.9534687 12.1664,12.2664153 12.1664,12.5913 L12.1664,12.6563 C12.1664,13.2085847 11.7186847,13.6563 11.1664,13.6563 C10.6141153,13.6563 10.1664,13.2085847 10.1664,12.6563 L10.1664,12.5913 C10.1664,11.5009567 10.7946963,10.5375141 11.7674377,10.0026589 C12.2360927,9.74417086 12.493064,9.22519581 12.3953326,8.67046887 C12.3098185,8.1811985 11.8915858,7.76280177 11.4013649,7.67721566 C10.6126181,7.53864454 9.9164,8.1291691 9.9164,8.9063 Z" id="Stroke-3" fill-rule="nonzero"></path>
            <path d="M10.1039,15.2188 C10.1039,14.6318 10.5799,14.1568 11.1659,14.1568 C11.7529,14.1568 12.2289,14.6318 12.2289,15.2188 C12.2289,15.8058 11.7529,16.2808 11.1659,16.2808 C10.5799,16.2808 10.1039,15.8058 10.1039,15.2188" id="Fill-5" fill-rule="evenodd"></path>
        </g>
    </g>
</svg>