<svg id="Layer_1" data-name="Layer 1" xmlns="http://www.w3.org/2000/svg" viewBox="0 0 193.58 258.82"><defs><style>.cls-1{fill:#ebefff;}.cls-2{fill:#4b5fef;}.cls-3{fill:#1b2559;}.cls-4{fill:#48f694;}.cls-5{fill:#41de85;}.cls-6{fill:#00cd5a;}.cls-7{fill:#5a67ff;}.cls-8{fill:#7687ff;}.cls-9{fill:#ccd8ff;opacity:0.74;}.cls-10{fill:#dee5fc;opacity:0.8;}</style></defs><title>acceptor-left-filled</title><path class="cls-1" d="M122.26,105.88V258.82l61.13-35.29V70.59Z"/><g id="Drawer_2" data-name="Drawer 2"><g id="rest_of_drawer" data-name="rest of drawer"><polygon id="Inner_right_side" data-name="Inner right side" class="cls-2" points="71.32 97.69 152.83 144.75 189.58 123.53 71.32 55.25 71.32 97.69"/><polygon class="cls-3" points="171.21 134.14 171.21 112.92 162.13 107.68 162.13 139.43 171.21 134.14"/><polygon id="Back" class="cls-3" points="71.32 55.25 71.32 97.69 52.94 87.08 34.56 76.47 71.32 55.25"/><polygon class="cls-4" points="143.05 149.7 71.32 108.29 71.32 75.78 171.21 133.45 143.05 149.7"/><polygon class="cls-4" points="71.32 75.78 71.32 108.29 43.16 92.03 71.32 75.78"/><polygon class="cls-5" points="171.21 134.05 171.21 133.45 143.05 149.7 143.57 150 171.21 134.05"/><polygon class="cls-4" points="143.05 148.1 71.32 106.69 71.32 74.18 171.21 131.85 143.05 148.1"/><polygon class="cls-4" points="71.32 74.18 71.32 106.69 43.16 90.43 71.32 74.18"/><polygon class="cls-5" points="171.21 132.45 171.21 131.85 143.05 148.1 143.57 148.4 171.21 132.45"/><polygon class="cls-4" points="143.05 146.5 71.32 105.09 71.32 72.58 171.21 130.25 143.05 146.5"/><polygon class="cls-4" points="71.32 72.58 71.32 105.09 43.16 88.83 71.32 72.58"/><polygon class="cls-5" points="171.21 130.85 171.21 130.25 143.05 146.5 143.57 146.8 171.21 130.85"/><polygon class="cls-4" points="143.05 144.9 71.32 103.49 71.32 70.98 171.21 128.65 143.05 144.9"/><polygon class="cls-4" points="71.32 70.98 71.32 103.49 43.16 87.23 71.32 70.98"/><polygon class="cls-5" points="171.21 129.25 171.21 128.65 143.05 144.9 143.57 145.2 171.21 129.25"/><polygon class="cls-4" points="143.05 143.3 71.32 101.89 71.32 69.38 171.21 127.05 143.05 143.3"/><polygon class="cls-4" points="71.32 69.38 71.32 101.89 43.16 85.63 71.32 69.38"/><polygon class="cls-5" points="171.21 127.65 171.21 127.05 143.05 143.3 143.57 143.6 171.21 127.65"/><polygon class="cls-4" points="143.05 141.5 71.32 100.09 71.32 67.58 171.21 125.25 143.05 141.5"/><polygon class="cls-4" points="71.32 67.58 71.32 100.09 43.16 83.83 71.32 67.58"/><polygon class="cls-5" points="171.21 125.85 171.21 125.25 143.05 141.5 143.57 141.8 171.21 125.85"/><polygon class="cls-4" points="143.05 139.9 71.32 98.49 71.32 65.98 171.21 123.65 143.05 139.9"/><polygon class="cls-4" points="71.32 65.98 71.32 98.49 43.16 82.23 71.32 65.98"/><polygon class="cls-5" points="171.21 124.25 171.21 123.65 143.05 139.9 143.57 140.2 171.21 124.25"/><polygon class="cls-4" points="143.05 138.3 71.32 96.89 71.32 64.38 171.21 122.05 143.05 138.3"/><polygon class="cls-4" points="71.32 64.38 71.32 96.89 43.16 80.63 71.32 64.38"/><polygon class="cls-5" points="171.21 122.65 171.21 122.05 143.05 138.3 143.05 138.9 171.21 122.65"/><polygon class="cls-5" points="43.16 81.23 43.16 80.63 143.05 138.3 143.05 138.9 43.16 81.23"/><polygon class="cls-4" points="143.05 136.7 71.32 95.29 71.32 62.78 171.21 120.45 143.05 136.7"/><polygon class="cls-4" points="71.32 62.78 71.32 95.29 43.16 79.03 71.32 62.78"/><polygon class="cls-5" points="171.21 121.05 171.21 120.45 143.05 136.7 143.05 137.3 171.21 121.05"/><polygon class="cls-5" points="43.16 79.63 43.16 79.03 143.05 136.7 143.05 137.3 43.16 79.63"/><path class="cls-6" d="M97,94.41c5-2.9,13.26-2.9,18.29,0s5,7.66,0,10.56S102,107.88,97,105,91.92,97.32,97,94.41Z"/><polygon id="Outer_right_side" data-name="Outer right side" class="cls-2" points="152.83 252.94 30.57 182.35 30.57 76.47 152.83 147.06 152.83 252.94"/></g><g id="Front_drawer" data-name="Front drawer"><polygon id="Front" class="cls-7" points="193.58 123.53 152.83 147.06 152.83 252.94 193.58 229.41 193.58 123.53"/><path id="Top_edge" data-name="Top edge" class="cls-8" d="M71.32,52.94,30.57,76.47l122.26,70.59,40.75-23.53ZM34.56,76.47,71.32,55.25l118.26,68.28-36.75,21.22Z"/></g><line class="cls-4" x1="171.21" y1="122.85" x2="143.05" y2="139.1"/></g><polygon class="cls-1" points="132.45 182.36 132.45 135.29 183.4 105.88 183.4 70.59 122.26 105.88 122.26 126.47 122.26 126.47 122.26 138.4 122.26 141.18 122.26 141.18 122.26 258.82 132.45 252.94 132.45 194.12 132.45 182.36"/><polygon id="left_part_box" data-name="left part box" class="cls-9" points="122.26 105.88 0 35.29 0 188.23 122.26 258.82 122.26 105.88"/><polygon id="top_part_box" data-name="top part box" class="cls-10" points="183.4 70.59 61.13 0 0 35.29 122.26 105.88 183.4 70.59"/></svg>