<svg xmlns="http://www.w3.org/2000/svg" viewBox="0 0 193.58259 258.82261"><defs><style>.a,.l{fill:#fff;}.a,.d,.j{opacity:0.74;}.b,.j{fill:#ccd8ff;}.c{fill:#d2d8ff;}.d,.h{fill:#5a67ff;}.e{fill:#4b5fef;}.f{fill:#7687ff;}.g{fill:#ebefff;}.i{fill:#1b2559;}.k{fill:#dee5fc;opacity:0.8;}.m{fill:#aebaff;}</style></defs><title>v2-1</title><polygon class="a" points="163.012 164.703 50.942 100 10.189 123.53 122.263 188.236 163.012 164.703"/><polyline class="b" points="50.938 144.748 124.248 187.087 161.003 165.867 50.938 102.309"/><polygon class="c" points="122.261 235.293 10.186 170.589 10.189 123.53 122.261 188.234 122.261 235.293"/><polygon class="d" points="50.938 102.309 50.938 144.748 32.56 134.14 14.184 123.529 50.938 102.309"/><polyline class="e" points="71.317 97.688 124.249 128.264 161.004 107.044 71.317 55.25"/><polygon class="f" points="163.013 105.88 71.32 52.94 30.568 76.47 122.264 129.413 163.013 105.88"/><polygon class="g" points="183.396 70.586 183.393 223.529 122.26 258.823 122.264 105.88 183.396 70.586"/><polygon class="c" points="173.205 170.589 132.45 194.119 132.45 241.178 173.206 217.648 173.205 170.589"/><polygon class="h" points="193.582 123.529 152.827 147.059 152.827 194.118 193.583 170.587 193.582 123.529"/><polygon class="e" points="152.827 194.118 132.448 182.353 132.451 135.294 152.827 147.059 152.827 194.118"/><polygon class="e" points="122.261 176.47 30.565 123.529 30.568 76.47 122.261 129.411 122.261 176.47"/><polyline class="f" points="132.451 135.294 152.827 147.059 193.582 123.529 173.206 111.765"/><polyline class="e" points="134.451 134.138 152.827 144.749 189.582 123.53 171.205 112.918"/><polygon class="i" points="171.205 112.918 171.205 134.138 152.827 144.749 134.451 134.138 171.205 112.918"/><polygon class="i" points="71.317 55.25 71.317 97.688 52.939 87.081 34.563 76.47 71.317 55.25"/><polygon class="j" points="122.264 105.88 0.003 35.292 0 188.234 122.26 258.823 122.264 105.88"/><polygon class="k" points="183.396 70.586 61.131 0 0.003 35.292 122.264 105.88 183.396 70.586"/><path class="l" d="M168.29324,169.92639l4.38476-2.48092-.047-11.27756c-.00286-.68706.02246-1.38981.02246-1.38981l-.05636.03136a9.58844,9.58844,0,0,1-.86851,1.6315l-1.60382,2.44627-2.14443-1.10638,4.99115-7.6831,3.16791-1.75169.12588,17.06967,4.38476-2.48092.03567,3.146-12.39164,7.04027Z"/><path class="m" d="M148.46477,220.14711c0-6.74172,8.50209-12.68419,8.49771-16.33186-.00192-1.60372-1.23141-1.8737-2.76652-1.0152a9.13732,9.13732,0,0,0-3.27439,4.03233l-2.4568-.30054a14.47236,14.47236,0,0,1,6.01029-7.06167c3.19687-1.76715,5.91119-1.31443,5.917,2.12668.00994,5.85452-8.13556,11.56521-8.21069,15.11138l8.50983-4.9792.005,2.84873-12.078,7.13776A11.38945,11.38945,0,0,1,148.46477,220.14711Z"/></svg>