<svg xmlns="http://www.w3.org/2000/svg" width="104" height="64">
  <circle cx="52" cy="32" r="32" fill="#F7931A" />
  <path
    d="m66.1 27.4c0.6-4.3-2.6-6.5-7-8.1l1.4-5.8-3.5-0.9-1.4 5.6c-0.9-0.2-1.9-0.4-2.8-0.7l1.4-5.7-3.5-0.9-1.4 5.8c-0.8-0.2-1.5-0.3-2.2-0.5l0 0-4.8-1.2-0.9 3.8s2.6 0.6 2.6 0.6c1.4 0.4 1.7 1.3 1.6 2l-1.6 6.6c0.1 0 0.2 0.1 0.4 0.1-0.1 0-0.2-0.1-0.4-0.1l-2.3 9.2c-0.2 0.4-0.6 1.1-1.6 0.8 0 0.1-2.6-0.6-2.6-0.6l-1.7 4 4.6 1.1c0.9 0.2 1.7 0.4 2.5 0.6l-1.5 5.8 3.5 0.9 1.4-5.8c1 0.3 1.9 0.5 2.8 0.7l-1.4 5.7 3.5 0.9 1.5-5.8c6 1.1 10.5 0.7 12.4-4.7 1.5-4.4-0.1-6.9-3.2-8.5 2.3-0.5 4-2 4.5-5.2zm-8 11.2c-1.1 4.4-8.4 2-10.8 1.4l1.9-7.7c2.4 0.6 10 1.8 8.9 6.3zm1.1-11.3c-1 4-7.1 2-9.1 1.5l1.7-7c2 0.5 8.4 1.4 7.3 5.6z"
    fill="#FFF"
  />
</svg>