<?xml version="1.0" encoding="UTF-8"?>
<svg width="20px" height="20px" viewBox="0 0 20 20" version="1.1" xmlns="http://www.w3.org/2000/svg" xmlns:xlink="http://www.w3.org/1999/xlink">
    <!-- Generator: Sketch 60.1 (88133) - https://sketch.com -->
    <desc>Created with Sketch.</desc>
    <g id="icon/sf-small/wizard/white" stroke="none" stroke-width="1" fill="none" fill-rule="evenodd">
        <path d="M14.4970664,1.62572901 L17.400851,0.330743919 C17.8221202,0.142258155 18.2874637,0.493837818 18.1900901,0.924522905 L17.5084746,3.89537106 C17.4695251,4.06627784 17.5217994,4.2449975 17.6478726,4.37293343 L19.847492,6.58788531 C20.1652376,6.90919006 19.9571655,7.43655955 19.493872,7.48148362 L16.3000163,7.7871626 C16.1165439,7.80376498 15.9535712,7.90630905 15.8643974,8.05963684 L14.3187189,10.7238294 C14.094247,11.110567 13.4997553,11.0861518 13.3132079,10.6818352 L12.0196758,7.90044938 C11.9448519,7.74028532 11.792129,7.62504531 11.6107065,7.59184057 L8.45682536,7.02345345 C7.99968171,6.94044158 7.84080892,6.39842294 8.18827909,6.10446327 L10.5826458,4.07995038 C10.7199939,3.96373377 10.7886679,3.78989716 10.7650933,3.61606055 L10.3622739,0.599311717 C10.3028247,0.162766969 10.7999428,-0.147795067 11.2017372,0.0729188329 L13.9743237,1.6052202 C14.1342215,1.6921385 14.3299937,1.70092799 14.4970664,1.62572901 Z" id="Stroke-1" stroke="#FFFFFF" stroke-width="2"></path>
        <line x1="0" y1="20" x2="12" y2="8" id="Stroke-3" stroke="#FFFFFF" stroke-width="2" stroke-linecap="round"></line>
    </g>
</svg>