<svg xmlns="http://www.w3.org/2000/svg" width="192" height="376.47" viewBox="0 0 192 376.47">
  <defs>
    <style>
      .cls-1 {
        fill: #4b5fef;
      }

      .cls-2 {
        fill: #7687ff;
      }

      .cls-3 {
        fill: #1b2559;
      }

      .cls-12, .cls-4 {
        fill: #fff;
      }

      .cls-4, .cls-7, .cls-9 {
        opacity: 0.74;
      }

      .cls-5 {
        fill: #b8c2e6;
      }

      .cls-6 {
        fill: #d2d8ff;
      }

      .cls-11, .cls-7 {
        fill: #5a67ff;
      }

      .cls-8 {
        fill: #ebefff;
      }

      .cls-9 {
        fill: #ccd8ff;
      }

      .cls-10 {
        fill: #dee5fc;
        opacity: 0.8;
      }
    </style>
  </defs>
  <g id="Layer_1" data-name="Layer 1">
    <g>
      <g>
        <polyline class="cls-1" points="121.26 274.16 68.77 304.73 32.31 283.51 121.26 231.72"/>
        <polygon class="cls-2" points="30.32 282.35 121.26 229.41 161.68 252.94 70.73 305.88 30.32 282.35"/>
        <polygon class="cls-1" points="70.74 352.94 161.68 300 161.68 252.94 70.74 305.88 70.74 352.94"/>
        <polygon class="cls-3" points="121.26 231.72 121.26 274.16 139.49 263.55 157.72 252.94 121.26 231.72"/>
      </g>
      <g>
        <polygon class="cls-4" points="30.33 223.53 141.48 158.82 181.89 182.35 70.74 247.06 30.33 223.53"/>
        <polyline class="cls-5" points="141.48 203.57 68.77 245.91 32.32 224.69 141.48 161.13"/>
        <polygon class="cls-6" points="70.74 294.12 181.9 229.41 181.89 182.35 70.74 247.06 70.74 294.12"/>
        <polygon class="cls-7" points="141.48 161.13 141.48 203.57 159.71 192.96 177.93 182.35 141.48 161.13"/>
      </g>
      <g>
        <polygon class="cls-4" points="30.32 164.7 141.47 100 181.89 123.53 70.73 188.23 30.32 164.7"/>
        <polyline class="cls-5" points="141.47 144.74 68.77 187.08 32.31 165.86 141.47 102.31"/>
        <polygon class="cls-6" points="70.74 235.29 181.89 170.59 181.89 123.53 70.74 188.23 70.74 235.29"/>
        <polygon class="cls-7" points="141.47 102.31 141.47 144.74 159.7 134.14 177.93 123.53 141.47 102.31"/>
      </g>
      <g>
        <polygon class="cls-4" points="30.32 105.88 141.47 41.17 181.89 64.7 70.73 129.41 30.32 105.88"/>
        <polyline class="cls-5" points="141.47 85.92 68.77 128.26 32.31 107.04 141.47 43.48"/>
        <polygon class="cls-6" points="70.74 176.47 181.89 111.76 181.89 64.7 70.74 129.41 70.74 176.47"/>
        <polygon class="cls-7" points="141.47 43.48 141.47 85.92 159.7 75.31 177.93 64.7 141.47 43.48"/>
      </g>
      <polygon class="cls-8" points="10.1 70.58 10.11 341.17 70.74 376.47 70.73 105.88 10.1 70.58"/>
      <polygon class="cls-6" points="20.21 170.59 60.63 194.12 60.63 241.18 20.21 217.65 20.21 170.59"/>
      <polygon class="cls-6" points="20.21 111.76 60.63 135.29 60.63 182.35 20.21 158.82 20.21 111.76"/>
      <g>
        <polygon class="cls-9" points="70.74 105.88 192 35.29 192 305.88 70.74 376.47 70.74 105.88"/>
        <polygon class="cls-10" points="10.11 70.59 131.37 0 192 35.29 70.74 105.88 10.11 70.59"/>
      </g>
      <polygon class="cls-6" points="20.22 288.23 60.64 311.76 60.64 358.82 20.22 335.29 20.22 288.23"/>
      <path class="cls-8" d="M46.75,333.53l-9.35-4.3,0,5.22-3.59-1.67.06-5.2-2.6-1.19.05-3,2.58,1.18L34,312.61l4.26,1.91,8.5,16.73Zm-3.82-4.83v-.06l-4.56-8.59a20.17,20.17,0,0,1-1-2.3l-.06,0a21.54,21.54,0,0,1,.12,2.17l0,6.28Z"/>
      <g id="front-drawerr">
        <polyline class="cls-2" points="60.63 311.76 40.42 323.53 0 300 20.21 288.23"/>
        <polygon class="cls-11" points="0 300 40.42 323.53 40.42 370.59 0 347.06 0 300"/>
        <polygon class="cls-1" points="40.42 370.59 60.63 358.82 60.63 311.76 40.42 323.53 40.42 370.59"/>
        <polyline class="cls-1" points="58.65 310.61 40.42 321.22 3.97 300 22.19 289.39"/>
        <polygon class="cls-3" points="22.19 289.39 22.19 310.61 40.42 321.22 58.65 310.61 22.19 289.39"/>
        <path class="cls-12" d="M23.23,339.27v-12l-4.36-2.36L10.11,333v2.26l9.5,5.12v5.24l3.63,2v-5.24l2.63,1.43v-3.07ZM19.61,331v6.29l-5.6-3v-.06l4.69-4a5.54,5.54,0,0,0,1-1.32l.06,0A17.65,17.65,0,0,0,19.61,331Z"/>
      </g>
      <g>
        <polygon class="cls-6" points="20.22 229.41 60.64 252.94 60.64 300 20.22 276.47 20.22 229.41"/>
        <path class="cls-8" d="M33.74,265.64a16.52,16.52,0,0,0,4.6,4.93c2.12,1.32,3.66,1,3.66-.75,0-2.14-2-4.37-4.34-5.85l-1.4-.88-.82-2.4,3.71-2.09a7.93,7.93,0,0,1,1.46-.63v-.06s-.6-.29-1.8-1l-6-3.78v-3.17l12.38,7.72V260l-5,2.65c2.8,2.15,5.54,5.86,5.54,9.38s-2.64,5-7.16,2.2a22,22,0,0,1-6.72-6.91Z"/>
      </g>
      <path class="cls-8" d="M32.29,147.62l4.4,2.95,0-11.26c0-.69,0-1.36,0-1.36l-.06,0a1.72,1.72,0,0,1-.88.55l-1.63.45L32,135.19l5.09-1.49,3.22,2.15V153l4.4,3v3.17l-12.42-8.31Z"/>
      <path class="cls-8" d="M32.61,210.69c0-7.57,9.51-3.1,9.51-7.41a5.94,5.94,0,0,0-3.07-4.79c-2.36-1.36-3.65.41-3.65.41l-2.73-3.49s1.87-3.15,6.7-.43c3.56,2,6.57,6.06,6.57,10.2,0,7-9.08,2.71-9.18,6.67l9.5,5.92v3.44l-13.48-8.55A16.93,16.93,0,0,1,32.61,210.69Z"/>
    </g>
  </g>
</svg>
