<svg xmlns="http://www.w3.org/2000/svg" width="192" height="376" viewBox="0 0 192 376">
  <defs>
    <style>
      .cls-1, .cls-12 {
        fill: #fff;
      }

      .cls-1, .cls-4, .cls-9 {
        opacity: 0.74;
      }

      .cls-2 {
        fill: #b8c2e6;
      }

      .cls-3 {
        fill: #d2d8ff;
      }

      .cls-11, .cls-4 {
        fill: #5a67ff;
      }

      .cls-5 {
        fill: #4b5fef;
      }

      .cls-6 {
        fill: #7687ff;
      }

      .cls-7 {
        fill: #1b2559;
      }

      .cls-8 {
        fill: #ebefff;
      }

      .cls-9 {
        fill: #ccd8ff;
      }

      .cls-10 {
        fill: #dee5fc;
        opacity: 0.8;
      }
    </style>
  </defs>
  <g id="Layer_1" data-name="Layer 1">
    <g>
      <g>
        <polygon class="cls-1" points="30.32 282 141.47 217.37 181.89 240.87 70.74 305.5 30.32 282"/>
        <polyline class="cls-2" points="141.48 262.06 68.77 304.35 32.31 283.16 141.48 219.68"/>
        <polygon class="cls-3" points="70.74 352.5 181.9 287.87 181.89 240.87 70.74 305.5 70.74 352.5"/>
        <polygon class="cls-4" points="141.48 219.68 141.48 262.06 159.71 251.47 177.93 240.87 141.48 219.68"/>
      </g>
      <g>
        <polygon class="cls-1" points="30.32 223.25 141.47 158.63 181.89 182.13 70.74 246.75 30.32 223.25"/>
        <polyline class="cls-2" points="141.48 203.32 68.77 245.6 32.31 224.41 141.48 160.93"/>
        <polygon class="cls-3" points="70.74 293.75 181.9 229.13 181.89 182.13 70.74 246.75 70.74 293.75"/>
        <polygon class="cls-4" points="141.48 160.93 141.48 203.32 159.71 192.72 177.93 182.13 141.48 160.93"/>
      </g>
      <polyline class="cls-5" points="121.27 156.31 68.77 186.85 32.31 165.66 121.27 113.93"/>
      <polygon class="cls-6" points="30.32 164.5 121.26 111.62 161.68 135.12 70.74 188 30.32 164.5"/>
      <polygon class="cls-5" points="70.74 235 161.69 182.12 161.68 135.12 70.74 188 70.74 235"/>
      <polygon class="cls-7" points="121.27 113.93 121.27 156.31 139.5 145.72 157.72 135.12 121.27 113.93"/>
      <g>
        <polygon class="cls-1" points="30.32 105.75 141.47 41.12 181.89 64.62 70.74 129.25 30.32 105.75"/>
        <polyline class="cls-2" points="141.48 85.81 68.77 128.1 32.31 106.91 141.48 43.43"/>
        <polygon class="cls-3" points="70.74 176.25 181.9 111.62 181.89 64.62 70.74 129.25 70.74 176.25"/>
        <polygon class="cls-4" points="141.48 43.43 141.48 85.81 159.71 75.22 177.93 64.62 141.48 43.43"/>
      </g>
      <polygon class="cls-8" points="10.11 70.5 10.12 340.75 70.75 376 70.74 105.75 10.11 70.5"/>
      <g>
        <polygon class="cls-9" points="70.74 105.75 192 35.25 192 305.5 70.74 376 70.74 105.75"/>
        <polygon class="cls-10" points="10.11 70.5 131.37 0 192 35.25 70.74 105.75 10.11 70.5"/>
      </g>
      <g>
        <polygon class="cls-3" points="20.21 229.12 60.63 252.62 60.63 299.62 20.21 276.12 20.21 229.12"/>
        <path class="cls-8" d="M33.74,265.64a16.52,16.52,0,0,0,4.6,4.93c2.12,1.32,3.66,1,3.66-.75,0-2.14-2-4.37-4.34-5.85l-1.4-.88-.82-2.4,3.71-2.09a7.93,7.93,0,0,1,1.46-.63v-.06s-.6-.29-1.8-1l-6-3.78v-3.17l12.38,7.72V260l-5,2.65c2.8,2.15,5.54,5.86,5.54,9.38s-2.64,5-7.16,2.2a22,22,0,0,1-6.72-6.91Z"/>
      </g>
      <polygon class="cls-3" points="20.21 111.62 60.63 135.12 60.63 182.12 20.21 158.62 20.21 111.62"/>
      <g id="front-drawerr">
        <polyline class="cls-6" points="60.63 193.88 40.42 205.63 0 182.13 20.21 170.38"/>
        <polygon class="cls-11" points="0 182.13 40.42 205.63 40.42 252.63 0 229.13 0 182.13"/>
        <polygon class="cls-5" points="40.42 252.63 60.63 240.88 60.63 193.88 40.42 205.63 40.42 252.63"/>
        <polyline class="cls-5" points="58.65 192.72 40.42 203.32 3.97 182.13 22.19 171.53"/>
        <polygon class="cls-7" points="22.19 171.53 22.19 192.72 40.42 203.32 58.65 192.72 22.19 171.53"/>
        <path class="cls-12" d="M13.39,220.52c0-7.56,9.51-3.1,9.51-7.4a6,6,0,0,0-3.07-4.79c-2.36-1.36-3.65.4-3.65.4l-2.73-3.48s1.87-3.16,6.7-.43c3.56,2,6.57,6.05,6.57,10.19,0,7.05-9.08,2.71-9.18,6.68L27,227.61V231l-13.48-8.55A19,19,0,0,1,13.39,220.52Z"/>
      </g>
      <polygon class="cls-3" points="20.21 287.87 60.64 311.37 60.64 358.37 20.21 334.87 20.21 287.87"/>
      <path class="cls-8" d="M32.29,147.62l4.4,2.95,0-11.26c0-.69,0-1.36,0-1.36l-.06,0a1.72,1.72,0,0,1-.88.55l-1.63.45L32,135.19l5.09-1.49,3.22,2.15V153l4.4,3v3.17l-12.42-8.31Z"/>
      <path class="cls-8" d="M41.49,327.94v-12l-4.36-2.35-8.76,8.08v2.26L37.86,329v5.23l3.63,2V331l2.63,1.42v-3.06Zm-3.62-8.25V326l-5.61-3v-.05l4.7-4a5.87,5.87,0,0,0,1-1.32l.06,0A16.49,16.49,0,0,0,37.87,319.69Z"/>
    </g>
  </g>
</svg>
