<svg xmlns="http://www.w3.org/2000/svg" width="192" height="376" viewBox="0 0 192 376">
  <defs>
    <style>
      .cls-1, .cls-12 {
        fill: #fff;
      }

      .cls-1, .cls-10, .cls-4 {
        opacity: 0.74;
      }

      .cls-2 {
        fill: #b8c2e6;
      }

      .cls-3 {
        fill: #d2d8ff;
      }

      .cls-4, .cls-8 {
        fill: #5a67ff;
      }

      .cls-5 {
        fill: #4b5fef;
      }

      .cls-6 {
        fill: #7687ff;
      }

      .cls-7 {
        fill: #ebefff;
      }

      .cls-9 {
        fill: #1b2559;
      }

      .cls-10 {
        fill: #ccd8ff;
      }

      .cls-11 {
        fill: #dee5fc;
        opacity: 0.8;
      }
    </style>
  </defs>
  <g id="Layer_1" data-name="Layer 1">
    <g>
      <g>
        <polygon class="cls-1" points="161.68 282 50.53 217.37 10.11 240.87 121.26 305.5 161.68 282"/>
        <polyline class="cls-2" points="50.52 262.07 123.23 304.35 159.69 283.16 50.52 219.68"/>
        <polygon class="cls-3" points="121.26 352.5 10.1 287.87 10.11 240.87 121.26 305.5 121.26 352.5"/>
        <polygon class="cls-4" points="50.52 219.68 50.52 262.07 32.3 251.47 14.07 240.87 50.52 219.68"/>
      </g>
      <g>
        <polygon class="cls-1" points="161.68 223.25 50.53 158.63 10.11 182.13 121.26 246.75 161.68 223.25"/>
        <polyline class="cls-2" points="50.52 203.32 123.23 245.6 159.69 224.41 50.52 160.93"/>
        <polygon class="cls-3" points="121.26 293.75 10.1 229.13 10.11 182.13 121.26 246.75 121.26 293.75"/>
        <polygon class="cls-4" points="50.52 160.93 50.52 203.32 32.3 192.72 14.07 182.13 50.52 160.93"/>
      </g>
      <g>
        <polygon class="cls-1" points="161.68 164.5 50.53 99.88 10.11 123.38 121.26 188 161.68 164.5"/>
        <polyline class="cls-2" points="50.52 144.57 123.23 186.85 159.69 165.66 50.52 102.18"/>
        <polygon class="cls-3" points="121.26 235 10.1 170.38 10.11 123.38 121.26 188 121.26 235"/>
        <polygon class="cls-4" points="50.52 102.18 50.52 144.57 32.3 133.97 14.07 123.38 50.52 102.18"/>
      </g>
      <polyline class="cls-5" points="70.73 97.57 123.23 128.1 159.69 106.91 70.73 55.18"/>
      <polygon class="cls-6" points="161.68 105.75 70.74 52.87 30.32 76.38 121.27 129.25 161.68 105.75"/>
      <polygon class="cls-7" points="181.89 70.5 181.89 340.75 121.25 376 121.26 105.75 181.89 70.5"/>
      <polygon class="cls-3" points="171.79 170.38 131.37 193.88 131.37 240.88 171.79 217.38 171.79 170.38"/>
      <polygon class="cls-8" points="192 123.38 151.58 146.88 151.58 193.88 192 170.37 192 123.38"/>
      <polygon class="cls-5" points="151.58 193.88 131.37 182.13 131.37 135.13 151.58 146.88 151.58 193.88"/>
      <polygon class="cls-5" points="121.26 176.25 30.32 123.38 30.32 76.38 121.26 129.25 121.26 176.25"/>
      <polyline class="cls-6" points="131.37 135.13 151.58 146.88 192 123.38 171.79 111.63"/>
      <polyline class="cls-5" points="133.35 133.97 151.58 144.57 188.03 123.38 169.81 112.78"/>
      <polygon class="cls-9" points="169.81 112.78 169.81 133.97 151.58 144.57 133.35 133.97 169.81 112.78"/>
      <polygon class="cls-9" points="70.73 55.18 70.73 97.57 52.51 86.97 34.28 76.37 70.73 55.18"/>
      <g>
        <polygon class="cls-10" points="121.27 105.75 0 35.25 0 305.5 121.26 376 121.27 105.75"/>
        <polygon class="cls-11" points="181.9 70.5 60.63 0 0 35.25 121.27 105.75 181.9 70.5"/>
      </g>
      <path class="cls-12" d="M166.87,169.85l4.35-2.48-.05-11.27c0-.68,0-1.38,0-1.38l-.05,0a9.32,9.32,0,0,1-.87,1.63l-1.59,2.44-2.12-1.11,4.95-7.67,3.14-1.75.12,17.05,4.35-2.48,0,3.14-12.29,7Z"/>
      <path class="cls-7" d="M145.58,219.64c0-7.36,9.32-13.53,9.29-17.54,0-1.76-1.37-2.11-3-1.22-2.32,1.23-3.56,4.3-3.56,4.3l-2.69-.41a15.23,15.23,0,0,1,6.54-7.53c3.47-1.84,6.45-1.24,6.49,2.55.07,6.46-8.86,12.38-8.93,16.26l9.37-5.07,0,3.14-13.34,7.24A13.34,13.34,0,0,1,145.58,219.64Z"/>
      <g>
        <polygon class="cls-3" points="171.79 229.12 131.37 252.62 131.37 299.62 171.79 276.12 171.79 229.12"/>
        <path class="cls-7" d="M147.85,271.1a4.93,4.93,0,0,0,4.55-.35c2.09-1.11,3.6-3.2,3.59-4.93,0-2.13-2-2.11-4.3-.88l-1.38.73-.81-1.47,3.61-6.3c.78-1.35,1.41-2.29,1.41-2.29v-.05s-.58.39-1.75,1l-5.91,3.08v-3.19l12.07-6.27,0,2.3-4.81,8.25c2.75-1,5.46-.47,5.51,3s-2.53,8-7,10.37c-4.28,2.28-6.66.82-6.66.82Z"/>
      </g>
      <polygon class="cls-3" points="171.79 287.87 131.37 311.37 131.37 358.37 171.79 334.87 171.79 287.87"/>
      <path class="cls-7" d="M145.25,330.84l8.51-16.71,4.26-1.91.14,11.92,2.58-1.18,0,3-2.59,1.19.06,5.2-3.6,1.66,0-5.21-9.36,4.29Zm9.34-5.07-.06-6.27a20.14,20.14,0,0,1,.13-2.17l-.06,0a20.39,20.39,0,0,1-1,2.29l-4.56,8.58v.06Z"/>
    </g>
  </g>
</svg>
