<svg xmlns="http://www.w3.org/2000/svg" width="192" height="376.47" viewBox="0 0 192 376.47">
  <defs>
    <style>
      .cls-1 {
        fill: #4b5fef;
      }

      .cls-2 {
        fill: #7687ff;
      }

      .cls-3 {
        fill: #1b2559;
      }

      .cls-12, .cls-4 {
        fill: #fff;
      }

      .cls-4, .cls-7, .cls-9 {
        opacity: 0.74;
      }

      .cls-5 {
        fill: #b8c2e6;
      }

      .cls-6 {
        fill: #d2d8ff;
      }

      .cls-11, .cls-7 {
        fill: #5a67ff;
      }

      .cls-8 {
        fill: #ebefff;
      }

      .cls-9 {
        fill: #ccd8ff;
      }

      .cls-10 {
        fill: #dee5fc;
        opacity: 0.8;
      }
    </style>
  </defs>
  <g id="Layer_1" data-name="Layer 1">
    <g>
      <g>
        <polyline class="cls-1" points="70.74 274.16 123.23 304.73 159.69 283.51 70.74 231.72"/>
        <polygon class="cls-2" points="161.68 282.35 70.74 229.41 30.32 252.94 121.27 305.88 161.68 282.35"/>
        <polygon class="cls-1" points="121.26 352.94 30.32 300 30.32 252.94 121.26 305.88 121.26 352.94"/>
        <polygon class="cls-3" points="70.74 231.72 70.74 274.16 52.51 263.55 34.28 252.94 70.74 231.72"/>
      </g>
      <g>
        <polygon class="cls-4" points="161.67 223.53 50.52 158.82 10.11 182.35 121.26 247.06 161.67 223.53"/>
        <polyline class="cls-5" points="50.52 203.57 123.23 245.91 159.68 224.69 50.52 161.13"/>
        <polygon class="cls-6" points="121.26 294.12 10.1 229.41 10.11 182.35 121.26 247.06 121.26 294.12"/>
        <polygon class="cls-7" points="50.52 161.13 50.52 203.57 32.29 192.96 14.07 182.35 50.52 161.13"/>
      </g>
      <g>
        <polygon class="cls-4" points="161.68 164.7 50.53 100 10.11 123.53 121.27 188.23 161.68 164.7"/>
        <polyline class="cls-5" points="50.53 144.74 123.23 187.08 159.69 165.86 50.53 102.31"/>
        <polygon class="cls-6" points="121.26 235.29 10.11 170.59 10.11 123.53 121.26 188.23 121.26 235.29"/>
        <polygon class="cls-7" points="50.53 102.31 50.53 144.74 32.3 134.14 14.07 123.53 50.53 102.31"/>
      </g>
      <g>
        <polygon class="cls-4" points="161.68 105.88 50.53 41.17 10.11 64.7 121.27 129.41 161.68 105.88"/>
        <polyline class="cls-5" points="50.53 85.92 123.23 128.26 159.69 107.04 50.53 43.48"/>
        <polygon class="cls-6" points="121.26 176.47 10.11 111.76 10.11 64.7 121.26 129.41 121.26 176.47"/>
        <polygon class="cls-7" points="50.53 43.48 50.53 85.92 32.3 75.31 14.07 64.7 50.53 43.48"/>
      </g>
      <polygon class="cls-8" points="181.9 70.58 181.89 341.17 121.26 376.47 121.27 105.88 181.9 70.58"/>
      <g>
        <polygon class="cls-6" points="171.79 170.59 131.37 194.12 131.37 241.18 171.79 217.65 171.79 170.59"/>
        <path class="cls-8" d="M145.58,219.91c0-7.37,9.32-13.54,9.29-17.56,0-1.77-1.37-2.11-3-1.22-2.31,1.23-3.56,4.31-3.56,4.31l-2.69-.41a15.23,15.23,0,0,1,6.54-7.55c3.47-1.83,6.45-1.24,6.49,2.56.07,6.46-8.86,12.39-8.93,16.28l9.37-5.08,0,3.15-13.34,7.25A13.31,13.31,0,0,1,145.58,219.91Z"/>
      </g>
      <polygon class="cls-6" points="171.79 111.76 131.37 135.29 131.37 182.35 171.79 158.82 171.79 111.76"/>
      <path class="cls-8" d="M147.66,155.77l4.35-2.48L152,142c0-.69,0-1.39,0-1.39l0,0a10.31,10.31,0,0,1-.87,1.63l-1.59,2.45-2.12-1.11,5-7.68,3.14-1.76.12,17.07,4.35-2.48,0,3.15-12.29,7Z"/>
      <g>
        <polygon class="cls-9" points="121.26 105.88 0 35.29 0 305.88 121.26 376.47 121.26 105.88"/>
        <polygon class="cls-10" points="181.89 70.59 60.63 0 0 35.29 121.26 105.88 181.89 70.59"/>
      </g>
      <polygon class="cls-6" points="171.78 288.23 131.36 311.76 131.36 358.82 171.78 335.29 171.78 288.23"/>
      <path class="cls-8" d="M145.25,331.25l8.5-16.73,4.26-1.91.14,11.93,2.58-1.18.05,3-2.6,1.19.06,5.2-3.59,1.67-.05-5.22-9.35,4.3Zm9.33-5.07-.05-6.28a21.54,21.54,0,0,1,.12-2.17l-.06,0a20.17,20.17,0,0,1-1,2.3l-4.56,8.59v.06Z"/>
      <g id="front-drawerr">
        <polyline class="cls-2" points="131.37 311.76 151.58 323.53 192 300 171.79 288.23"/>
        <polygon class="cls-11" points="192 300 151.58 323.53 151.58 370.59 192 347.06 192 300"/>
        <polygon class="cls-1" points="151.58 370.59 131.37 358.82 131.37 311.76 151.58 323.53 151.58 370.59"/>
        <polyline class="cls-1" points="133.35 310.61 151.58 321.22 188.03 300 169.81 289.39"/>
        <polygon class="cls-3" points="169.81 289.39 169.81 310.61 151.58 321.22 133.35 310.61 169.81 289.39"/>
        <path class="cls-12" d="M165.58,341.32l8.51-16.73,4.25-1.92.14,11.94,2.59-1.18,0,3-2.59,1.19.06,5.2-3.6,1.66,0-5.22-9.36,4.3Zm9.33-5.08,0-6.27a21.61,21.61,0,0,1,.12-2.18l-.06,0a18.3,18.3,0,0,1-1,2.3l-4.56,8.59v.05Z"/>
      </g>
      <g>
        <polygon class="cls-6" points="171.78 229.41 131.36 252.94 131.36 300 171.78 276.47 171.78 229.41"/>
        <path class="cls-8" d="M147.85,271.44a4.92,4.92,0,0,0,4.55-.35c2.08-1.11,3.6-3.2,3.58-4.94,0-2.14-2-2.11-4.29-.88l-1.38.73-.82-1.47,3.62-6.31c.77-1.35,1.41-2.29,1.41-2.29v-.05s-.59.39-1.76,1L146.85,260v-3.19l12.07-6.28,0,2.29-4.8,8.27c2.75-1.05,5.46-.48,5.5,3s-2.52,8-7,10.38c-4.27,2.29-6.65.83-6.65.83Z"/>
      </g>
    </g>
  </g>
</svg>
