<svg xmlns="http://www.w3.org/2000/svg" width="192" height="376" viewBox="0 0 192 376">
  <defs>
    <style>
      .cls-1, .cls-12 {
        fill: #fff;
      }

      .cls-1, .cls-10, .cls-4 {
        opacity: 0.74;
      }

      .cls-2 {
        fill: #b8c2e6;
      }

      .cls-3 {
        fill: #d2d8ff;
      }

      .cls-4, .cls-8 {
        fill: #5a67ff;
      }

      .cls-5 {
        fill: #4b5fef;
      }

      .cls-6 {
        fill: #7687ff;
      }

      .cls-7 {
        fill: #ebefff;
      }

      .cls-9 {
        fill: #1b2559;
      }

      .cls-10 {
        fill: #ccd8ff;
      }

      .cls-11 {
        fill: #dee5fc;
        opacity: 0.8;
      }
    </style>
  </defs>
  <g id="Layer_1" data-name="Layer 1">
    <g>
      <g>
        <polygon class="cls-1" points="30.32 282 141.47 217.37 181.89 240.87 70.74 305.5 30.32 282"/>
        <polyline class="cls-2" points="141.48 262.07 68.77 304.35 32.31 283.16 141.48 219.68"/>
        <polygon class="cls-3" points="70.74 352.5 181.9 287.87 181.89 240.87 70.74 305.5 70.74 352.5"/>
        <polygon class="cls-4" points="141.48 219.68 141.48 262.07 159.71 251.47 177.93 240.87 141.48 219.68"/>
      </g>
      <g>
        <polygon class="cls-1" points="30.32 223.25 141.47 158.63 181.89 182.13 70.74 246.75 30.32 223.25"/>
        <polyline class="cls-2" points="141.48 203.32 68.77 245.6 32.31 224.41 141.48 160.93"/>
        <polygon class="cls-3" points="70.74 293.75 181.9 229.13 181.89 182.13 70.74 246.75 70.74 293.75"/>
        <polygon class="cls-4" points="141.48 160.93 141.48 203.32 159.71 192.72 177.93 182.13 141.48 160.93"/>
      </g>
      <g>
        <polygon class="cls-1" points="30.32 164.5 141.47 99.88 181.89 123.38 70.74 188 30.32 164.5"/>
        <polyline class="cls-2" points="141.48 144.57 68.77 186.85 32.31 165.66 141.48 102.18"/>
        <polygon class="cls-3" points="70.74 235 181.9 170.38 181.89 123.38 70.74 188 70.74 235"/>
        <polygon class="cls-4" points="141.48 102.18 141.48 144.57 159.7 133.97 177.93 123.38 141.48 102.18"/>
      </g>
      <polyline class="cls-5" points="121.27 97.57 68.77 128.1 32.31 106.91 121.27 55.18"/>
      <polygon class="cls-6" points="30.32 105.75 121.26 52.87 161.68 76.38 70.73 129.25 30.32 105.75"/>
      <polygon class="cls-7" points="10.11 70.5 10.11 340.75 70.75 376 70.74 105.75 10.11 70.5"/>
      <polygon class="cls-3" points="20.21 170.38 60.63 193.88 60.63 240.88 20.21 217.38 20.21 170.38"/>
      <polygon class="cls-8" points="0 123.38 40.42 146.88 40.42 193.88 0 170.37 0 123.38"/>
      <polygon class="cls-5" points="40.42 193.88 60.63 182.13 60.63 135.13 40.42 146.88 40.42 193.88"/>
      <polygon class="cls-5" points="70.74 176.25 161.68 123.38 161.68 76.38 70.74 129.25 70.74 176.25"/>
      <polyline class="cls-6" points="60.63 135.13 40.42 146.88 0 123.38 20.21 111.63"/>
      <polyline class="cls-5" points="58.65 133.97 40.42 144.57 3.97 123.38 22.2 112.78"/>
      <polygon class="cls-9" points="22.2 112.78 22.2 133.97 40.42 144.57 58.65 133.97 22.2 112.78"/>
      <polygon class="cls-9" points="121.27 55.18 121.27 97.57 139.49 86.97 157.72 76.37 121.27 55.18"/>
      <g>
        <polygon class="cls-10" points="70.73 105.75 192 35.25 192 305.5 70.74 376 70.73 105.75"/>
        <polygon class="cls-11" points="10.1 70.5 131.37 0 192 35.25 70.73 105.75 10.1 70.5"/>
      </g>
      <g>
        <polygon class="cls-3" points="20.21 229.12 60.63 252.62 60.63 299.62 20.21 276.12 20.21 229.12"/>
        <path class="cls-7" d="M33.74,265.64a16.52,16.52,0,0,0,4.6,4.93c2.12,1.32,3.66,1,3.66-.75,0-2.14-2-4.37-4.34-5.85l-1.4-.88-.82-2.4,3.71-2.09a7.93,7.93,0,0,1,1.46-.63v-.06s-.6-.29-1.8-1l-6-3.78v-3.17l12.38,7.72V260l-5,2.65c2.8,2.15,5.54,5.86,5.54,9.38s-2.64,5-7.16,2.2a22,22,0,0,1-6.72-6.91Z"/>
      </g>
      <polygon class="cls-3" points="20.21 287.87 60.63 311.37 60.63 358.37 20.21 334.87 20.21 287.87"/>
      <path class="cls-7" d="M41.49,327.94v-12l-4.36-2.35-8.76,8.08v2.26L37.86,329v5.23l3.63,2V331l2.63,1.42v-3.06Zm-3.62-8.25V326l-5.61-3v-.05l4.7-4a5.87,5.87,0,0,0,1-1.32l.06,0A16.49,16.49,0,0,0,37.87,319.69Z"/>
      <path class="cls-7" d="M32.61,210.69c0-7.57,9.51-3.1,9.51-7.41a5.94,5.94,0,0,0-3.07-4.79c-2.36-1.36-3.65.41-3.65.41l-2.73-3.49s1.87-3.15,6.7-.43c3.56,2,6.57,6.06,6.57,10.2,0,7-9.08,2.71-9.18,6.67l9.5,5.92v3.44l-13.48-8.55A16.93,16.93,0,0,1,32.61,210.69Z"/>
      <path class="cls-12" d="M13.08,161.89l4.4,2.94,0-11.26c0-.68,0-1.35,0-1.35l-.06,0a1.79,1.79,0,0,1-.88.55l-1.63.46-2.17-3.74L17.88,148l3.22,2.15v17.13l4.4,2.95v3.18l-12.42-8.31Z"/>
    </g>
  </g>
</svg>
