<svg xmlns="http://www.w3.org/2000/svg" width="192" height="316" viewBox="0 0 192 316">
  <defs>
    <style>
      .cls-1, .cls-12 {
        fill: #fff;
      }

      .cls-1, .cls-10, .cls-4 {
        opacity: 0.74;
      }

      .cls-2 {
        fill: #b8c2e6;
      }

      .cls-3 {
        fill: #d2d8ff;
      }

      .cls-4, .cls-8 {
        fill: #5a67ff;
      }

      .cls-5 {
        fill: #4b5fef;
      }

      .cls-6 {
        fill: #7687ff;
      }

      .cls-7 {
        fill: #ebefff;
      }

      .cls-9 {
        fill: #1b2559;
      }

      .cls-10 {
        fill: #ccd8ff;
      }

      .cls-11 {
        fill: #dee5fc;
        opacity: 0.8;
      }
    </style>
  </defs>
  <g id="Layer_1" data-name="Layer 1">
    <g>
      <g>
        <polygon class="cls-1" points="30.32 222.37 141.47 158 181.89 181.41 70.74 245.78 30.32 222.37"/>
        <polyline class="cls-2" points="141.48 202.52 68.77 244.64 32.31 223.53 141.48 160.3"/>
        <polygon class="cls-3" points="70.74 292.59 181.9 228.22 181.89 181.41 70.74 245.78 70.74 292.59"/>
        <polygon class="cls-4" points="141.48 160.3 141.48 202.52 159.71 191.97 177.93 181.41 141.48 160.3"/>
      </g>
      <g>
        <polygon class="cls-1" points="30.32 163.85 141.47 99.48 181.89 122.89 70.74 187.26 30.32 163.85"/>
        <polyline class="cls-2" points="141.48 144 68.77 186.12 32.31 165.01 141.48 101.78"/>
        <polygon class="cls-3" points="70.74 234.07 181.9 169.71 181.89 122.89 70.74 187.26 70.74 234.07"/>
        <polygon class="cls-4" points="141.48 101.78 141.48 144 159.71 133.45 177.93 122.89 141.48 101.78"/>
      </g>
      <polyline class="cls-5" points="121.27 97.18 68.77 127.6 32.31 106.49 121.27 54.96"/>
      <polygon class="cls-6" points="30.32 105.33 121.26 52.67 161.68 76.07 70.74 128.74 30.32 105.33"/>
      <polygon class="cls-7" points="10.1 70.22 10.11 280.89 70.74 316 70.74 105.33 10.1 70.22"/>
      <polygon class="cls-3" points="20.21 169.71 60.63 193.11 60.63 239.93 20.21 216.52 20.21 169.71"/>
      <polygon class="cls-3" points="20.21 228.22 60.63 251.63 60.63 298.45 20.21 275.04 20.21 228.22"/>
      <polygon class="cls-8" points="0 122.89 40.42 146.3 40.42 193.11 0 169.7 0 122.89"/>
      <polygon class="cls-5" points="40.42 193.11 60.63 181.41 60.63 134.59 40.42 146.3 40.42 193.11"/>
      <polygon class="cls-5" points="70.74 175.56 161.69 122.89 161.68 76.07 70.74 128.74 70.74 175.56"/>
      <polyline class="cls-6" points="60.63 134.59 40.42 146.3 0 122.89 20.21 111.19"/>
      <polyline class="cls-5" points="58.65 133.44 40.42 144 3.97 122.89 22.2 112.33"/>
      <polygon class="cls-9" points="22.2 112.33 22.2 133.44 40.42 144 58.65 133.44 22.2 112.33"/>
      <polygon class="cls-9" points="121.27 54.96 121.27 97.18 139.49 86.63 157.72 76.07 121.27 54.96"/>
      <g>
        <polygon class="cls-10" points="70.74 105.33 192 35.11 192 245.78 70.74 316 70.74 105.33"/>
        <polygon class="cls-11" points="10.1 70.22 131.37 0 192 35.11 70.74 105.33 10.1 70.22"/>
      </g>
      <path class="cls-12" d="M13.08,161.89l4.4,2.94,0-11.26c0-.68,0-1.35,0-1.35l-.06,0a1.79,1.79,0,0,1-.88.55l-1.63.46-2.17-3.74L17.88,148l3.22,2.15v17.13l4.4,2.95v3.18l-12.42-8.31Z"/>
      <path class="cls-7" d="M32.61,210.69c0-7.57,9.51-3.1,9.51-7.41a5.94,5.94,0,0,0-3.07-4.79c-2.36-1.36-3.65.41-3.65.41l-2.73-3.49s1.87-3.15,6.7-.43c3.56,2,6.57,6.06,6.57,10.2,0,7-9.08,2.71-9.18,6.67l9.5,5.92v3.44l-13.48-8.55A16.93,16.93,0,0,1,32.61,210.69Z"/>
      <path class="cls-7" d="M33.74,265.64a16.52,16.52,0,0,0,4.6,4.93c2.12,1.32,3.66,1,3.66-.75,0-2.14-2-4.37-4.34-5.85l-1.4-.88-.82-2.4,3.71-2.09a7.93,7.93,0,0,1,1.46-.63v-.06s-.6-.29-1.8-1l-6-3.78v-3.17l12.38,7.72V260l-5,2.65c2.8,2.15,5.54,5.86,5.54,9.38s-2.64,5-7.16,2.2a22,22,0,0,1-6.72-6.91Z"/>
    </g>
  </g>
</svg>
