<?xml version="1.0" encoding="utf-8"?>
<!-- Generator: Adobe Illustrator 24.0.0, SVG Export Plug-In . SVG Version: 6.00 Build 0)  -->
<svg version="1.1" id="Layer_1" xmlns="http://www.w3.org/2000/svg" xmlns:xlink="http://www.w3.org/1999/xlink" x="0px" y="0px"
	 viewBox="0 0 18 18" style="enable-background:new 0 0 18 18;" xml:space="preserve">
<style type="text/css">
	.st0{fill-rule:evenodd;clip-rule:evenodd;fill:#1B2559;}
</style>

<desc>Created with Sketch.</desc>
<g id="color_x2F_primary_x2F_zodiac" transform="translate(-0.000000, 0.000000)">
	<g id="Mask">
		<path id="path-1_1_" class="st0" d="M11.1,9l6.5,6.5c0.6,0.6,0.6,1.5,0,2.1c-0.3,0.3-0.7,0.4-1.1,0.4c-0.4,0-0.8-0.2-1.1-0.4
			L9,11.1l-6.5,6.5C2.3,17.8,1.9,18,1.5,18c-0.4,0-0.8-0.2-1.1-0.4c-0.6-0.6-0.6-1.5,0-2.1L6.9,9L0.4,2.5C-0.1,2-0.1,1,0.4,0.4
			C1-0.1,2-0.1,2.5,0.4L9,6.9l6.5-6.5c0.6-0.6,1.5-0.6,2.1,0c0.6,0.6,0.6,1.5,0,2.1L11.1,9z"/>
	</g>
</g>
</svg>
