<svg xmlns="http://www.w3.org/2000/svg" width="192" height="376" viewBox="0 0 192 376">
  <defs>
    <style>
      .cls-1, .cls-12 {
        fill: #fff;
      }

      .cls-1, .cls-4, .cls-9 {
        opacity: 0.74;
      }

      .cls-2 {
        fill: #b8c2e6;
      }

      .cls-3 {
        fill: #d2d8ff;
      }

      .cls-11, .cls-4 {
        fill: #5a67ff;
      }

      .cls-5 {
        fill: #4b5fef;
      }

      .cls-6 {
        fill: #7687ff;
      }

      .cls-7 {
        fill: #1b2559;
      }

      .cls-8 {
        fill: #ebefff;
      }

      .cls-9 {
        fill: #ccd8ff;
      }

      .cls-10 {
        fill: #dee5fc;
        opacity: 0.8;
      }
    </style>
  </defs>
  <g id="Layer_1" data-name="Layer 1">
    <g>
      <g>
        <polygon class="cls-1" points="30.33 282 141.48 217.38 181.89 240.88 70.74 305.5 30.33 282"/>
        <polyline class="cls-2" points="141.48 262.07 68.77 304.35 32.32 283.16 141.48 219.68"/>
        <polygon class="cls-3" points="70.74 352.5 181.9 287.88 181.89 240.88 70.74 305.5 70.74 352.5"/>
        <polygon class="cls-4" points="141.48 219.68 141.48 262.07 159.71 251.47 177.93 240.88 141.48 219.68"/>
      </g>
      <g>
        <polyline class="cls-5" points="121.26 215.07 68.77 245.6 32.31 224.41 121.26 172.68"/>
        <polygon class="cls-6" points="30.32 223.25 121.26 170.37 161.68 193.88 70.73 246.75 30.32 223.25"/>
        <polygon class="cls-5" points="70.74 293.75 161.68 240.88 161.68 193.88 70.74 246.75 70.74 293.75"/>
        <polygon class="cls-7" points="121.26 172.68 121.26 215.07 139.49 204.47 157.72 193.87 121.26 172.68"/>
      </g>
      <g>
        <polygon class="cls-1" points="30.32 164.5 141.47 99.87 181.89 123.37 70.73 188 30.32 164.5"/>
        <polyline class="cls-2" points="141.47 144.56 68.77 186.85 32.31 165.66 141.47 102.18"/>
        <polygon class="cls-3" points="70.74 235 181.89 170.37 181.89 123.37 70.74 188 70.74 235"/>
        <polygon class="cls-4" points="141.47 102.18 141.47 144.56 159.7 133.97 177.93 123.37 141.47 102.18"/>
      </g>
      <g>
        <polygon class="cls-1" points="30.32 105.75 141.47 41.12 181.89 64.62 70.73 129.25 30.32 105.75"/>
        <polyline class="cls-2" points="141.47 85.81 68.77 128.1 32.31 106.91 141.47 43.43"/>
        <polygon class="cls-3" points="70.74 176.25 181.89 111.62 181.89 64.62 70.74 129.25 70.74 176.25"/>
        <polygon class="cls-4" points="141.47 43.43 141.47 85.81 159.7 75.22 177.93 64.62 141.47 43.43"/>
      </g>
      <polygon class="cls-8" points="10.1 70.5 10.11 340.75 70.74 376 70.73 105.75 10.1 70.5"/>
      <polygon class="cls-3" points="20.21 170.38 60.63 193.88 60.63 240.88 20.21 217.38 20.21 170.38"/>
      <polygon class="cls-3" points="20.21 111.62 60.63 135.12 60.63 182.12 20.21 158.62 20.21 111.62"/>
      <g>
        <polygon class="cls-9" points="70.74 105.75 192 35.25 192 305.5 70.74 376 70.74 105.75"/>
        <polygon class="cls-10" points="10.11 70.5 131.37 0 192 35.25 70.74 105.75 10.11 70.5"/>
      </g>
      <polygon class="cls-3" points="20.22 287.88 60.64 311.38 60.64 358.38 20.22 334.88 20.22 287.88"/>
      <path class="cls-8" d="M41.49,327.94v-12l-4.36-2.35-8.76,8.08v2.26L37.86,329v5.23l3.63,2V331l2.63,1.42v-3.06Zm-3.62-8.25V326l-5.61-3v-.05l4.7-4a5.87,5.87,0,0,0,1-1.32l.06,0A16.49,16.49,0,0,0,37.87,319.69Z"/>
      <g id="front-drawerr">
        <polyline class="cls-6" points="60.63 252.62 40.42 264.37 0 240.87 20.21 229.12"/>
        <polygon class="cls-11" points="0 240.87 40.42 264.37 40.42 311.37 0 287.87 0 240.87"/>
        <polygon class="cls-5" points="40.42 311.37 60.63 299.62 60.63 252.62 40.42 264.37 40.42 311.37"/>
        <polyline class="cls-5" points="58.65 251.47 40.42 262.07 3.97 240.87 22.19 230.28"/>
        <polygon class="cls-7" points="22.19 230.28 22.19 251.47 40.42 262.07 58.65 251.47 22.19 230.28"/>
      </g>
      <path class="cls-8" d="M32.29,147.62l4.4,2.95,0-11.26c0-.69,0-1.36,0-1.36l-.06,0a1.72,1.72,0,0,1-.88.55l-1.63.45L32,135.19l5.09-1.49,3.22,2.15V153l4.4,3v3.17l-12.42-8.31Z"/>
      <path class="cls-12" d="M14.55,279a16.52,16.52,0,0,0,4.6,4.93c2.12,1.32,3.66,1,3.66-.75,0-2.14-2-4.38-4.34-5.86l-1.4-.87-.82-2.4L20,271.93a8,8,0,0,1,1.45-.63v-.06s-.59-.29-1.79-1l-6-3.77v-3.17L26,271v2.32L21,276c2.8,2.14,5.54,5.86,5.54,9.38s-2.63,5-7.15,2.2a22,22,0,0,1-6.72-6.91Z"/>
      <path class="cls-8" d="M32.61,210.69c0-7.57,9.51-3.1,9.51-7.41a5.94,5.94,0,0,0-3.07-4.79c-2.36-1.36-3.65.41-3.65.41l-2.73-3.49s1.87-3.15,6.7-.43c3.56,2,6.57,6.06,6.57,10.2,0,7-9.08,2.71-9.18,6.67l9.5,5.92v3.44l-13.48-8.55A16.93,16.93,0,0,1,32.61,210.69Z"/>
    </g>
  </g>
</svg>
