<?xml version="1.0" encoding="UTF-8"?>
<svg width="32px" height="32px" viewBox="0 0 32 32" version="1.1" xmlns="http://www.w3.org/2000/svg" xmlns:xlink="http://www.w3.org/1999/xlink">
    <!-- Generator: Sketch 63.1 (92452) - https://sketch.com -->
    <desc>Created with Sketch.</desc>
    <g id="icon/crossed-camera" stroke="none" stroke-width="1" fill="none" fill-rule="evenodd">
        <g id="crossed-camera">
            <g id="Group-2">
                <g id="icon/ID/cam/zodiac" transform="translate(0.000000, 3.657143)" fill="#1B2559" fill-rule="nonzero">
                    <path d="M16,19.1876029 C12.4482116,19.1876029 9.56809571,16.389776 9.56809571,12.9394673 C9.56809571,9.48915858 12.4482116,6.69133172 16,6.69133172 C19.5517884,6.69133172 22.4319043,9.48915858 22.4319043,12.9394673 C22.4319043,16.389776 19.5517884,19.1876029 16,19.1876029 Z M16,17.104891 C18.3677075,17.104891 20.2879362,15.239526 20.2879362,12.9394673 C20.2879362,10.6394086 18.3677075,8.77404358 16,8.77404358 C13.6322925,8.77404358 11.7120638,10.6394086 11.7120638,12.9394673 C11.7120638,15.239526 13.6322925,17.104891 16,17.104891 Z M22.7667469,3.30692494 L30.7397807,3.30692494 C31.3318211,3.30692494 31.8117647,3.77315587 31.8117647,4.34828087 L31.8117647,22.0513317 C31.8117647,22.6264567 31.3318211,23.0926877 30.7397807,23.0926877 L1.26021934,23.0926877 C0.6681789,23.0926877 0.188235294,22.6264567 0.188235294,22.0513317 L0.188235294,4.34828087 C0.188235294,3.77315587 0.6681789,3.30692494 1.26021934,3.30692494 L9.23325311,3.30692494 L12.0766705,0.494526627 C12.2782333,0.295162767 12.5538198,0.182857143 12.8414756,0.182857143 L19.1585244,0.182857143 C19.4461802,0.182857143 19.7217667,0.295162767 19.9233295,0.494526627 L22.7667469,3.30692494 Z M29.6677966,5.3896368 L22.3170489,5.3896368 C22.0293931,5.3896368 21.7538065,5.27733118 21.5522438,5.07796732 L18.7088264,2.26556901 L13.2911736,2.26556901 L10.4477562,5.07796732 C10.2461935,5.27733118 9.97060695,5.3896368 9.68295115,5.3896368 L2.33220339,5.3896368 L2.33220339,21.0099758 L29.6677966,21.0099758 L29.6677966,5.3896368 Z" id="Stroke-1"></path>
                </g>
                <line x1="32" y1="0" x2="0" y2="32" id="Line" stroke="#FF584A" stroke-width="2" stroke-linecap="square"></line>
            </g>
        </g>
    </g>
</svg>