<svg xmlns="http://www.w3.org/2000/svg" viewBox="0 0 193.58151 258.82261"><defs><style>.a{fill:#4b5fef;}.b{fill:#7687ff;}.c{fill:#1b2559;}.d,.l{fill:#fff;}.d,.g,.i{opacity:0.74;}.e,.i{fill:#ccd8ff;}.f{fill:#d2d8ff;}.g,.k{fill:#5a67ff;}.h{fill:#ebefff;}.j{fill:#dee5fc;opacity:0.8;}</style></defs><title>v2-2</title><polyline class="a" points="71.318 156.512 124.25 187.087 161.005 165.867 71.318 114.073"/><polygon class="b" points="163.014 164.703 71.321 111.764 30.569 135.294 122.265 188.237 163.014 164.703"/><polygon class="a" points="122.262 235.294 30.565 182.353 30.569 135.294 122.262 188.235 122.262 235.294"/><polygon class="c" points="71.318 114.073 71.318 156.512 52.94 145.904 34.564 135.293 71.318 114.073"/><polygon class="d" points="163.014 96.672 50.943 31.969 10.191 55.499 122.265 120.205 163.014 96.672"/><polyline class="e" points="50.94 76.717 124.25 119.056 161.005 97.836 50.94 34.278"/><polygon class="f" points="122.262 167.262 10.188 102.558 10.191 55.499 122.262 120.203 122.262 167.262"/><polygon class="g" points="50.94 34.278 50.94 76.717 32.562 66.109 14.186 55.498 50.94 34.278"/><polygon class="h" points="183.396 70.586 183.393 223.529 122.26 258.823 122.264 105.88 183.396 70.586"/><polygon class="f" points="173.205 100 132.45 123.53 132.45 170.589 173.206 147.058 173.205 100"/><polygon class="i" points="122.264 105.88 0.003 35.292 0 188.234 122.26 258.823 122.264 105.88"/><polygon class="j" points="183.396 70.586 61.131 0 0.003 35.292 122.264 105.88 183.396 70.586"/><polygon class="k" points="193.581 182.354 152.826 205.884 152.826 252.943 193.582 229.412 193.581 182.354"/><polygon class="a" points="152.826 252.943 132.447 241.178 132.45 194.119 152.826 205.884 152.826 252.943"/><polyline class="b" points="132.45 194.119 152.826 205.884 193.581 182.354 173.205 170.59"/><polyline class="a" points="134.45 192.963 152.826 203.574 189.581 182.355 171.204 171.743"/><polygon class="c" points="171.204 171.743 171.204 192.963 152.826 203.574 134.45 192.963 171.204 171.743"/><path class="l" d="M166.09883,231.81817c0-7.5674,9.54391-14.23774,9.539-18.33135-.00216-1.80015-1.38174-2.10383-3.10553-1.13988-2.38357,1.33288-3.67542,4.52582-3.67542,4.52582l-2.758-.33729a16.24393,16.24393,0,0,1,6.74659-7.92622c3.58844-1.98344,6.6354-1.47533,6.642,2.38714.01116,6.57184-9.132,12.98179-9.21626,16.96152l9.5526-5.58888.00556,3.19778-13.55763,8.01151A12.67431,12.67431,0,0,1,166.09883,231.81817Z"/><path class="h" d="M148.45675,147.16772l4.92216-2.785-.0527-12.65868c-.00321-.77094.02451-1.5598.02451-1.5598l-.06255.03481a10.7746,10.7746,0,0,1-.976,1.83219l-1.79958,2.74486-2.407-1.241,5.60186-8.624,3.55679-1.9667.14131,19.16,4.92146-2.78457.04,3.53148-13.90939,7.90252Z"/></svg>